<svg xmlns="http://www.w3.org/2000/svg" xmlns:xlink="http://www.w3.org/1999/xlink" viewBox="0 0 5000 5000"><defs><style>.cls-1{fill:#fff;}.cls-2{fill:url(#linear-gradient);}.cls-3{fill:#e8e8e8;}.cls-4{fill:#d1d1d1;}.cls-5{fill:#2c5660;}.cls-6{fill:#122a30;}.cls-7{fill:#e5d751;}.cls-8{fill:#e8505b;}.cls-9{fill:#76e551;}.cls-10{fill:#ff4f5a;}.cls-11{fill:#224449;}.cls-12{fill:#385a64;}.cls-13{fill:#0d1d21;}.cls-14{fill:#1a2e35;}.cls-15{fill:#d32a3b;}.cls-16{fill:#ffbe9d;}.cls-17{fill:#fcac88;}.cls-18{fill:#1e272b;}.cls-19{fill:#121f23;}.cls-20{fill:#fc986d;}</style><linearGradient id="linear-gradient" x1="2385.1" y1="3842.74" x2="2434.81" y2="2246.07" gradientUnits="userSpaceOnUse"><stop offset="0" stop-color="#fff"/><stop offset="1" stop-color="#e8e8e8"/></linearGradient></defs><title>10</title><g id="Layer_2" data-name="Layer 2"><g id="Layer_1-2" data-name="Layer 1"><rect class="cls-1" width="5000" height="5000"/><path class="cls-2" d="M987.38,1881.36c-131.51,438.41-435.93,336.74-386.23,723.06s329.27,426.73,217.44,633.29S228.38,3730.06,713,3742.49s2307.81,0,2607.69,0,234.42-208,0-268.66,198.69-148.11,578-119.15,657.08-314.48,27.95-721.44S987.38,1881.36,987.38,1881.36Z"/><path class="cls-1" d="M3613,1348.91V3113.12c0,53.55-44.12,96.92-98.56,96.92H994.16c-54.43,0-98.55-43.37-98.55-96.92V1348.91c0-53.53,44.12-96.92,98.55-96.92H3514.44C3568.88,1252,3613,1295.38,3613,1348.91Z"/><path class="cls-3" d="M3163.1,1614.9v459.59c0,14-32.65,25.25-72.93,25.25H1225c-40.29,0-72.93-11.3-72.93-25.25V1614.9c0-13.94,32.64-25.25,72.93-25.25H3090.17C3130.45,1589.65,3163.1,1601,3163.1,1614.9Z"/><path class="cls-3" d="M1764.35,2315.64v459.59c0,13.95-9.94,25.25-22.2,25.25H1174.29c-12.26,0-22.2-11.3-22.2-25.25V2315.64c0-13.94,9.94-25.25,22.2-25.25h567.86C1754.41,2290.39,1764.35,2301.7,1764.35,2315.64Z"/><path class="cls-3" d="M3106.16,2300.08v176.29c0,5.36-18,9.69-40.2,9.69H2038c-22.2,0-40.2-4.33-40.2-9.69V2300.08c0-5.35,18-9.69,40.2-9.69H3066C3088.17,2290.39,3106.16,2294.73,3106.16,2300.08Z"/><path class="cls-3" d="M3106.16,2586.07v176.29c0,5.35-18,9.69-40.2,9.69H2038c-22.2,0-40.2-4.34-40.2-9.69V2586.07c0-5.35,18-9.69,40.2-9.69H3066C3088.17,2576.38,3106.16,2580.72,3106.16,2586.07Z"/><path class="cls-4" d="M3613,1361.73v1751.4a96.92,96.92,0,0,1-96.92,96.92h-50.65V1361.73Z"/><path class="cls-5" d="M3613,1348.92V1458H895.61V1348.92c0-53.54,44.12-96.92,98.55-96.92H3514.45C3568.88,1252,3613,1295.38,3613,1348.92Z"/><path class="cls-6" d="M1671.4,1252l-209.47,206H895.61V1348.92c0-53.54,44.12-96.92,98.55-96.92Z"/><circle class="cls-7" cx="1118.77" cy="1361.72" r="32.19"/><circle class="cls-8" cx="1250.02" cy="1361.72" r="32.19"/><circle class="cls-9" cx="1381.27" cy="1361.72" r="32.19"/><rect class="cls-1" x="3495.69" y="1704.01" width="87.05" height="411.66" rx="14"/><path class="cls-3" d="M4500,1580.31V2641.47c0,32.2-26.54,58.3-59.28,58.3H2924.78c-32.74,0-59.27-26.1-59.27-58.3V1580.31c0-32.2,26.53-58.3,59.27-58.3H4440.72C4473.46,1522,4500,1548.11,4500,1580.31Z"/><path class="cls-1" d="M2931,2688.41c-28.82,0-52.26-23-52.26-51.29V1584.66c0-28.28,23.44-51.29,52.26-51.29H4434.5c28.82,0,52.27,23,52.27,51.29V2637.12c0,28.28-23.45,51.29-52.27,51.29Z"/><path class="cls-4" d="M4500,1588V2641.47a58.3,58.3,0,0,1-58.3,58.3h-30.46V1588Z"/><path class="cls-5" d="M4500,1580.31v65.61H2865.51v-65.61c0-32.2,26.53-58.3,59.27-58.3H4440.72C4473.46,1522,4500,1548.11,4500,1580.31Z"/><path class="cls-6" d="M3332.14,1522l-126,123.91H2865.51v-65.61c0-32.2,26.53-58.3,59.27-58.3Z"/><circle class="cls-7" cx="2999.73" cy="1588.01" r="19.36"/><circle class="cls-8" cx="3078.68" cy="1588.01" r="19.36"/><circle class="cls-9" cx="3157.63" cy="1588.01" r="19.36"/><rect class="cls-1" x="4429.44" y="1793.89" width="52.36" height="247.61" rx="5.28"/><path class="cls-10" d="M3983.47,1953.89l.72-213.28h-.72c-117,0-213.29,96.28-213.29,213.28,0,116.75,95.86,212.91,212.6,213.28Z"/><path class="cls-3" d="M4006.88,1953.89v213.28c112.67,0,206.89-89.27,213-201.76a213,213,0,0,0-4.16-55Z"/><path class="cls-4" d="M4013.09,1913.8l167.62-46c-.05-.19-.11-.38-.16-.57a174.15,174.15,0,0,0-152.67-126.58Z"/><rect class="cls-10" x="3580.71" y="2406.26" width="55.91" height="198.17"/><rect class="cls-3" x="3636.62" y="2313.14" width="55.91" height="291.28"/><rect class="cls-4" x="3692.53" y="2490.53" width="55.91" height="113.89"/><rect class="cls-10" x="3870.69" y="2353.87" width="55.91" height="250.56"/><rect class="cls-3" x="3926.6" y="2453.26" width="55.91" height="151.16"/><rect class="cls-4" x="3978.93" y="2528.84" width="55.91" height="75.58"/><rect class="cls-3" x="4216.58" y="2399.42" width="55.91" height="205"/><rect class="cls-4" x="4272.49" y="2480.52" width="55.91" height="123.9"/><rect class="cls-10" x="4160.68" y="2356.63" width="55.91" height="247.79"/><rect class="cls-3" x="2989.73" y="1707.75" width="185.23" height="185.23" rx="17.03"/><rect class="cls-3" x="3223.42" y="1773.62" width="336.58" height="30.19" rx="4.21"/><rect class="cls-3" x="3223.42" y="1820.26" width="194.49" height="17.45" rx="4.15"/><rect class="cls-3" x="2989.73" y="1918.98" width="185.23" height="185.23" rx="17.03"/><rect class="cls-3" x="3223.42" y="1984.86" width="336.58" height="30.19" rx="4.21"/><rect class="cls-3" x="3223.42" y="2031.49" width="194.49" height="17.45" rx="4.15"/><rect class="cls-3" x="2989.73" y="2130.22" width="185.23" height="185.23" rx="17.03"/><rect class="cls-3" x="3223.42" y="2196.1" width="336.58" height="30.19" rx="4.21"/><rect class="cls-3" x="3223.42" y="2242.73" width="194.49" height="17.45" rx="4.15"/><polygon class="cls-11" points="2791.2 3077.01 2731.84 3077.01 2801.01 2818.86 2860.37 2818.86 2791.2 3077.01"/><polygon class="cls-11" points="3120.38 3077.01 3179.74 3077.01 3110.57 2818.86 3051.21 2818.86 3120.38 3077.01"/><polygon class="cls-12" points="2781.88 3077.01 2722.52 3077.01 2791.69 2818.86 2851.05 2818.86 2781.88 3077.01"/><polygon class="cls-12" points="3111.07 3077.01 3170.43 3077.01 3101.25 2818.86 3041.89 2818.86 3111.07 3077.01"/><circle class="cls-3" cx="2941.19" cy="2472.44" r="90.14"/><circle class="cls-10" cx="2941.19" cy="2472.44" r="412.24" transform="translate(-886.82 2803.89) rotate(-45)"/><circle class="cls-1" cx="2941.19" cy="2472.44" r="304.87" transform="translate(-886.82 2803.89) rotate(-45)"/><circle class="cls-10" cx="2941.19" cy="2472.44" r="197.5" transform="translate(-886.82 2803.89) rotate(-45)"/><circle class="cls-1" cx="2941.19" cy="2472.44" r="90.14"/><polygon class="cls-11" points="2591.5 2479.22 2391.55 2479.22 2303.93 2413.03 2503.88 2413.03 2591.5 2479.22"/><polygon class="cls-11" points="2591.5 2479.24 2391.55 2479.24 2303.93 2545.44 2503.88 2545.44 2591.5 2479.24"/><path class="cls-12" d="M2934.34,2486.06H2397.51a6.85,6.85,0,0,1,0-13.69h536.83a6.85,6.85,0,1,1,0,13.69Z"/><path class="cls-13" d="M2341.52,1794.38h420.65a29.94,29.94,0,0,1,29.94,29.95v123a29.94,29.94,0,0,1-29.94,30H2495.49L2466.8,2027a12.51,12.51,0,0,1-21.67,0l-28.68-49.69h-74.93a29.94,29.94,0,0,1-29.94-30v-123A29.94,29.94,0,0,1,2341.52,1794.38Z"/><polygon class="cls-1" points="2679.08 1866.12 2647.53 1870.2 2669.96 1892.76 2664.09 1924.03 2692.48 1909.66 2720.4 1924.91 2715.52 1893.47 2738.64 1871.62 2707.24 1866.56 2693.6 1837.81 2679.08 1866.12"/><polygon class="cls-1" points="2531.76 1866.12 2500.21 1870.2 2522.64 1892.76 2516.78 1924.03 2545.16 1909.66 2573.09 1924.91 2568.2 1893.47 2591.32 1871.62 2559.92 1866.56 2546.29 1837.81 2531.76 1866.12"/><polygon class="cls-1" points="2384.45 1866.12 2352.9 1870.2 2375.33 1892.76 2369.46 1924.03 2397.85 1909.66 2425.77 1924.91 2420.88 1893.47 2444.01 1871.62 2412.6 1866.56 2398.97 1837.81 2384.45 1866.12"/><path class="cls-8" d="M4064.86,3558.21c98.33-48.09,253.51-174.16,214.55-215.93s-96.54-68.86-36.37-112.61,146.49-105.56,77.31-139.45-173,90-162.9,144.92-47.43,28-75.79,75.3,23.24,84.68,13.16,115.06-119.94,110.54-82.43,130.59S4064.86,3558.21,4064.86,3558.21Z"/><path class="cls-14" d="M4188.84,3281.79c-7.1,22.42-16,44.08-25.55,65.41l-7.54,15.85c-2.42,5.32-5.26,10.45-7.88,15.68l-4,7.82c-1.32,2.61-2.76,5.16-4.13,7.75-2.79,5.14-5.51,10.32-8.37,15.42l-8.59,15.31c-2.86,5.11-5.94,10.09-8.85,15.17s-5.95,10.09-9,15.09-6,10-9.15,15-6.16,10-9.31,14.91-6.24,9.92-9.44,14.83c-6.23,9.95-12.77,19.68-19.26,29.48,14.8-18.26,28.56-37.36,41.58-56.94s25.3-39.67,36.76-60.23a696.44,696.44,0,0,0,31-63.45C4176.15,3327.13,4183.77,3304.74,4188.84,3281.79Z"/><path class="cls-15" d="M4003.12,3599.74l6.93-56.06s109-48.38,95.8-78.38,58.14-45.92,43.31-78.09-84.51-40.12-44.77-94.61,98.16-162.11,31.44-201.15-113.37,23.2-117.89-23.51-3.16-169.21-72.14-168.32-47.71,93.61-19.71,125.22-41.73-1.28-86.16,44.7c-79.79,82.57,64.43,91.39,86.44,100.34s-90.54,53.57-96.63,129.09,7.55,143.41,75.77,195.76S4003.12,3599.74,4003.12,3599.74Z"/><path class="cls-14" d="M3981.37,3084.44c-4.2,37.94-5.28,75.92-5.08,113.88l.77,28.46c.1,9.49,1,19,1.39,28.45l.73,14.22c.25,4.73.7,9.46,1.05,14.2.76,9.46,1.39,18.94,2.27,28.39l2.7,28.37c.87,9.46,2.17,18.88,3.16,28.33s2.19,18.88,3.41,28.3,2.38,18.86,3.72,28.28,2.59,18.84,4,28.25,2.74,18.83,4.26,28.22c2.71,18.85,6,37.6,9.21,56.4-10-36.82-17.83-74.21-24.28-111.82s-11.47-75.5-15-113.55c-3.11-38.07-5-76.29-4.28-114.53C3970.4,3160.08,3973.8,3121.84,3981.37,3084.44Z"/><path class="cls-8" d="M3925.32,3543.1c123.16-44.44,144.64-133.82,116.44-195.35s-141.94-23.91-141.94-23.91,82.69-153,30.15-239-158.27-52.36-164.66,29.19,19.93,94.25,19.93,94.25-25-80.41-80-42.85,13,124.3,69.84,152.23c0,0-80.86-18.67-94,26.85s34.56,154.55,108.86,179.45S3925.32,3543.1,3925.32,3543.1Z"/><path class="cls-14" d="M3846.36,3237.71c-2.59,23.37-3.26,46.77-3.13,70.16l.47,17.54c.06,5.85.58,11.69.85,17.53l.46,8.76c.15,2.92.43,5.83.64,8.75.47,5.83.86,11.67,1.4,17.49l1.66,17.48c.54,5.83,1.34,11.63,1.95,17.45s1.35,11.64,2.1,17.44,1.47,11.63,2.29,17.43,1.6,11.61,2.48,17.4,1.68,11.6,2.62,17.39c1.67,11.61,3.71,23.17,5.67,34.75-6.13-22.69-11-45.72-15-68.9s-7.07-46.51-9.22-70a701.05,701.05,0,0,1-2.64-70.56C3839.59,3284.31,3841.69,3260.75,3846.36,3237.71Z"/><polygon class="cls-14" points="4168.66 3502.46 4166.17 3513.68 4163.78 3524.56 4162.34 3530.96 4159.93 3541.87 4158.52 3548.25 4156.1 3559.16 4154.67 3565.59 4152.28 3576.44 4150.85 3582.87 4148.43 3593.76 4147.02 3600.16 4144.61 3611.07 4143.2 3617.47 4140.78 3628.35 4139.35 3634.76 4136.93 3645.67 4135.52 3652.04 4133.11 3662.95 4131.47 3670.38 3799.18 3675.14 3796.55 3667 3793.03 3656.17 3790.98 3649.81 3787.46 3639.01 3785.41 3632.65 3781.91 3621.81 3779.83 3615.45 3776.33 3604.62 3774.28 3598.26 3770.76 3587.45 3768.71 3581.07 3765.18 3570.26 3763.13 3563.88 3759.64 3553.1 3757.56 3546.71 3754.06 3535.88 3752.01 3529.52 3748.49 3518.69 3746.06 3511.19 4168.66 3502.46"/><polygon class="cls-11" points="4166.17 3513.68 4163.78 3524.56 3752.01 3529.52 3748.49 3518.69 4166.17 3513.68"/><polygon class="cls-11" points="4162.34 3530.96 4159.93 3541.87 3757.56 3546.71 3754.06 3535.88 4162.34 3530.96"/><polygon class="cls-11" points="4158.52 3548.25 4156.1 3559.16 3763.13 3563.88 3759.64 3553.1 4158.52 3548.25"/><polygon class="cls-11" points="4154.67 3565.59 4152.28 3576.44 3768.71 3581.07 3765.18 3570.26 4154.67 3565.59"/><polygon class="cls-11" points="4150.85 3582.87 4148.43 3593.76 3774.28 3598.26 3770.76 3587.45 4150.85 3582.87"/><polygon class="cls-11" points="4147.02 3600.16 4144.61 3611.07 3779.83 3615.45 3776.33 3604.62 4147.02 3600.16"/><polygon class="cls-11" points="4143.2 3617.47 4140.78 3628.35 3785.41 3632.65 3781.91 3621.81 4143.2 3617.47"/><polygon class="cls-11" points="4139.35 3634.76 4136.93 3645.67 3790.98 3649.81 3787.46 3639.01 4139.35 3634.76"/><polygon class="cls-11" points="4135.52 3652.04 4133.11 3662.95 3796.55 3667 3793.03 3656.17 4135.52 3652.04"/><rect class="cls-8" x="561.3" y="1844.5" width="852.16" height="310.92" rx="19"/><rect class="cls-1" x="665.84" y="1908.5" width="643.07" height="13.78"/><rect class="cls-1" x="665.84" y="1986.18" width="643.07" height="13.78"/><rect class="cls-1" x="665.84" y="2063.86" width="643.07" height="13.78"/><path class="cls-16" d="M2127.11,2266.11a11.89,11.89,0,0,1-2.11.64,3.66,3.66,0,0,1-1,.09,2.34,2.34,0,0,1-.39,0c-7.29-1.83-121.79-12.45-184.63-14.45l9.8-58.39,11.45-68.14.37-2.24c44,11.46,135.59,29.29,141.82,26.67,13.55-5.67,200.84-121.1,214.56-123.88.38-.08.64-.09.74,0,12.3,10.18,28,24.24,35.57,39.32.38.7.72,1.42,1.05,2.16C2357.7,2075.21,2158.84,2253.57,2127.11,2266.11Z"/><path class="cls-17" d="M2375.5,2057.36l-21.14,10.5c3.34,7.35-195.52,185.71-227.25,198.25a11.89,11.89,0,0,1-2.11.64,3.66,3.66,0,0,1-1,.09,2.34,2.34,0,0,1-.39,0c-7.29-1.83-121.79-12.45-184.63-14.45l9.8-58.39,11.45-68.14c3.82,14.29,73.09,93.1,83.23,95.71,11.3,2.94,71.44,8.45,101.88,9.17s189.09-152.43,189.09-152.43L2321.51,2065s12.89,4.58,20.61,3.24c3.54-.63,7.39-1.45,11.19-2.52a54.76,54.76,0,0,0,11.83-4.77,40.14,40.14,0,0,1,11.05-3.93C2375.94,2057.11,2375.72,2057.24,2375.5,2057.36Z"/><path class="cls-16" d="M2315.91,2016.75s-12.1,20.52-4,36.18c2.45,4.79,14.45,17.65,26.93,19,22.86,2.38,50.32-10.62,58-38s-22.81-32.93-33-40.68,40.35-42.39,36-56.88c-3.73-12.46-43.29,22.63-71.37,61.42C2323.91,2004,2319.66,2010.44,2315.91,2016.75Z"/><path class="cls-18" d="M1780.07,1984.44c-18.42,1-19.11,14.49-38.9,11.67s-43.11,4.2-62.11-.3-6.29-63.57,13.62-74.92S1780.07,1984.44,1780.07,1984.44Z"/><path class="cls-18" d="M1753.5,1955.69a37.38,37.38,0,0,0,41.78,37.52c14.2-1.68,28.56-11.36,41.7-5.7,10.6,4.59,16.66,18.25,28.18,19.21,6.48.56,12.4-3.27,17.77-6.91l15.63-10.6q7.21-4.93,14.43-9.81c13.13-8.93,26.89-18.57,33.38-33.06,7.4-16.48,2.6-38-12-48.69a62.75,62.75,0,0,0-9.31-5.39c-8.65-4.32-17.77-8-22.33-16.22-9.5-17.13,7.94-41.26-3.55-57.09-8-11-25.6-11-33.72-21.83-6.67-9-4.27-21.39-3.69-32.53a88.09,88.09,0,0,0-11.88-48.95s-94.47,15-99.48,96.55S1753.5,1955.69,1753.5,1955.69Z"/><path class="cls-17" d="M1800.14,3138.29l60.68,298,23.74,116.58v0h0c.8.43,22,12.12,38.19,16.51,5.89,1.62,11.12,2.26,14.46,1a1,1,0,0,0,.27-.09c7.08-3,14.15-6.62,18.52-11.92a18,18,0,0,0,4.29-13.38,11.72,11.72,0,0,0-.14-1.3c-1-7.24-.91-49-.66-88.35,0-5.12.07-14.55.11-27,.14-41.72.3-117.54.44-180.39.09-57.4.18-104,.18-104l-58.7-2.1Z"/><path class="cls-16" d="M1910.59,3428.36c3.81,56.48,16.83,109,26.65,142a1,1,0,0,0,.27-.09c7.08-3,14.15-6.62,18.52-11.92a18,18,0,0,0,4.29-13.38,11.72,11.72,0,0,0-.14-1.3c-1-7.24-.91-49-.66-88.35,0-5.12.07-14.55.11-27,.14-41.72.3-117.54.44-180.39C1937.69,3283.68,1904.91,3344,1910.59,3428.36Z"/><path class="cls-3" d="M1860.82,3436.3l23.74,116.58v0h0c.8.43,22,12.12,38.19,16.51,5.89,1.62,11.12,2.26,14.46,1a1,1,0,0,0,.27-.09c7.08-3,14.15-6.62,18.52-11.92a18,18,0,0,0,4.29-13.38,11.72,11.72,0,0,0-.14-1.3c-1-7.24-.91-49-.66-88.35,0-5.12.07-14.55.11-27-12.71,3.38-29.13,5.36-45.68,6.5-1,.07-1.9.14-2.86.19C1892.65,3436.26,1874.27,3436.42,1860.82,3436.3Z"/><path class="cls-1" d="M1911.09,3435.05c4.34,53.92,16.72,103.63,26.15,135.36a1,1,0,0,0,.27-.09c7.08-3,14.15-6.62,18.52-11.92a18,18,0,0,0,4.29-13.38,11.72,11.72,0,0,0-.14-1.3c-1-7.24-.91-49-.66-88.35,0-5.12.07-14.55.11-27-12.71,3.38-29.13,5.36-45.68,6.5C1913,3434.93,1912.05,3435,1911.09,3435.05Z"/><path class="cls-8" d="M1889.24,3677.21a30.61,30.61,0,0,0,2.58,6.49s0,0,0,0a13.63,13.63,0,0,0,2.54,3.27c4.91,4.52,12.4,3.67,18.86,2.55q40.62-7.12,81.25-14.22c4.34-.75,8.66-1.51,13-2.28l13-2.26c7.83-1.4,15.64-2.81,23.45-4.3,11.3-2.14,22.58-4.47,33.67-7.48,20.66-5.62,40.94-13.79,57.42-27.33a7.56,7.56,0,0,0,3-3.86c.43-1.83-.48-3.72-1.46-5.37a45.25,45.25,0,0,0-5-6.71,59.44,59.44,0,0,0-19-14c-2-1-4-1.83-6-2.61-12-4.56-24.77-6.37-37.39-8.13l-21.67-3-3.91-.55-16.66-2.33-3.88-.55c-4.32-.59-8.66-1.18-13-1.8-3.47-.48-6.94-1-10.41-1.6-1.3-.23-2.61-.48-3.88-.77a61.92,61.92,0,0,1-14.14-4.68c-2.14-1.05-4-3.77-5.82-7.24-.73-1.42-1.41-3-2.12-4.59v0c-4.52-10.67-8.22-23.7-12.76-19.27a3.48,3.48,0,0,1-.55.45c-5.64,4.59-22.58,6.6-39,7.45-18.29.93-36,.45-36.71.43h0a68.67,68.67,0,0,1,.55,10.43c-.13,10.51-2.19,21-3.42,31.46A202.54,202.54,0,0,0,1889.24,3677.21Z"/><path class="cls-15" d="M1972.84,3564.9q-6.52,19.32-14.65,38c-1,2.3,2.44,4.2,3.45,1.87q8.33-19.17,15-39c.81-2.4-3-3.32-3.81-.94Z"/><path class="cls-15" d="M1997.87,3574.19a167.88,167.88,0,0,0-10.19,47.88c-.16,2.53,3.76,2.45,3.93-.06a164.09,164.09,0,0,1,10.07-46.88c.88-2.37-2.94-3.28-3.81-.94Z"/><path class="cls-15" d="M2023.9,3579.35a127.75,127.75,0,0,0-2.07,36.29c.22,2.51,4.14,2.46,3.93-.06a123.65,123.65,0,0,1,2-35.29c.49-2.47-3.31-3.42-3.81-.94Z"/><path class="cls-15" d="M2043.83,3583.93a96.6,96.6,0,0,0,1.46,30.34c.5,2.48,4.28,1.39,3.77-1.07a93.47,93.47,0,0,1-1.31-29.33c.28-2.51-3.65-2.42-3.92.06Z"/><path class="cls-1" d="M1887.19,3674.48c1,3.35,2.17,6.8,4.63,9.22,0,0,0,0,0,0a2.13,2.13,0,0,0,.3.3c4.82,4.38,12.24,3.47,18.63,2.28l80.62-15,12.9-2.4c2.87-.55,5.73-1.07,8.6-1.6,9.18-1.73,18.34-3.47,27.52-5.32,11.21-2.28,22.39-4.7,33.42-7.8,20.5-5.78,40.71-14.09,57.17-27.63,1.28-1.05,2.6-2.22,3-3.84.43-1.8-.43-3.65-1.39-5.25-.34-.59-.71-1.16-1.1-1.71-5-7.58-12.39-13.33-20.57-17.49a15.33,15.33,0,0,1,1.58,3.5,15.09,15.09,0,0,1,.77,6c-.43,5.55-3.33,10.57-6.75,14.87a57.38,57.38,0,0,1-28.43,19.06c-13.88,4.09-28.81,2.81-43.33,3.47-16.65.78-32.88,4.16-49,8.17-19.4,4.84-38.67,10.62-58.38,14-7.71,1.32-16.25,2.12-23-2.13-4.59-2.85-7.67-7.65-10.12-12.51a83.8,83.8,0,0,1-8.56-44.63c.73-8.27,2.72-16.37,3.18-24.68.38-6.83-.57-14-3.75-20a10.73,10.73,0,0,0-.57-1.12c-.25,10.42-2.42,20.85-3.79,31.26A197.52,197.52,0,0,0,1887.19,3674.48Z"/><path class="cls-17" d="M1563.24,3089.44l-55.12,299.09-21.56,117v0h0c.58.7,15.88,19.47,29.26,29.59,4.86,3.7,9.47,6.25,13,6.33a1.32,1.32,0,0,0,.29,0c7.66-.09,15.6-.85,21.62-4.13a17.93,17.93,0,0,0,9-10.81c.14-.41.26-.83.36-1.25,1.81-7.08,17.48-45.83,32.41-82.2,1.94-4.74,5.5-13.47,10.21-25,15.72-38.64,44.21-108.9,67.83-167.15,21.54-53.2,39-96.36,39-96.36l-53.66-23.9Z"/><path class="cls-16" d="M1557.25,3399.77c-17.58,53.81-25.15,107.4-28.39,141.71a1.32,1.32,0,0,0,.29,0c7.66-.09,15.6-.85,21.62-4.13a17.93,17.93,0,0,0,9-10.81c.14-.41.26-.83.36-1.25,1.81-7.08,17.48-45.83,32.41-82.2,1.94-4.74,5.5-13.47,10.21-25,15.72-38.64,44.21-108.9,67.83-167.15C1636.47,3275.71,1583.53,3319.35,1557.25,3399.77Z"/><path class="cls-3" d="M1508.12,3388.53l-21.56,117v0h0c.58.7,15.88,19.47,29.26,29.59,4.86,3.7,9.47,6.25,13,6.33a1.32,1.32,0,0,0,.29,0c7.66-.09,15.6-.85,21.62-4.13a17.93,17.93,0,0,0,9-10.81c.14-.41.26-.83.36-1.25,1.81-7.08,17.48-45.83,32.41-82.2,1.94-4.74,5.5-13.47,10.21-25-13.06-1.62-29-5.92-44.81-11l-2.72-.9C1537.65,3400.38,1520.55,3393.66,1508.12,3388.53Z"/><path class="cls-1" d="M1555.21,3406.16c-16.13,51.64-23.23,102.36-26.35,135.32a1.32,1.32,0,0,0,.29,0c7.66-.09,15.6-.85,21.62-4.13a17.93,17.93,0,0,0,9-10.81c.14-.41.26-.83.36-1.25,1.81-7.08,17.48-45.83,32.41-82.2,1.94-4.74,5.5-13.47,10.21-25-13.06-1.62-29-5.92-44.81-11Z"/><path class="cls-8" d="M1444.42,3622.6a30.18,30.18,0,0,0,0,7s0,0,0,0a13.61,13.61,0,0,0,1.13,4c2.86,6,10.12,8,16.54,9.42q40.32,8.58,80.68,17.18c4.3.92,8.59,1.84,12.9,2.74l12.85,2.74q11.67,2.46,23.35,4.79c11.29,2.23,22.62,4.29,34,5.64,21.26,2.52,43.12,2.51,63.47-3.88,1.58-.5,3.23-1.11,4.17-2.48,1.09-1.53,1-3.63.65-5.52a44,44,0,0,0-2.08-8.08,59.58,59.58,0,0,0-12.39-20.08c-1.46-1.62-3-3.18-4.59-4.66-9.41-8.72-20.6-15.17-31.65-21.52-6.32-3.63-12.65-7.29-19-10.91l-3.42-2c-4.85-2.8-9.73-5.6-14.59-8.39l-3.39-2c-3.78-2.17-7.58-4.34-11.35-6.52-3-1.74-6.08-3.49-9.06-5.38-1.12-.69-2.24-1.41-3.31-2.17A61.79,61.79,0,0,1,1568,3563c-1.6-1.78-2.34-5-2.7-8.89-.14-1.59-.19-3.3-.25-5v0c-.21-11.58,1.24-25-4.63-22.65a3.61,3.61,0,0,1-.68.22c-7,2.15-23.41-2.32-39-7.68-17.32-6-33.53-13-34.22-13.32h0a68.55,68.55,0,0,1-3.39,9.88c-4.05,9.69-9.89,18.66-14.94,27.9A202.65,202.65,0,0,0,1444.42,3622.6Z"/><path class="cls-15" d="M1563.94,3549.68q-13.28,15.48-27.81,29.8c-1.78,1.75.7,4.8,2.5,3q14.89-14.67,28.5-30.53c1.64-1.91-1.55-4.19-3.19-2.29Z"/><path class="cls-15" d="M1583.68,3567.65a168.2,168.2,0,0,0-27.35,40.61c-1.09,2.28,2.58,3.67,3.66,1.41a164.7,164.7,0,0,1,26.87-39.72c1.7-1.87-1.5-4.14-3.18-2.3Z"/><path class="cls-15" d="M1605.89,3582.17a128.36,128.36,0,0,0-15.48,32.89c-.74,2.4,2.92,3.83,3.66,1.41a124.47,124.47,0,0,1,15-32c1.38-2.1-1.8-4.4-3.19-2.29Z"/><path class="cls-15" d="M1622.67,3593.87a96.76,96.76,0,0,0-10,28.68c-.46,2.49,3.45,2.89,3.9.42a93.64,93.64,0,0,1,9.75-27.69c1.19-2.22-2.48-3.61-3.66-1.41Z"/><path class="cls-1" d="M1443.54,3619.29c-.35,3.48-.53,7.12.85,10.29,0,0,0,0,0,0a1.88,1.88,0,0,0,.16.39c2.83,5.86,10.06,7.79,16.43,9.08q40.18,8.11,80.39,16.2l12.86,2.6c2.87.57,5.71,1.15,8.58,1.74,9.16,1.82,18.3,3.63,27.5,5.35,11.25,2.07,22.54,4,33.92,5.25,21.18,2.31,43,2.15,63.36-4.25,1.57-.5,3.24-1.08,4.2-2.44s1-3.55.67-5.39c-.09-.68-.22-1.35-.37-2-1.83-8.91-6.52-17-12.54-23.91a15.34,15.34,0,0,1,.15,3.83,15,15,0,0,1-1.53,5.88c-2.48,5-7,8.56-11.83,11.26a57.24,57.24,0,0,1-33.49,7c-14.4-1.39-27.77-8.16-41.48-13-15.73-5.5-32-8.43-48.5-10.73-19.81-2.77-39.84-4.61-59.37-8.87-7.66-1.65-15.87-4.1-20.55-10.57-3.19-4.36-4.26-10-4.71-15.38a83.59,83.59,0,0,1,8.75-44.6c3.76-7.4,8.64-14.17,12.17-21.71,2.91-6.18,4.69-13.17,4-20a10.55,10.55,0,0,0-.11-1.25c-4.13,9.56-10,18.43-15.2,27.57A197.33,197.33,0,0,0,1443.54,3619.29Z"/><polygon class="cls-19" points="1960.21 2195.2 1951.27 2266.84 1915.03 2255.45 1927.19 2195.2 1960.21 2195.2"/><path class="cls-14" d="M2038.74,3202.29c-38.08-8.31-62.44-8.45-100.48-.85s-97.42-39.57-155.24-42.06c-31.24-1.35-64.71,13.25-99,22.41-29.15,7.8-58.87,11.65-88.25-1.66-63.16-28.56-129.27,20.11-130.89,21.31.23-1.06,18.22-75.85,15.2-251.12-3-176.57,73.45-421.61,130.54-498.11,50.71-68,48.22-107.07,19.11-183.86q-1.27-3.34-2.61-6.79-4.41-11.4-9.52-24c-11.58-28.57-15.51-55.1-14.15-79.1,3.36-58.49,38.08-101.9,69.93-122.93,44.89-29.7,115.67-2.3,172.76,24.33S1973,2113.74,1973,2113.74l-12.43,81.06-.31.4h-33c13.15,54.21-18.5,132.5-51,134.8-4.06.29-8.39,21.2-11.64,44.52-1.91,13.48-3.46,27.77-4.41,39.34-2.57,31.29,34.91,148.33,65.31,260.35,8.78,32.29,17,64.17,23.44,93.45C1977.84,2898.55,2038.74,3202.29,2038.74,3202.29Z"/><path class="cls-19" d="M1733.24,2060.22c-48-2.93-77.73,2.22-95.18,8.26a157.41,157.41,0,0,1,35.87-33.31,72.37,72.37,0,0,1,15.44-7.72,82.17,82.17,0,0,1,13.85-3.74,97.74,97.74,0,0,1,9.85-1.28C1726.13,2038.46,1733.24,2060.22,1733.24,2060.22Z"/><path class="cls-16" d="M1704.38,2042.53c5.09,17.13,49.75,23.2,102.33,33.86a3.67,3.67,0,0,0,.53.09c52.14,10.48,67-4.56,22.94-25-22.51-10.46-32-21.87-36-35.43-4.09-13.86-2.37-30-2.78-49.55l-29.59-4.63-8.93-1.39-49.91-7.86S1699.27,2025.41,1704.38,2042.53Z"/><path class="cls-17" d="M1704.38,2042.53c5.09,17.13,49.75,23.2,102.33,33.86a3.67,3.67,0,0,0,.53.09c-7.06-5.66-19.18-12.48-34.89-18.85-40.32-16.37-29.29-43.38,0-50.87a185,185,0,0,0-18.63-44.91,15.59,15.59,0,0,0-.89-1.39l-49.91-7.86S1699.27,2025.41,1704.38,2042.53Z"/><path class="cls-20" d="M1707.53,1950.93c16.26,59,54.39,63,86.6,65.1-4.09-13.86-2.37-30-2.78-49.55l-29.59-4.63C1737.19,1965.46,1707.53,1950.93,1707.53,1950.93Z"/><path class="cls-16" d="M1683.54,1759.16l8.23,151.67a84.17,84.17,0,0,0,168.09-9.13l-3.1-57-3.11-57.33-2-37.34Z"/><path class="cls-14" d="M1569.14,2022.54a39.07,39.07,0,0,0,42.23,2.16c7.08-4.21,12.87-10.75,20.7-13.32,13-4.29,26.5,3.6,39,9.35s43,19,51.11,7.91c10.53-14.43-19-39.07-16.37-56.75,1.32-8.69,7.08-21.88,11-29.78a32.55,32.55,0,0,0,3.38-10.59c2.38-21-23.57-40.4-15.07-59.81a26.8,26.8,0,0,1,6.67-8.83c7-6.48,16.32-11.34,19.24-20.3,3.5-10.72-3.87-22-3.73-33.23.23-18.61,20-30.65,38.18-34.84s38.19-4.82,52.7-16.47,19.48-33.37,11.67-50.1l-1.71,6.52c2.56-10.25-4.78-21-14.46-25.25s-20.83-3.15-31-.41-20,7-30.3,9.11c-18.84,3.87-38.47.28-57.6,2.5s-39.87,13.33-42.87,32.35c-1.34,8.33,1,17.26-2.16,25.09-8.64,21.46-47.27,15.37-55.83,36.85-7.56,19,16.46,42.35,4.59,59-8.64,12.09-30.47,9.69-37,23-3.69,7.63-.25,16.8,4.42,23.88s10.7,13.63,12.68,21.86c2.6,10.74-2.24,21.84-8.08,31.23s-13,18.35-15.63,29A39.06,39.06,0,0,0,1569.14,2022.54Z"/><path class="cls-14" d="M1898.56,1989.21q7.21-4.93,14.43-9.81c13.13-8.93,26.89-18.57,33.38-33.06,7.4-16.48,2.6-38-12-48.69a62.75,62.75,0,0,0-9.31-5.39c12.54,32.83,10.93,57-10,74.78C1905.19,1975.41,1900.54,1983.05,1898.56,1989.21Z"/><path class="cls-18" d="M1707.24,1918.69a66.2,66.2,0,0,1,9.49,23.42,32.55,32.55,0,0,0,3.38-10.59c2.38-21-23.57-40.4-15.07-59.81a26.8,26.8,0,0,1,6.67-8.83,128.72,128.72,0,0,0-27.25-11.82C1673.54,1864.88,1687.54,1888.26,1707.24,1918.69Z"/><path class="cls-16" d="M1739.66,1847.35c-15.31-17.51-53.23-27.27-57.8,6.63s43.27,43.42,43.27,43.42Z"/><path class="cls-17" d="M1799.28,1767.42s19.5,53.37,57.48,77.28l-3.11-57.33C1837.15,1777.25,1799.28,1767.42,1799.28,1767.42Z"/><path class="cls-14" d="M1793.58,1760.71c20,26,65,53.24,97.87,52.78-3.56-21.53-7.77-43.17-16.54-63.15s-22.52-38.4-41.48-49.2-43.53-12.94-62.56-2.26C1770.87,1698.88,1750.86,1705.07,1793.58,1760.71Z"/><path class="cls-10" d="M1716.74,1779.15a4.79,4.79,0,0,0,.31.9c1.52-2.91,3.67-4.86,5.73-6.91a68.52,68.52,0,0,1,6.47-5.32,57.73,57.73,0,0,1,13.73-7.38,70.89,70.89,0,0,1,7.42-2.24c1.29-.21,2.6-.39,3.93-.69a38,38,0,0,1,4.07-.5c2.76-.47,5.63-.4,8.64-.67,1.92-.12,3.85-.11,5.87-.19,1.14-.05,2.33-.11,3.55-.28a41.69,41.69,0,0,0-3.85-3,24.63,24.63,0,0,0-4.2-2.57,37.83,37.83,0,0,0-9.42-3.21,39.23,39.23,0,0,0-10.19-.79c-1.71.18-3.45.51-5.18.78a11.89,11.89,0,0,0-2.53.64l-2.51.83a35.9,35.9,0,0,0-16.52,12.37,31.7,31.7,0,0,0-4.67,9.06,23.61,23.61,0,0,0-1,5A11.87,11.87,0,0,0,1716.74,1779.15Z"/><path class="cls-19" d="M1464.92,3201.43c1.61-1.2,67.73-49.85,130.88-21.29,29.39,13.31,59.1,9.45,88.27,1.65a1240.22,1240.22,0,0,1-81.34-283c-36.1-222.85,56-460.29,71.93-508.72,13.87-42.17-10-73.76-47.5-128.52,31.54,81.32,35.68,120.72-16.51,190.66-57.09,76.48-133.58,321.52-130.53,498.1C1483.14,3125.6,1465.15,3200.37,1464.92,3201.43Z"/><path class="cls-19" d="M1960.21,2195.2l-21.2,26.32s-53.59-124-84-153c1.91,1.62,62.87,53.88,84,89.79C1948.35,2174.16,1955.33,2186.42,1960.21,2195.2Z"/><path class="cls-19" d="M1925.47,2674.21c-65.15-44.77-168.6-119.29-192.23-156.67-35.12-55.53-38.08-149.5-74-207.65a468.08,468.08,0,0,0-29.47-41.54q-1.27-3.34-2.61-6.79-4.41-11.4-9.52-24c-11.58-28.57-15.51-55.1-14.15-79.1,36.41-6.93,86.39-5.5,111.88,25.35,42.8,51.77,60.05-45.56,60.05-45.56,70.41,44.86,94.28,146.32,93,167.73L1855,2321.2a358.47,358.47,0,0,0,9.61,53.32c-1.91,13.48-3.46,27.77-4.41,39.34C1857.59,2445.15,1895.07,2562.19,1925.47,2674.21Z"/><path class="cls-16" d="M2074.14,2683c-.7-.54-1.43-1.05-2.18-1.62-12.74-9.52-34.43-30.31-52.33-48.11,0,0,0,0,0,0-.18-.21-.4-.4-.58-.58l-17.52-18-7.79-8,3.43-4.3,31.21-38.76.48-.62.48.06,2.06.25L2069,2568c3.77.52,7.95,1,12.73,1.37a50.22,50.22,0,0,0,16.37-1.47c6.5-1.67,15-4.26,19.27-7.1a7,7,0,0,1,9.22,1.17,5.15,5.15,0,0,1,.86,5.16c-1.94,5.26-16.17,15.24-36.27,18.62-7.9,1.31-8.4,4.48-5.47,8.24,4.46,5.69,17,12.72,23.09,16.23,10,5.74,40,25,40.61,29.44a5.43,5.43,0,0,1-.88,4.15c-2.14,2.93-7.83,2.95-15.06-1.47-9-5.44-34.63-18.77-41.87-17.53a2.08,2.08,0,0,0-1.7,1c-2.9,5.24,48.38,33.91,48.38,33.91s9.75,3.57,9.34,8.86a4.64,4.64,0,0,1-.5,1.78c-5.71,11.32-57.9-23.08-62.76-26.47a2.71,2.71,0,0,0-2.74-.33,3.42,3.42,0,0,0-.28,6c3.91,2.41,51.86,27.43,46.17,39,0,.05-.07.13-.1.16-4.84,8.2-43.2-28.08-56.08-27.84s32.39,24.94,27.85,33.28C2097.57,2697.09,2095.93,2699.16,2074.14,2683Z"/><path class="cls-16" d="M1726.62,2449a13.19,13.19,0,0,1-1.34-1.92,4.54,4.54,0,0,1-.41-1,3,3,0,0,1-.08-.41c-.53-8-19.08-74.13-37.52-138.45l62.35-9.08,72.77-10.59,2.39-.36c2.73,48.34,6.52,93.61,11.19,99.06,10.17,11.88,188.11,164.06,195.4,177.06.2.35.29.62.22.75-6.3,15.77-15.44,36.25-28.25,48.85-.59.61-1.2,1.19-1.84,1.76C1995.13,2620.44,1749.66,2477,1726.62,2449Z"/><path class="cls-17" d="M2019,2632.66l-17.52-18c-6.37,5.78-251.84-137.63-274.88-165.7a13.19,13.19,0,0,1-1.34-1.92,4.54,4.54,0,0,1-.41-1,3,3,0,0,1-.08-.41c-.53-8-19.08-74.13-37.52-138.45l62.35-9.08,72.77-10.59c-13.23,8.52-78.49,51.05-77.83,62.18.7,12.4,14.7,75.13,23.88,106.21s223.86,146.19,223.86,146.19l0-15.88a51.59,51.59,0,0,0,4.81,16.13c1.79,3.39,3.88,7,6.2,10.53a58.41,58.41,0,0,0,8.68,10.43,42.45,42.45,0,0,1,7.58,9.91C2019.42,2633,2019.2,2632.84,2019,2632.66Z"/><path class="cls-14" d="M1844.57,2292.52l-171.29,47.57s-44.74-138.2-16.12-196.85,117.93-64.84,154.52,10.58S1844.57,2292.52,1844.57,2292.52Z"/></g></g></svg>