<svg xmlns="http://www.w3.org/2000/svg" xmlns:xlink="http://www.w3.org/1999/xlink" viewBox="0 0 5000 5000"><defs><style>.cls-1{fill:#fff;}.cls-2{fill:url(#linear-gradient);}.cls-3{fill:url(#linear-gradient-2);}.cls-4{fill:#c6c6c6;}.cls-5{fill:#ffbe9d;}.cls-6{fill:#385a64;}.cls-7{fill:#224449;}.cls-8{fill:#fcac88;}.cls-9{fill:#0d1d21;}.cls-10{fill:#1a2e35;}.cls-11{fill:#fc986d;}.cls-12{fill:#ff4f5a;}.cls-13{fill:#d32a3b;}.cls-14{fill:#b22439;}.cls-15{fill:#f95d6f;}.cls-16{fill:#e8505b;}.cls-17{fill:#122a30;}.cls-18{fill:#e8e8e8;}.cls-19{fill:#ececec;}.cls-20{fill:#1e272b;}.cls-21{fill:#121f23;}</style><linearGradient id="linear-gradient" x1="2305.19" y1="3652.76" x2="2312.2" y2="4238.08" gradientUnits="userSpaceOnUse"><stop offset="0" stop-color="#fff"/><stop offset="1" stop-color="#e8e8e8"/></linearGradient><linearGradient id="linear-gradient-2" x1="2507.35" y1="3284.3" x2="2369.28" y2="412.39" xlink:href="#linear-gradient"/></defs><title>02</title><g id="Layer_2" data-name="Layer 2"><g id="Layer_1-2" data-name="Layer 1"><rect class="cls-1" width="5000" height="5000"/><path class="cls-2" d="M3891.13,3953.72H941.44a221.6,221.6,0,0,1-221.62-221.61V3619.26H3891.13Z"/><path class="cls-3" d="M4158.39,3318.28c-77.91,251.69-433,91.2-301.78,206.65s239.33,293.41,66.74,293.41-2727.67,6.35-3114.3,0S1154.26,2920.22,885,2465.69C697.07,2148.46,727.75,2028,906.58,1939.93c77.41-38.09,182.57-70.1,309.81-109.38,315.33-97.32,235.9-227.61,213.11-385.5-7.66-53-8.92-109.08,13.26-168,88.25-234.75,530.45.29,950.65-75.94C2873.19,1114,2856.58,1507,3350.6,1515.58q16.61.32,34,0c529-9.2,672.25,55.23,592.88,251.25-31.11,76.84,3.38,118.49,59.37,158.67,86.83,62.32,225.38,121.11,251.27,302.26,42.57,298-171.44,401.61-327.92,597.95S4236.31,3066.6,4158.39,3318.28Z"/><path class="cls-4" d="M2345.89,2825.2c-8.79,22.85-26.21,41.29-37.62,63a132.3,132.3,0,0,0-14.75,71c2.37,31.64,15.21,67-3.55,92.62-30.67,41.84-110.69,10.34-141,52.47-15.44,21.5-8.93,50.9-10.17,77.35-2.07,44.57-28.31,85-61.19,115.19s-72.4,51.87-110.18,75.6c-23.41,14.68-49.16,36.11-45.75,63.51,2.55,20.41,20.69,35,29.36,53.64,10.54,22.65,6.35,49,7.32,74s11.18,53.78,35.3,60.39c13.74,3.75,34.75,4.53,34.11,18.78a70.36,70.36,0,0,1-28.47,24.92l10.93-.12c-54.88,4.42-109.22-23.49-145.23-65.12s-55.44-95.5-64.55-149.79c-4.46-26.69-6.81-54.37-18.75-78.63-9.16-18.59-23.68-34.52-30.06-54.22-11.07-34.31,4.81-71.7,0-107.42-4.86-36.26-30.54-67.54-33.51-104-2.69-33,13.67-66.94,4.12-98.7-11.92-39.72-56.93-56.84-93.38-76.6a305,305,0,0,1-122.22-122.43c-10.43-19.28-18.92-40.91-16-62.64,5-37.32,40.18-61.51,68.21-86.66s52.26-67.33,30.9-98.38c-17.56-25.5-54.44-26.19-81.76-40.8-44.07-23.59-59-81.14-99.39-110.64-16.84-12.31-37.07-18.94-56.93-25.36l-35.16-11.39c-34.18-11.07-68.53-22.16-104-27.57-22.76-3.45-46.25-4.65-67.49-13.53s-40.3-28-40.76-51c-.37-18.73,11.25-35.46,15.07-53.8,7.76-37.35-18.25-74-49.13-96.33s-67.63-36-97.41-59.83c-39.83-31.88-64.43-81.79-66.2-132.69,77.41-38.09,182.57-70.1,309.81-109.38,315.33-97.32,235.9-227.61,213.11-385.5,39.54,19.66,78.59,40,121.55,36.29,12.8-1.1,26.17-4.85,34.68-14.45s9.83-26.26,0-34.54c-6.29-5.32-15.12-6-23.32-6.9-19.14-2.14-39.53-7.76-51.36-23s-9.16-42.12,8.88-49,36,8.86,54.22,14.94c57,19,113.61-57,170.8-38.64,11,17.23-5.16,38.43-19.49,53s-28.29,38.34-14.36,53.3c12.58,13.55,36.54,4.16,47-11.12s13.69-34.58,24.09-49.91,34.25-24.88,47-11.46c10.67,11.23,6.1,30.31,13.83,43.77,8,14,27.45,17.65,42.94,13.12s28.3-15.24,41.47-24.6c49.17-35,119.47-52.54,168.63-17.54,24.55,17.49,43.28,47.22,73.27,50.47,8.9.94,18.29-.6,26.55,2.8,17.79,7.32,19.75,31.58,17.06,50.61-3,21-13.24,46.27-34.43,47.15-13,.55-24-8.91-33.37-17.93-34.22-33.11-76.07-72-122.21-60.22-43,11-65.47,61.7-107.49,75.94-48.12,16.29-99.78-21.49-150-13.62-32.66,5.08-59.08,28.58-82.36,52-20.05,20.23-39.12,55.11-17.47,73.64,22.09,18.89,68.51-.65,78.43,26.67,4.34,11.92-3.07,24.9-2.44,37.56,1,20.68,24.71,34.84,45.17,31.45s36.66-19.53,47.1-37.44c8.33-14.29,16.39-32.12,32.68-35,23.57-4.14,39.95,26.84,63.79,28.88,26.4,2.26,40.71-29.31,61.28-46,21.61-17.49,53.85-18.21,78.7-5.76s42.67,36.27,52.7,62.18c7.3,18.87,9.46,43.56-6.28,56.27-7.89,6.35-18.48,8-28.58,8.76-54.56,3.92-115.68-11.89-159.94,20.25-32.17,23.36-44.27,64.94-67.08,97.51-38.86,55.5-106.17,81.71-165.11,115.2s-117.57,87.58-114.46,155.28c.76,16.2,4.12,35.28-7.85,46.21-13.18,12-35.39,3.77-46.6-10.08s-16.17-31.85-26.67-46.25c-23.36-32-70.78-39.38-107.65-24.81s-64.27,46.53-84.22,80.77c-10.93,18.73-20.3,39.31-20.32,61s11.41,44.58,31.69,52.29c45.93,17.49,87.9-48.81,136.53-41.7,4.9.71,9.91,2.35,13.18,6,17.81,20.09-36.38,54.51-15,70.76,5.22,4,12.47,3.36,18.87,4.81,16,3.59,26,20.2,28.79,36.36s.53,32.77,1.88,49.11c2.63,31.78,24.35,64.91,56.08,67.74,51.8,4.61,77.09-65.35,125-85.58,28.33-12,64-3.17,83.56,20.55,10.56,12.8,17.32,29.78,32,37.4,23.38,12.08,52.77-6.15,77.74,2.11,24.43,8.08,34.24,37.19,53.82,53.88,29.09,24.76,75.53,19,104.89,43.42,13.21,11,21.26,26.79,31.32,40.71,22.6,31.29,58.31,55.82,96.65,62.94,31.67,5.86,78.84-11.92,103,16.24,12.82,15,13.37,39.33,29.82,50.19,9.21,6.1,21.2,6.19,31.05,11.16C2351.14,2771.38,2354.68,2802.33,2345.89,2825.2Z"/><path class="cls-4" d="M4036.82,1925.5c-125.16,35.67-291.72,69.4-319.43,85.4-25.73,14.86-59.56,11.71-84.78-4s-42.34-42.42-50.88-70.88c-13.07-3.45-20.87,14.31-21.72,27.82s-4.53,31.39-18.06,32.15c-5.5.32-10.57-2.76-15-6a163.83,163.83,0,0,1-51.67-60.43c-7-14.15-12.22-29.69-23.1-41.12s-30.12-17.24-42.53-7.44A254.89,254.89,0,0,1,3467,2003.49l-30.47-32c-7.18,11.92-6.79,27-12.82,39.54s-25.2,20.82-33.13,9.43c-7.58-10.88,3.77-24.51,7.64-37.16,7.75-25.29-15.68-48.49-36.62-64.65q-21.26-16.4-42.5-32.79c-5.36-4.12-10.86-8.33-17.31-10.4-17.74-5.73-36.22,6-54.86,6.84-20.85.87-40.5-12.11-61.32-11-19,1-35.24,13.58-50.08,25.54-28.44,23-57.37,46.47-77.11,77.23-9.83,15.28-20.14,34.2-38.22,36-17.49,1.7-31.26-13.92-41.73-28-17-22.89-34.58-52.79-21.19-77.94,11.46-21.52,39.93-26.95,64.25-25.5s49.66,7.14,72.47-1.52c14.72-5.59,26.67-16.61,38.17-27.36q50.13-46.83,100.24-93.66c17.54-16.38,36.27-33.41,59.7-38.63,16.68-3.71,34.68-1.11,50.55-7.44s27.46-28.44,15.19-40.34c-18.57-18-61,12.22-71.36-11.43-3.45-7.87.14-17.81-4.37-25.13-7.39-12-27.45-5.48-38.52-14.18-10.8-8.49-6.42-27,4.25-35.62s25-10.86,38-15.14c27-8.84,50.22-28.17,64.69-52.59q16.61.32,34,0c529-9.2,672.25,55.23,592.88,251.25C3946.34,1843.67,3980.83,1885.32,4036.82,1925.5Z"/><path class="cls-4" d="M3785.26,2162.93c-45.85-47.23-132.5-3.15-188.92-37-15.9-9.55-27.88-24.63-43.65-34.4s-39-12.51-51,1.62c-3.41,4-5.52,8.91-8.39,13.31-21.14,32.45-69.9,25-106.94,13.71-25.7-7.83-56.35-21.66-57.65-48.5-.47-9.72,3.37-19.41,2-29-3.42-23.17-34.56-31.34-56.7-23.7s-39.83,24.83-61.57,33.53c-35.73,14.29-75.89,3.73-114.36,2.71s-84.72,15.36-91.26,53.29c-1.78,10.35-.32,21.45-4.73,31-4.87,10.55-15.74,16.72-25.69,22.73a351.6,351.6,0,0,0-120.55,122c9.51,14.82,41,1.28,46.34,18.07,3.11,9.82-7.48,17.88-15.26,24.61-35.65,30.81-28.11,87.92-11.17,131.88,15,38.94,35.7,76.87,67.5,103.9s76.28,41.65,116.37,30c24.22-7,44.84-22.71,67.29-34.2s49.79-18.69,72.55-7.83c15.87,7.57,27.12,22.87,43.17,30,31.42,14,80.49-1.17,93.66,30.62,9.17,22.12-11.17,45.5-11.89,69.43-.67,22.62,15.93,41.52,30.71,58.65,24.15,28,46.37,58.55,58.24,93.56s12.33,75.23-5.6,107.56c-15.4,27.79-44.47,57-30.55,85.54,5.1,10.46,15.16,17.55,21.92,27,22.1,31,3.48,76.25,19.13,110.93,8.65,19.15,26.91,32.88,34.64,52.43,7.2,18.24,4.19,38.66,5,58.25s7.71,41.73,25.8,49.29c14.44,6,31,.59,44.92-6.63,47-24.46,81.38-68.45,105-115.9s37.85-98.91,54.36-149.29c73.19-223.26,219.81-276.57,281.44-503.3,14.46-53.17-.84-264.1-20.69-315.51s-81.8-89.91-131.4-65.92Z"/><path class="cls-4" d="M3181.18,1744.53c-4.06,11-8.57,22.61-17.95,29.63s-25.2,6.7-30.73-3.63c-1.94-3.64-2.34-7.87-2.7-12L3118.16,1625c-.29-3.26-.56-6.65.56-9.73,2.92-8.06,14.29-10,21.88-6s12.23,11.82,16.48,19.28c23,40.28,45.92,91.28,20.76,130.23Z"/><path class="cls-4" d="M3842.75,3004.73c-8.18,8.39-17,17.16-28.46,19.75s-25.75-4.15-26.58-15.84c-.3-4.11,1.07-8.14,2.41-12l43.8-126.75c1.07-3.1,2.2-6.3,4.48-8.66,5.95-6.17,17.13-3.35,22.44,3.39s6.36,15.78,7.2,24.32c4.56,46.15,4.74,102.08-34.1,127.4Z"/><path class="cls-5" d="M2311.54,2413.87c-1,.23-2,.5-3,.75-17.72,4.33-52,8.37-80.78,11.24a0,0,0,0,0,0,0c-.33,0-.65.06-1,.09l-28.71,2.39-12.77,1.06-1.29-6.17-11.56-55.93-.2-.87.4-.37,1.72-1.65,31.61-30c3.21-3,6.69-6.31,10.5-10.28a57.52,57.52,0,0,0,10.64-15.57c3.27-7,7.2-16.42,7.78-22.24a8,8,0,0,1,7.76-7.31,5.87,5.87,0,0,1,5.19,3c3.24,5.56,1.7,25.44-10,45.71-4.61,7.94-2.16,10.7,3.3,10.85,8.3.21,23.7-5.81,31.22-8.61,12.37-4.64,51.39-17.18,55.71-14.48a6.2,6.2,0,0,1,3,3.81c1,4-3.09,9.09-12.29,12.27-11.34,4-41.88,17-46.06,24.28a2.35,2.35,0,0,0-.37,2.22c2.52,6.4,65.32-18.1,65.32-18.1s10.27-6,14.66-1.81a5.35,5.35,0,0,1,1.21,1.75c5.86,13.31-62.68,34.42-69.23,36.26a3,3,0,0,0-2.28,2.18,3.92,3.92,0,0,0,5.09,4.63c5-1.72,62.13-25.92,68.22-12.43a1.45,1.45,0,0,1,.08.21c3.72,10.26-56.38,17.76-65.57,29.34s45.72-10.48,49.78-.38C2341.11,2403.4,2341.74,2406.36,2311.54,2413.87Z"/><path class="cls-6" d="M2202.57,2452.26s-76.23,36.72-151.87,56.24a417.76,417.76,0,0,1-45.64,9.35,123.69,123.69,0,0,1-23.43,1.17c-51.52-2.27-87.65-37.44-109.28-74.56a205.62,205.62,0,0,1-19.29-44.23c-2.63-8.81-2.18-21.05.41-35.3,5.15-28.57,18.82-65.23,33.2-98.62,4.22-9.84,8.51-19.38,12.67-28.36,4.45-9.58,8.72-18.52,12.6-26.43,10.41-21.26,17.94-35.29,17.94-35.29,25.26,30.94,41.89,181.84,66.3,206.25s176.06-48.05,176.06-48.05Z"/><path class="cls-7" d="M2050.7,2508.5a417.76,417.76,0,0,1-45.64,9.35,123.69,123.69,0,0,1-23.43,1.17c-51.52-2.27-87.65-37.44-109.28-74.56-3.43-31.09-11.19-57-18.88-79.53-13.16-38.51-26.06-67-16.67-93.93,7.15-20.53-12.93-46.25-12.93-46.25s42,26.64,62.8,41.56c6.84,4.9,11.38,8.54,11.38,9.53C1897.21,2311.25,1905.87,2494.06,2050.7,2508.5Z"/><path class="cls-8" d="M2286.29,3874.62l-230.63,6.2A17.4,17.4,0,0,1,2038,3866.4c-1.75-10.08-3.24-33.19,2.25-54.66-.9-6.4-4.89-35.19-10.9-78.95,40,4.62,80.21,9.64,120.44,12.45l.56,27.16.8,37.85a333.09,333.09,0,0,0,55.48,28.37c24.43,9.65,53.26,17.12,78.56,13.15a8.94,8.94,0,0,1,8.57,3.1c2.67,3.48,4.69,9.14-.73,16.38A8.71,8.71,0,0,1,2286.29,3874.62Z"/><path class="cls-9" d="M2265.41,3886.88s-51.89,1.42-106.29,1.84c-58.1.45-119.08-.21-122.81-4.94-7.24-9.14,1-58.65,1-58.65,28.47,16.92,59.34,20.93,91.26,23.48,20.05,1.62,40.53,2.64,61.07,5.94a41.63,41.63,0,0,0,39.51-16.37c17.57,2.75,33.69,7.41,51.25,10.16,3.65.56,7.35,1.14,10.67,2.74s6.27,4.38,7.17,8c1.1,4.46-1.14,9.07-4,12.7A39.9,39.9,0,0,1,2265.41,3886.88Z"/><path class="cls-5" d="M2206.66,3838.62c-39.54,4.59-78.84-3.11-91.75-16-13.92-13.87-15.6-43.57,15.64-47.18,7.47-.87,14.07-2.05,19.83-3.06l.8,37.85A333.09,333.09,0,0,0,2206.66,3838.62Z"/><path class="cls-10" d="M2265.41,3886.88s-51.89,1.42-106.29,1.84c-8.57-13-20-29.39-30.6-40.11,20.05,1.62,40.53,2.64,61.07,5.94a41.63,41.63,0,0,0,39.51-16.37c17.57,2.75,33.69,7.41,51.25,10.16,3.65.56,7.35,1.14,10.67,2.74s6.27,4.38,7.17,8c1.1,4.46-1.14,9.07-4,12.7A39.9,39.9,0,0,1,2265.41,3886.88Z"/><path class="cls-8" d="M1591.26,3888.36l-221.69-63.9a17.41,17.41,0,0,1-12.44-19.08c1.39-10.14,7-32.62,18.69-51.42,1.09-6.36,6-35,13.51-78.54,36.73,16.51,73.53,33.47,111,48.33l-7.68,26.05-10.7,36.32a333.62,333.62,0,0,0,44.29,43.83c20.36,16.59,45.58,32.44,70.89,36.31a8.94,8.94,0,0,1,7.24,5.55c1.49,4.12,1.7,10.13-5.66,15.39A8.67,8.67,0,0,1,1591.26,3888.36Z"/><path class="cls-9" d="M1567.64,3893.73s-49.88-14.35-101.85-30.42c-55.52-17.16-113.44-36.25-115.56-41.89-4.13-10.9,18.66-55.61,18.66-55.61,22,24.75,50.22,37.91,79.88,50,18.62,7.61,37.82,14.78,56.4,24.15a41.64,41.64,0,0,0,42.61-3.65c15.91,7.94,29.87,17.26,45.77,25.19,3.31,1.65,6.66,3.32,9.34,5.85s4.65,6.08,4.42,9.75c-.29,4.58-3.82,8.29-7.6,10.9A39.91,39.91,0,0,1,1567.64,3893.73Z"/><path class="cls-5" d="M1526.26,3830c-39.07-7.59-74.2-26.83-82.61-43-9.06-17.42-1.67-46.24,29.19-40.23,7.38,1.44,14,2.3,19.83,3.09l-10.7,36.32A333.62,333.62,0,0,0,1526.26,3830Z"/><path class="cls-10" d="M1567.64,3893.73s-49.88-14.35-101.85-30.42c-4.23-15-10.2-34.08-17-47.49,18.62,7.61,37.82,14.78,56.4,24.15a41.64,41.64,0,0,0,42.61-3.65c15.91,7.94,29.87,17.26,45.77,25.19,3.31,1.65,6.66,3.32,9.34,5.85s4.65,6.08,4.42,9.75c-.29,4.58-3.82,8.29-7.6,10.9A39.91,39.91,0,0,1,1567.64,3893.73Z"/><polygon class="cls-10" points="1859.24 2730.04 1856.96 2735.2 1848.09 2755.2 1743.35 2991.46 1695.11 3100.27 1526.75 3737.19 1349.74 3737.19 1548.76 2752.28 1556.94 2711.86 1674.2 2658.57 1859.24 2730.04"/><path class="cls-10" d="M2161.91,3767.56H2008.78s-65.43-479.87-73.5-511.36S1858,3175.69,1771.17,3035c-9.49-15.37-18.81-29.87-27.83-43.57-73.49-111.77-128-173.12-108.41-259.24l213.16,23,48.24,5.21,18.44,2s5,11.72,13.22,31.42l0,.06c40.21,95.89,158.77,380.46,167,422.38C2104.9,3266.81,2161.91,3767.56,2161.91,3767.56Z"/><path class="cls-9" d="M2129,3767.56H2008.78s-65.43-479.87-73.5-511.36S1858,3175.69,1771.17,3035c-9.49-15.37-18.81-29.87-27.83-43.57,0,0-25.27.07-78.72,58.19s-195.89,687.54-195.89,687.54h-119l199-984.91a294.78,294.78,0,0,1,47.55-20.06c124.82-39.79,208.53-23,260.65,3a212.06,212.06,0,0,1,39.37,25.21c21.22,17.21,31,32.32,31.66,33.41l0,.06s-49.35,40.17-63.11,77.2,134.37,281.68,156.87,364.18C2042.54,3311.33,2117.53,3706.63,2129,3767.56Z"/><path class="cls-10" d="M1643.05,1958.13a14.36,14.36,0,0,1-20.23,17c-9.47-4.8-10.67-17.87-8.81-28.32s5.41-21.61,1-31.28c-3.35-7.4-10.62-12.09-16.28-17.91-9.88-10.15-15.13-24.93-12.73-38.88s12.86-26.49,26.49-30.3c13.91-3.89,31.06.39,41.42-9.69,7.51-7.3,8-19.26,13.78-28,9-13.53,28.08-15.68,44.19-13.47s32.51,7.36,48.28,3.44c13.18-3.28,24-12.48,36.34-18.13,26.77-12.24,61-5.61,81.23,15.75s25.07,55.86,11.43,82a50.48,50.48,0,0,1-22.08,21.84C1819.26,1905.92,1643.05,1958.13,1643.05,1958.13Z"/><path class="cls-5" d="M1823.87,1837.21v174.63c0,29.17-24.48,55.42-55.72,58.24v63.47a63,63,0,0,1-18.51,44.7,60.65,60.65,0,0,1-5.36,4.77,63.2,63.2,0,0,1-102.57-49.47V1889.67l16.78-16.17,11.88-11.46,17.18-26.93,114.33,1.77Z"/><path class="cls-8" d="M1829.93,1872.76c-7.81,14.4-80.57,8.24-115.34-4.12s-19,20.22-44.73,24.56c-6,1-11.37-2-14.93-7.23l12.57-12.12,18.18-28.5,121,1.87C1825.08,1859.48,1829.93,1872.76,1829.93,1872.76Z"/><path class="cls-10" d="M1849.92,1871.2s-34.49,17.53-80.25-4.2c-30-14.27-64.83-20.84-72.35-14.72s-8.55,36.8-37.83,46.32c0,0,3.16,58.42-20.19,56.79s-10.54-92.46-10.54-92.46l56.48-29,62-13,58.79,7.12,45.61,11.54Z"/><path class="cls-11" d="M1768.15,2070.08v26.59L1712.42,2061A183.41,183.41,0,0,0,1768.15,2070.08Z"/><path class="cls-8" d="M1744.28,2183a63.2,63.2,0,0,1-102.57-49.47V1949.07l8.55,9.21c-.15,2.76-9.67,69.53,41.9,110C1738.24,2104.54,1750.84,2157.67,1744.28,2183Z"/><path class="cls-5" d="M1664,1920c-13-14.85-45.17-23.13-49,5.63s36.72,36.84,36.72,36.84Z"/><path class="cls-6" d="M1955.49,2790.93c-14.66,5.87-321.56,14.44-390,4.28-9.26-1.37-14.15-3.1-13.36-5.21a11.56,11.56,0,0,0,.45-1.62c2-8.73,4.53-41.15,7.19-84.1.75-12.24,1.5-25.35,2.27-39,1.18-21.38,2.35-44.1,3.45-67,1-21.58,2-43.3,2.91-64.23,2.85-68.13,4.69-127.63,4-144.75v0a1.37,1.37,0,0,0,0-.28c-1.39-31.83-41.36-111.38-49.89-164.77-3.37-21.19-1.82-38.25,9.09-46.53a17.81,17.81,0,0,1,2.1-1.45c10.28-6.15,18.88-10.8,26.1-14.34,23.23-11.4,32.1-11.36,35.47-13.25,4.43-2.5,4.89-65.34,4.89-65.34s72.09,23.17,91.79,50.28a0,0,0,0,1,0,0,96.77,96.77,0,0,1,12.15,23.06,134.34,134.34,0,0,1,8.23,40.12,135.23,135.23,0,0,1,7.54-38.23,98.14,98.14,0,0,1,12.3-24.16c.18-.27.37-.53.56-.79,19.68-27.11,91.81-50.3,91.81-50.3s-7.09,65.34,5.11,65.34,82.78-2.52,100.15,27.59c15,25.95-33.55,47.86-25.79,133.3,5.68,62.47,17.88,250.6,17.53,349.79C1921.49,2695.79,1960,2789.15,1955.49,2790.93Z"/><path class="cls-7" d="M1692,2133.6a96.77,96.77,0,0,1,12.15,23.06c-12.58-11.7-26.49-13-34.14-.11-9.15,15.48-10.55,33-10.55,33l-64.12-40.95c1.27.62,42.05,20.81,48.42,23.14s9.28,1.25,11.16-4.69,10.63-31.25,18.13-32.66c5.77-1.08,12.86-2.25,18.93-.86A0,0,0,0,1,1692,2133.6Z"/><path class="cls-1" d="M1692.27,2134c-.11.8-7.31-3.27-17,2.23-4.77,2.52-9.08,7.4-12.06,14a72,72,0,0,0-3.81,10.84q-.78,3-1.57,6c-.58,2.11-1.09,4.61-3.23,7a6.92,6.92,0,0,1-4.49,2.16,9.33,9.33,0,0,1-4.25-.8c-2.25-1-3.91-1.85-5.84-2.77l-10.68-5.25-18-9.15c-10.16-5.35-16.3-9-16-9.6s7,1.86,17.53,6.38l18.44,8.18,10.81,5,5.57,2.57c1.78.66,2.45.58,3.24-.2,1.78-1.93,2.38-7,3.69-10.88a69.24,69.24,0,0,1,4.38-11.48c3.44-7.13,8.94-12.76,14.63-15.18a20.86,20.86,0,0,1,14.13-1.64C1691.05,2132.36,1692.42,2133.74,1692.27,2134Z"/><path class="cls-7" d="M1782.73,2173.79c-6.2,3-17.79,6-22.79-6.37-4.78-11.85-30.15-17.89-47.53,29.36,3.32-39.52,14.36-54.69,19.84-62.39a3.56,3.56,0,0,1,.56-.42c5-3.13,7.91-2,18.41.94s16.22,20.47,17.32,26.42,6.86,12.48,6.86,12.48S1788.94,2170.74,1782.73,2173.79Z"/><path class="cls-1" d="M1732.8,2134c.11.8,7.3-3.27,17,2.23,4.77,2.52,9.08,7.4,12.06,14a72,72,0,0,1,3.81,10.84q.78,3,1.57,6c.58,2.11,1.09,4.61,3.23,7a6.92,6.92,0,0,0,4.49,2.16,9.33,9.33,0,0,0,4.25-.8c2.25-1,3.91-1.85,5.84-2.77l10.68-5.25,18-9.15c10.16-5.35,16.3-9,16-9.6s-7,1.86-17.53,6.38l-18.44,8.18-10.81,5-5.57,2.57c-1.78.66-2.45.58-3.24-.2-1.78-1.93-2.38-7-3.69-10.88a70.14,70.14,0,0,0-4.38-11.48c-3.44-7.13-8.94-12.76-14.63-15.18a20.86,20.86,0,0,0-14.13-1.64C1734,2132.36,1732.65,2133.74,1732.8,2134Z"/><path class="cls-7" d="M1565.52,2598.26c4.41-91.86,7.78-186.65,7-209a1.37,1.37,0,0,0,0-.28l10.85-19.69,36.34,220.48S1581.5,2596.29,1565.52,2598.26Z"/><circle class="cls-12" cx="1654.93" cy="2808.06" r="257.15"/><circle class="cls-13" cx="1654.93" cy="2808.06" r="218.24"/><path class="cls-14" d="M1766.56,2995.87a217.22,217.22,0,0,1-120-24.38c-106.65-56.15-147.59-188.13-91.44-294.78a217.09,217.09,0,0,1,81.71-86A218.08,218.08,0,0,0,1462,2706.51c-56.15,106.65-15.21,238.63,91.44,294.78A218.11,218.11,0,0,0,1766.56,2995.87Z"/><path class="cls-15" d="M1721.12,2639.47c94.14,49.57,130.28,166.07,80.72,260.22a192.34,192.34,0,0,1-137.7,100.09A192.57,192.57,0,0,0,1827.47,2897c49.57-94.15,13.43-210.65-80.72-260.22a191.82,191.82,0,0,0-122.52-19.37A191.85,191.85,0,0,1,1721.12,2639.47Z"/><path class="cls-1" d="M1740.84,2843.54q3,29.4-20,51.28-18.91,18-52.72,28.71l4,38.9q1.73,16.65-16.18,18.49a14.26,14.26,0,0,1-12.74-4.66,18.13,18.13,0,0,1-4.53-10.38l-3.54-34.4q-6,.95-11.8,1.53-31.27,3.22-49.57-3.39-16.48-5.85-17.69-17.52-2.29-22.24,22.3-24.78,6.38-.66,22.1,2.36t20.24,2.56a83.16,83.16,0,0,0,10.19-1.84l-7.07-68.63q-27.4,1.09-47.56-6.74-26.37-10.17-28.69-32.74-2.64-25.68,17.54-49.62,17.93-21.35,46.09-33.52l-2.65-25.68q-1.87-18.21,15.25-20,16.34-1.68,18.21,16.53l2.12,20.54a149.71,149.71,0,0,1,38.46,3.9q26.54,5.76,27.66,16.66a20.4,20.4,0,0,1-4.83,15.75,21.17,21.17,0,0,1-14.61,7.79q-7.47.78-21.15-.81-14.48-1.49-21.19-1.12l4.92,47.78a28.85,28.85,0,0,1,3.44-.2q34.65-.9,56.29,13.7Q1737.42,2810.4,1740.84,2843.54Zm-125.17-100.66q-24.53,12.27-23.05,26.59,1.26,12.3,27.12,12.93Zm47.84,136.3q32.87-15.34,31-32.92-2.71-26.46-37.17-26.53Z"/><path class="cls-5" d="M1637.15,2802.74c-.34-.8-.71-1.6-1.08-2.47-6.24-14.47-14.62-43.05-21.22-67.19,0,0,0,0,0,0,0-.28-.14-.54-.21-.79l-6.17-24.12-2.74-10.72,5.07-2,46-17.91.72-.29.38.29,1.65,1.23,30.08,22.6c3,2.31,6.34,4.8,10.27,7.47a49.5,49.5,0,0,0,14.79,6.82c6.42,1.78,15,3.77,20.07,3.42a6.92,6.92,0,0,1,7.35,5.56,5.08,5.08,0,0,1-1.81,4.85c-4.27,3.57-21.43,5.12-40.37-1.9-7.44-2.78-9.44-.3-8.77,4.37,1,7.1,8.36,19.36,11.83,25.36,5.74,9.87,22,41.31,20.36,45.37a5.34,5.34,0,0,1-2.81,3.13c-3.28,1.47-8.19-1.33-12.22-8.7-5-9.1-20.49-33.24-27.32-35.75a2.09,2.09,0,0,0-2,0c-5.09,3.07,24.84,53.05,24.84,53.05s6.62,7.88,3.65,12.23a4.85,4.85,0,0,1-1.31,1.28c-10.5,6.91-38.36-48.44-40.87-53.75a2.65,2.65,0,0,0-2.19-1.63,3.39,3.39,0,0,0-3.21,5c2.18,4,31,49.19,20.42,56.33a.89.89,0,0,1-.16.09c-8.21,4.66-23.26-45.46-34.45-51.63s15.52,37.44,7.5,42.36C1650.32,2826.43,1647.89,2827.39,1637.15,2802.74Z"/><path class="cls-6" d="M1679.12,2679.16l-68,49.29-17.79,12.9c-2.94-3.12-15.78-17.12-33.56-37.07-57.68-64.62-167.51-191.73-162.65-214.14,6.37-29.32,30.39-132.52,48-195.44,16.89-60.37,19.74-76.44,86.5-117q4.24-2.57,8.83-5.29a17.08,17.08,0,0,1,11.85,1.05c35,15.69,58.2,138.64,48.24,162.94-4.22,10.31-15.63,30.72-28.1,52.88v0c-20.08,35.73-42.84,76-42.32,85.83.29,5.23,16.56,29.17,38.27,58.92C1612.54,2594.57,1679.12,2679.16,1679.12,2679.16Z"/><path class="cls-7" d="M1611.15,2728.45l-17.79,12.9c-2.94-3.12-15.78-17.12-33.56-37.07-57.68-64.62-167.51-191.73-162.65-214.14,6.37-29.32,30.39-132.52,48-195.44,16.89-60.37,19.74-76.44,86.5-117a17.81,17.81,0,0,1,2.1-1.45c10.28-6.15,18.88-10.8,26.1-14.34-2.55,3.81-5,7.67-7.52,11.55-10.51,16.48-50.86,44.37-60.18,61.62-54.72,101.3-57.22,198.09-55.53,233.94,1.33,28.34,73.38,127.84,125.44,196.27C1584.66,2695,1603.49,2718.79,1611.15,2728.45Z"/><path class="cls-16" d="M3928.6,3670.27c66.13-139.08,67.31-174.9-18.6-313s56.77-224-10.74-309.89-164.15-15.35-121.19,52.16,58.29,78.24,18.41,164.15,15.34,141.14,59.06,193.3,10,191.77,48.33,231.66S3928.6,3670.27,3928.6,3670.27Z"/><path class="cls-13" d="M3915.28,3651.86c-35.48-130.41,25.89-202.51,21.29-320.64s56-95.12,51.77-193.3S3958,2935.41,4067,2984.51s-21.48,194.83,38.35,283.81-65.5,138.07-97.18,214.78-69.66,174.89-92.86,187.17S3915.28,3651.86,3915.28,3651.86Z"/><path class="cls-16" d="M3911.92,3663c6.19-127.76,124.26-128.87,97.8-230.12s3.45-139.23,70.19-99-25.32,86.29-12.66,146.12,51.78,78.24-15,105.86-101.25,37.24-110.45,70.4S3911.92,3663,3911.92,3663Z"/><polygon class="cls-17" points="3822.85 3623.86 3867.82 3947.18 3971.07 3947.18 4034.36 3623.86 3822.85 3623.86"/><path class="cls-18" d="M3649.49,1258.58a93.46,93.46,0,0,1,32.68,5.84c24.41-52,81.95-88.54,149.07-88.54a174.33,174.33,0,0,1,91.33,25.36c20.34-51,70.21-131.85,182-132,163.34-.29,192.7,163.79,192.7,163.79C4488,1229.89,4500,1338,4500,1338l-433.18.7c0,.16,0,.31,0,.47H3570.18a57.69,57.69,0,0,1-1.47-12.72C3568.71,1289,3604.88,1258.58,3649.49,1258.58Z"/><path class="cls-4" d="M551.37,1641.77a59.49,59.49,0,0,1,20.79,3.71c15.52-33.07,52.12-56.31,94.81-56.31a110.91,110.91,0,0,1,58.08,16.13c12.94-32.42,44.65-83.85,115.78-84,103.89-.18,122.56,104.17,122.56,104.17,121.26-2,128.9,66.79,128.9,66.79l-275.5.44c0,.1,0,.2,0,.3H500.93a36.75,36.75,0,0,1-.93-8.09C500,1661.09,523,1641.77,551.37,1641.77Z"/><rect class="cls-19" x="905.11" y="879.87" width="683.03" height="1026.93" rx="53.78" transform="translate(-161.72 2622.99) rotate(-89.31)"/><path class="cls-6" d="M1763.54,1111.85l-1.06,87.11L735.63,1186.52l1-87.11a53.78,53.78,0,0,1,54.43-53.13l919.3,11.14A53.77,53.77,0,0,1,1763.54,1111.85Z"/><circle class="cls-1" cx="834.53" cy="1120.27" r="18.88"/><circle class="cls-1" cx="922.31" cy="1121.34" r="18.88"/><circle class="cls-1" cx="1010.1" cy="1122.4" r="18.88"/><rect class="cls-1" x="1259" y="1514.07" width="79.91" height="141.71" rx="25.62"/><rect class="cls-9" x="1380.75" y="1427.21" width="79.92" height="228.56" rx="25.87"/><rect class="cls-1" x="1010.1" y="1554.19" width="79.91" height="100.67" rx="27.01"/><rect class="cls-9" x="1130.57" y="1477.79" width="79.91" height="177.99" rx="34.35"/><path class="cls-12" d="M1305.51,1443.93l99.38-94.11a18.68,18.68,0,0,1,25.28-.08h0c9.76,9.12,26.36,4.88,29.88-7.64l18.93-67.41c3.52-12.51-8.68-23.91-22-20.52l-71.54,18.27c-13.28,3.39-17.68,19-7.91,28.16h0a16.12,16.12,0,0,1,.08,23.78l-81.43,77.11a18.67,18.67,0,0,1-19.35,3.75l-125.17-47.37a18.7,18.7,0,0,0-19.32,3.71L946.6,1536.33a16.12,16.12,0,0,0,0,23.78l1.86,1.75a18.7,18.7,0,0,0,25.28,0L1141.59,1404a18.7,18.7,0,0,1,19.31-3.7l125.25,47.41A18.68,18.68,0,0,0,1305.51,1443.93Z"/><path class="cls-16" d="M3305.54,1571.32H3099.46a25.53,25.53,0,0,0-25.53,25.53v104.86a25.53,25.53,0,0,0,25.53,25.53h74.82l24.46,42.36a10.66,10.66,0,0,0,18.47,0l24.45-42.36h63.88a25.53,25.53,0,0,0,25.53-25.53V1596.85A25.53,25.53,0,0,0,3305.54,1571.32Z"/><circle class="cls-1" cx="3139.97" cy="1651.1" r="15.5"/><circle class="cls-1" cx="3202.5" cy="1651.1" r="15.5"/><circle class="cls-1" cx="3265.03" cy="1651.1" r="15.5"/><path class="cls-20" d="M3084.5,2094.07c19.44,1.06,20.17,15.29,41.06,12.32s45.51,4.43,65.57-.31,6.63-67.11-14.38-79.09S3084.5,2094.07,3084.5,2094.07Z"/><path class="cls-20" d="M3112.54,2063.72a39.46,39.46,0,0,1-44.1,39.61c-15-1.78-30.15-12-44-6-11.19,4.85-17.59,19.26-29.75,20.28-6.84.59-13.08-3.45-18.75-7.3q-8.28-5.6-16.5-11.19-7.62-5.2-15.24-10.35c-13.85-9.43-28.38-19.61-35.24-34.9-7.8-17.4-2.74-40.13,12.69-51.4a66.57,66.57,0,0,1,9.84-5.69c9.13-4.55,18.76-8.42,23.56-17.12,10-18.08-8.37-43.55,3.76-60.26,8.42-11.6,27-11.6,35.59-23.05,7-9.46,4.5-22.58,3.89-34.34a93.09,93.09,0,0,1,12.55-51.67s99.71,15.85,105,101.93S3112.54,2063.72,3112.54,2063.72Z"/><path class="cls-8" d="M3063.31,3312.07l-64,314.59-25.07,123.06v0h0c-.85.46-23.24,12.8-40.32,17.43-6.22,1.71-11.74,2.38-15.26,1.06a1.66,1.66,0,0,1-.29-.1c-7.47-3.11-14.94-7-19.54-12.58a18.93,18.93,0,0,1-4.53-14.12,12.9,12.9,0,0,1,.14-1.38c1-7.64,1-51.77.7-93.27,0-5.4-.07-15.35-.12-28.51-.15-44-.31-124.07-.46-190.42-.1-60.59-.19-109.75-.19-109.75l62-2.22Z"/><path class="cls-5" d="M2946.72,3618.27c-4,59.63-17.77,115.08-28.13,150a1.66,1.66,0,0,1-.29-.1c-7.47-3.11-14.94-7-19.54-12.58a18.93,18.93,0,0,1-4.53-14.12,12.9,12.9,0,0,1,.14-1.38c1-7.64,1-51.77.7-93.27,0-5.4-.07-15.35-.12-28.51-.15-44-.31-124.07-.46-190.42C2918.11,3465.55,2952.72,3529.17,2946.72,3618.27Z"/><path class="cls-18" d="M2999.26,3626.66l-25.07,123.06v0h0c-.85.46-23.24,12.8-40.32,17.43-6.22,1.71-11.74,2.38-15.26,1.06a1.66,1.66,0,0,1-.29-.1c-7.47-3.11-14.94-7-19.54-12.58a18.93,18.93,0,0,1-4.53-14.12,12.9,12.9,0,0,1,.14-1.38c1-7.64,1-51.77.7-93.27,0-5.4-.07-15.35-.12-28.51,13.42,3.57,30.75,5.67,48.22,6.87,1,.07,2,.15,3,.19C2965.66,3626.61,2985.06,3626.78,2999.26,3626.66Z"/><path class="cls-1" d="M2946.19,3625.33c-4.58,56.93-17.65,109.4-27.6,142.9a1.66,1.66,0,0,1-.29-.1c-7.47-3.11-14.94-7-19.54-12.58a18.93,18.93,0,0,1-4.53-14.12,12.9,12.9,0,0,1,.14-1.38c1-7.64,1-51.77.7-93.27,0-5.4-.07-15.35-.12-28.51,13.42,3.57,30.75,5.67,48.22,6.87C2944.19,3625.21,2945.17,3625.29,2946.19,3625.33Z"/><path class="cls-16" d="M2969.25,3881a31.59,31.59,0,0,1-2.72,6.84s0,0,0,0a14.37,14.37,0,0,1-2.68,3.44c-5.18,4.77-13.08,3.88-19.91,2.7l-85.77-15c-4.58-.8-9.13-1.59-13.71-2.41l-13.67-2.39c-8.26-1.47-16.51-3-24.75-4.53-11.93-2.27-23.83-4.72-35.55-7.9-21.81-5.93-43.21-14.56-60.61-28.85-1.35-1.11-2.72-2.36-3.11-4.08-.46-1.92.51-3.92,1.54-5.66a47.24,47.24,0,0,1,5.23-7.08,62.68,62.68,0,0,1,20.06-14.78c2.07-1,4.19-1.93,6.33-2.75,12.66-4.82,26.15-6.72,39.48-8.58l22.87-3.2,4.12-.58,17.6-2.46,4.09-.58c4.56-.62,9.14-1.25,13.69-1.9,3.67-.51,7.33-1,11-1.69,1.38-.24,2.75-.5,4.1-.82a65.17,65.17,0,0,0,14.92-4.94c2.26-1.11,4.26-4,6.14-7.64.77-1.49,1.5-3.15,2.24-4.84v0c4.78-11.25,8.68-25,13.48-20.34a4,4,0,0,0,.58.49c5.95,4.84,23.83,7,41.18,7.85,19.31,1,38,.48,38.76.46h0a73.73,73.73,0,0,0-.58,11c.15,11.09,2.32,22.18,3.62,33.21A213.88,213.88,0,0,1,2969.25,3881Z"/><path class="cls-13" d="M2881,3762.41q6.88,20.4,15.46,40.14c1.06,2.43-2.57,4.43-3.63,2q-8.79-20.24-15.86-41.13c-.85-2.53,3.18-3.5,4-1Z"/><path class="cls-13" d="M2854.59,3772.21a177.64,177.64,0,0,1,10.75,50.55c.17,2.67-4,2.58-4.14-.06a173.52,173.52,0,0,0-10.63-49.5c-.93-2.49,3.1-3.46,4-1Z"/><path class="cls-13" d="M2827.11,3777.66a135,135,0,0,1,2.18,38.31c-.23,2.65-4.37,2.6-4.14-.06a130.87,130.87,0,0,0-2.06-37.26c-.53-2.61,3.49-3.61,4-1Z"/><path class="cls-13" d="M2806.07,3782.5a102.17,102.17,0,0,1-1.54,32c-.53,2.62-4.52,1.47-4-1.12a98.79,98.79,0,0,0,1.38-31c-.29-2.64,3.85-2.55,4.14.07Z"/><path class="cls-1" d="M2971.42,3878.08c-1,3.54-2.29,7.18-4.89,9.73,0,0,0,0,0,0a2.34,2.34,0,0,1-.32.31c-5.08,4.63-12.91,3.66-19.66,2.41l-85.1-15.86-13.62-2.53c-3-.58-6-1.13-9.08-1.69-9.69-1.83-19.36-3.66-29-5.61-11.84-2.41-23.65-5-35.29-8.24-21.64-6.1-43-14.87-60.35-29.17-1.35-1.1-2.74-2.33-3.15-4-.46-1.91.45-3.86,1.47-5.55.36-.62.74-1.23,1.15-1.8,5.31-8,13.09-14.08,21.72-18.47a15.69,15.69,0,0,0-1.66,3.69,15.89,15.89,0,0,0-.82,6.36c.45,5.86,3.51,11.16,7.13,15.69a60.43,60.43,0,0,0,30,20.13c14.65,4.31,30.41,3,45.74,3.66,17.57.82,34.7,4.39,51.72,8.63,20.48,5.11,40.82,11.21,61.62,14.75,8.15,1.4,17.16,2.24,24.3-2.24,4.84-3,8.09-8.08,10.67-13.21a88.36,88.36,0,0,0,9-47.12c-.77-8.72-2.87-17.28-3.35-26.05-.41-7.21.6-14.75,4-21.14a11,11,0,0,1,.61-1.18c.26,11,2.55,22,4,33A208.56,208.56,0,0,1,2971.42,3878.08Z"/><path class="cls-8" d="M3313.38,3260.51l58.19,315.72,22.76,123.51v0h0c-.61.74-16.76,20.55-30.88,31.23-5.13,3.91-10,6.6-13.75,6.69a1.56,1.56,0,0,1-.31,0c-8.09-.09-16.47-.9-22.83-4.37a18.94,18.94,0,0,1-9.48-11.4,11.92,11.92,0,0,1-.38-1.33c-1.92-7.46-18.46-48.37-34.22-86.77-2-5-5.81-14.21-10.77-26.4-16.59-40.78-46.67-115-71.61-176.44-22.74-56.16-41.21-101.72-41.21-101.72l56.64-25.22Z"/><path class="cls-5" d="M3319.71,3588.09c18.55,56.81,26.54,113.38,30,149.6a1.56,1.56,0,0,1-.31,0c-8.09-.09-16.47-.9-22.83-4.37a18.94,18.94,0,0,1-9.48-11.4,11.92,11.92,0,0,1-.38-1.33c-1.92-7.46-18.46-48.37-34.22-86.77-2-5-5.81-14.21-10.77-26.4-16.59-40.78-46.67-115-71.61-176.44C3236.08,3457.13,3292,3503.21,3319.71,3588.09Z"/><path class="cls-18" d="M3371.57,3576.23l22.76,123.51v0h0c-.61.74-16.76,20.55-30.88,31.23-5.13,3.91-10,6.6-13.75,6.69a1.56,1.56,0,0,1-.31,0c-8.09-.09-16.47-.9-22.83-4.37a18.94,18.94,0,0,1-9.48-11.4,11.92,11.92,0,0,1-.38-1.33c-1.92-7.46-18.46-48.37-34.22-86.77-2-5-5.81-14.21-10.77-26.4,13.79-1.71,30.64-6.24,47.3-11.65,1-.31,1.91-.62,2.86-.95C3340.39,3588.74,3358.45,3581.65,3371.57,3576.23Z"/><path class="cls-1" d="M3321.85,3594.84c17,54.51,24.54,108.06,27.83,142.85a1.56,1.56,0,0,1-.31,0c-8.09-.09-16.47-.9-22.83-4.37a18.94,18.94,0,0,1-9.48-11.4,11.92,11.92,0,0,1-.38-1.33c-1.92-7.46-18.46-48.37-34.22-86.77-2-5-5.81-14.21-10.77-26.4,13.79-1.71,30.64-6.24,47.3-11.65C3320,3595.48,3320.9,3595.17,3321.85,3594.84Z"/><path class="cls-16" d="M3438.81,3823.32a31.24,31.24,0,0,1,0,7.36s0,0,0,0a14,14,0,0,1-1.19,4.19c-3,6.37-10.69,8.49-17.46,9.95q-42.57,9-85.16,18.14c-4.55,1-9.07,1.94-13.62,2.89l-13.57,2.89c-8.22,1.73-16.42,3.43-24.65,5.05-11.91,2.36-23.87,4.53-35.93,6-22.44,2.66-45.52,2.65-67-4.1-1.67-.52-3.41-1.17-4.41-2.61-1.14-1.62-1-3.83-.68-5.83a47.08,47.08,0,0,1,2.2-8.53,63,63,0,0,1,13.07-21.2q2.33-2.57,4.86-4.91c9.93-9.2,21.74-16,33.4-22.72l20-11.52,3.6-2.08,15.4-8.86,3.59-2.07c4-2.28,8-4.57,12-6.88,3.21-1.84,6.42-3.68,9.56-5.67,1.19-.74,2.36-1.5,3.5-2.29a65.72,65.72,0,0,0,12-10.16c1.68-1.88,2.47-5.29,2.84-9.39.16-1.67.21-3.48.27-5.33v0c.22-12.22-1.3-26.44,4.89-23.9a3.79,3.79,0,0,0,.72.23c7.33,2.27,24.71-2.45,41.14-8.11,18.27-6.3,35.38-13.74,36.11-14.06h0a72.1,72.1,0,0,0,3.58,10.43c4.27,10.23,10.43,19.7,15.76,29.45A213.79,213.79,0,0,1,3438.81,3823.32Z"/><path class="cls-13" d="M3312.64,3746.34q14,16.35,29.36,31.45c1.88,1.86-.74,5.07-2.64,3.2q-15.72-15.48-30.08-32.23c-1.74-2,1.64-4.43,3.36-2.42Z"/><path class="cls-13" d="M3291.81,3765.31a177.5,177.5,0,0,1,28.86,42.87c1.16,2.4-2.71,3.87-3.86,1.49a173.64,173.64,0,0,0-28.37-41.94c-1.79-2,1.59-4.37,3.37-2.42Z"/><path class="cls-13" d="M3268.36,3780.64a134.67,134.67,0,0,1,16.34,34.72c.78,2.54-3.08,4-3.86,1.48a131.29,131.29,0,0,0-15.84-33.78c-1.47-2.22,1.89-4.65,3.36-2.42Z"/><path class="cls-13" d="M3250.65,3793a102,102,0,0,1,10.54,30.28c.48,2.62-3.64,3.05-4.11.44a98.61,98.61,0,0,0-10.3-29.23c-1.26-2.35,2.62-3.81,3.87-1.49Z"/><path class="cls-1" d="M3439.74,3819.82c.36,3.68.56,7.52-.9,10.86,0,0,0,0,0,0a2,2,0,0,1-.17.4c-3,6.2-10.61,8.23-17.34,9.59l-84.86,17.11-13.57,2.74c-3,.6-6,1.21-9.06,1.83-9.67,1.92-19.32,3.84-29,5.65-11.87,2.19-23.78,4.23-35.8,5.54-22.36,2.44-45.42,2.28-66.88-4.48-1.66-.53-3.42-1.14-4.44-2.58-1.14-1.59-1-3.75-.71-5.69.1-.72.24-1.42.4-2.11,1.93-9.4,6.88-17.94,13.24-25.24a17.67,17.67,0,0,0,1.45,10.25c2.62,5.26,7.44,9,12.49,11.89a60.49,60.49,0,0,0,35.35,7.44c15.2-1.47,29.32-8.62,43.79-13.7,16.61-5.81,33.83-8.9,51.2-11.33,20.91-2.92,42-4.87,62.67-9.36,8.08-1.75,16.75-4.33,21.69-11.16,3.37-4.6,4.5-10.51,5-16.24a88.31,88.31,0,0,0-9.23-47.08c-4-7.8-9.12-14.95-12.85-22.91-3.07-6.53-5-13.9-4.23-21.08a11.75,11.75,0,0,1,.11-1.32c4.36,10.09,10.6,19.45,16,29.11A208.48,208.48,0,0,1,3439.74,3819.82Z"/><path class="cls-8" d="M2815.66,2387.58a13.71,13.71,0,0,0,2.41.54,4.27,4.27,0,0,0,1.12,0,2.61,2.61,0,0,0,.42-.08c8-2.66,80.09-10.81,150.32-18.35L2954,2305.13l-18.57-75.37-.59-2.48c-48.36,16.55-94.14,30.83-101.33,28.43-15.66-5.22-235.2-118.74-250.81-120.7-.43-.05-.72,0-.83.08-12.91,12.43-29.31,29.51-36.53,47-.37.82-.69,1.65-1,2.51C2541.24,2193.16,2779.06,2376.21,2815.66,2387.58Z"/><path class="cls-10" d="M3417.17,3378.72c-1.7-1.26-71.5-52.61-138.16-22.47-31,14.05-62.38,10-93.18,1.74-36.14-9.66-71.47-25.08-104.45-23.65-61,2.63-123.71,52.45-163.87,44.41s-65.87-7.88-106.05.88c0,0,64.27-320.61,94.81-458.8s98-337.38,83.53-377.57-13.17-84.62-20-85.1c-34.3-2.42-67-32.79-53.14-90l-22.71-52-13.1-85.58s73.55-28.71,133.81-56.83,135-57,182.36-25.69,100.9,109.64,58.9,213.28c-3.6,8.86-7,17.26-10.06,25.28-33.3,85.85-37.67,127.44,17.43,201.27,60.26,80.74,141,339.4,137.79,525.79C3397.93,3298.68,3416.92,3377.61,3417.17,3378.72Z"/><circle class="cls-12" cx="2526.39" cy="2230.52" r="254.75"/><circle class="cls-13" cx="2526.39" cy="2230.52" r="216.21"/><path class="cls-14" d="M2613.74,2032.48a215.2,215.2,0,0,1,49.33,110.85c16,118.33-66.93,227.23-185.26,243.25a215.28,215.28,0,0,1-116.38-16.47,216,216,0,0,0,193.92,74.41c118.33-16,201.28-124.92,185.26-243.25A216.07,216.07,0,0,0,2613.74,2032.48Z"/><path class="cls-15" d="M2352.32,2274c-14.13-104.46,59.09-200.59,163.54-214.73a190.55,190.55,0,0,1,159.92,53.55,190.81,190.81,0,0,0-176.84-72.67c-104.46,14.14-177.67,110.27-163.54,214.73a190,190,0,0,0,54.81,110A190.05,190.05,0,0,1,2352.32,2274Z"/><g id="LkW7Tg.tif"><path class="cls-1" d="M2506.4,2373.8l-4.2-30.84c-.41-3-.42-3-3.31-2.58l-55.53,7.51c-3.17.43-3.21.4-3.64-2.74q-1.57-11.57-3.13-23.13a3.05,3.05,0,0,1,2.59-3.42c4.06-.57,8.11-1.09,12.11-2a10.11,10.11,0,0,0,7.86-10.3c-.16-3.48-.6-6.93-1.06-10.38q-7.5-55.43-15-110.84c-.44-3.23-1-6.44-1.67-9.63-1-5-4.9-7.9-10.09-7.73a103.6,103.6,0,0,0-12.81,1.36c-2.35.37-3-.62-3-3.69a83.18,83.18,0,0,0-2.86-21.19c-.92-3.34-.28-4.21,2.08-4.52q27.89-3.69,55.75-7.52a3.19,3.19,0,0,0,2.74-3.58c-1.26-9.33-2.47-18.67-3.83-28a2.87,2.87,0,0,1,2.51-3.27q12-1.45,24-3.26c2.29-.35,3,.4,3.22,2.55,1.19,9.49,2.59,19,3.76,28.43.27,2.17,1.07,2.69,3.15,2.34,4.16-.7,8.36-1.17,12.55-1.74,2.95-.4,3-.41,2.57-3.28l-3.72-27.54c-.49-3.58-.48-3.56,3.25-4.06q11.17-1.51,22.35-3c5-.66,3.07-.57,5,8.21a154.16,154.16,0,0,1,2.93,23.18c.16,2.74,1,3.53,3.33,3.49,13.82-.28,26.76,2.7,38.37,10.51a43.26,43.26,0,0,1,13.22,14.23,47,47,0,0,1,4.14,38.22c-3.72,11.38-11.1,19.88-20.76,26.44-2.6,1.77-5.38,3.25-8,5.29,3.67.66,7.35,1.27,11,2a51.12,51.12,0,0,1,22.17,9.78,47.45,47.45,0,0,1,16.83,25.25c5.5,20.21.21,37.66-13.83,52.61-9.65,10.26-21.94,16.23-35.4,19.87-2.17.58-2.87,1.39-2.54,3.67,1.57,10.93,3,21.88,4.45,32.82l-29.53,4c-.17-1-.38-1.89-.51-2.84-1.28-9.39-2.62-18.79-3.77-28.2-.27-2.29-1.1-2.81-3.27-2.42-3.72.67-7.49,1-11.23,1.57-4.62.65-4.21.07-3.62,4.65q1.93,14.88,3.89,29.75Zm1.33-102h.08c.79,5.8,1.5,11.61,2.38,17.4.51,3.36.67,6.8,1.84,10s2.65,4,5.89,3.87a218.42,218.42,0,0,0,23.38-2.84c6.42-1,12.81-2.3,18.87-4.88,19.41-8.25,22.9-32.52,11.09-46.4-5.51-6.48-13.22-8.38-21.36-8.77a106.74,106.74,0,0,0-14.4.77c-10,.86-19.83,2.6-29.76,3.79-1.18.15-1.61.65-1.43,1.93C2505.49,2255,2506.6,2263.4,2507.73,2271.77Zm-9.09-68.79c.41,2.59.65,5.21.89,7.82s1.24,3.21,4,2.62a71.1,71.1,0,0,1,8.59-1.37,143.27,143.27,0,0,0,31.33-5.84c11.9-3.8,18.66-11.92,18.87-23.24.21-10.93-5.73-20.36-16.78-23-6.87-1.62-13.86-1.08-20.76-.33-9.64,1.05-19.24,2.56-28.87,3.76-2.14.26-2.69,1.08-2.38,3.16C2495.35,2178.71,2496.74,2190.88,2498.64,2203Z"/></g><path class="cls-21" d="M2905.68,2307l7.89,22a114.5,114.5,0,0,0,22.49,5.39c51.83,7.89,157-62.09,119.76-75s-54.59-12.81-54.59-12.81-55.59,47.32-75.31,54.62C2916.21,2304.77,2909.74,2306.33,2905.68,2307Z"/><path class="cls-21" d="M2925,2433.32a57.64,57.64,0,0,0,9.76,10.3,62.08,62.08,0,0,0,35.2,13.86c6.06.41,5.81,35.29,15.57,71.49,13.57-3.54,28.1-8.48,39.91-15.21,31.55-18,122.44-109.67,180.3-174.28,0,0-271.21,12.78-283.22,24.05C2917.54,2368.21,2920.22,2399,2925,2433.32Z"/><path class="cls-5" d="M2527.88,2314.13c.91.23,1.81.49,2.78.74,16.23,4.24,47.67,8.46,74.14,11.52a0,0,0,0,1,0,0c.3,0,.59.06.87.09l26.38,2.62,11.72,1.16,1.29-5.66,11.45-51.27.2-.8-.37-.35-1.56-1.54-28.64-28c-2.91-2.77-6.06-5.9-9.51-9.6a53,53,0,0,1-9.56-14.48c-2.9-6.46-6.39-15.21-6.83-20.57a7.39,7.39,0,0,0-7-6.85,5.45,5.45,0,0,0-4.82,2.69c-3.06,5.07-1.94,23.38,8.5,42.19,4.13,7.38,1.83,9.88-3.19,9.94-7.64.07-21.72-5.69-28.6-8.37-11.31-4.46-47-16.56-51-14.14a5.67,5.67,0,0,0-2.83,3.46c-1,3.7,2.71,8.41,11.12,11.46,10.38,3.81,38.28,16.23,42,23a2.16,2.16,0,0,1,.31,2c-2.41,5.85-59.83-17.6-59.83-17.6s-9.36-5.7-13.46-1.88a4.81,4.81,0,0,0-1.13,1.59c-5.59,12.16,57.15,32.58,63.15,34.36a2.84,2.84,0,0,1,2.07,2.05,3.6,3.6,0,0,1-4.75,4.18c-4.56-1.65-56.78-24.75-62.58-12.43a1.14,1.14,0,0,0-.07.19c-3.58,9.39,51.6,17.16,59.89,27.95s-41.91-10.31-45.8-1.08C2500.83,2304.07,2500.21,2306.79,2527.88,2314.13Z"/><path class="cls-5" d="M2949.77,2446.87a14,14,0,0,0,2.47-.17,4.48,4.48,0,0,0,1.07-.3,2.38,2.38,0,0,0,.39-.2c6.93-4.82,73.73-33,139-60.17l-33.54-57.43-39.17-67-1.27-2.21c-41.69,29.58-81.54,56.24-89.12,56-16.5-.56-259.21-47.23-274.73-44.69-.43.07-.71.16-.77.31-8.87,15.58-19.75,36.61-21.71,55.47-.12.88-.2,1.77-.25,2.68C2631.51,2338.15,2911.44,2446.33,2949.77,2446.87Z"/><path class="cls-8" d="M2605.71,2326.48l26.38,2.62c-.58,9.05,279.35,117.23,317.68,117.77a14,14,0,0,0,2.47-.17,4.48,4.48,0,0,0,1.07-.3,2.38,2.38,0,0,0,.39-.2c6.93-4.82,73.73-33,139-60.17l-33.54-57.43-39.17-67c1.68,16.53,9.54,98.38-.07,105.16-10.7,7.59-71.69,37.33-103.37,50.21s-268-88.51-268-88.51l13.09-10.48a54.44,54.44,0,0,1-16.49,6.65c-4,.75-8.34,1.42-12.76,1.82a62.21,62.21,0,0,1-14.32-.3,44.89,44.89,0,0,0-13.18.27C2605.14,2326.4,2605.43,2326.45,2605.71,2326.48Z"/><path class="cls-21" d="M3133.93,2174.06c50.68-3.09,82.05,2.34,100.47,8.72a166.36,166.36,0,0,0-37.86-35.16,76.44,76.44,0,0,0-16.3-8.15,88.23,88.23,0,0,0-14.62-3.95,103.08,103.08,0,0,0-10.39-1.35C3141.43,2151.1,3133.93,2174.06,3133.93,2174.06Z"/><path class="cls-10" d="M3001.23,2246.55l73.5,172.67s143.5-54,173.05-116.27-24.11-140-110.44-120.56S3001.23,2246.55,3001.23,2246.55Z"/><path class="cls-5" d="M3164.39,2155.39c-5.37,18.08-52.51,24.49-108,35.75l-.55.09c-55.05,11.06-70.74-4.82-24.22-26.41,23.76-11,33.84-23.09,38.05-37.41,4.32-14.63,2.51-31.62,2.94-52.29l31.24-4.9,9.42-1.47,52.68-8.29S3169.79,2137.32,3164.39,2155.39Z"/><path class="cls-8" d="M3164.39,2155.39c-5.37,18.08-52.51,24.49-108,35.75l-.55.09c7.45-6,20.24-13.18,36.83-19.91,42.56-17.28,30.92-45.79,0-53.69a195,195,0,0,1,19.66-47.41c.29-.5.6-1,.94-1.47l52.68-8.29S3169.79,2137.32,3164.39,2155.39Z"/><path class="cls-11" d="M3161.07,2058.7c-17.17,62.25-57.41,66.54-91.42,68.71,4.32-14.63,2.51-31.62,2.94-52.29l31.24-4.9C3129.76,2074,3161.07,2058.7,3161.07,2058.7Z"/><path class="cls-5" d="M3186.39,1856.26l-8.68,160.11a88.85,88.85,0,0,1-177.44-9.64l3.27-60.17,3.29-60.51,2.15-39.43Z"/><path class="cls-10" d="M3307.15,2134.28a41.23,41.23,0,0,1-44.57,2.29c-7.48-4.45-13.59-11.35-21.85-14.06-13.77-4.53-28,3.8-41.13,9.86s-45.44,20-53.95,8.36c-11.12-15.24,20.09-41.24,17.28-59.91-1.39-9.17-7.47-23.09-11.57-31.43a34.09,34.09,0,0,1-3.57-11.18c-2.51-22.22,24.88-42.65,15.91-63.14a28.27,28.27,0,0,0-7-9.32c-7.39-6.84-17.22-12-20.3-21.42-3.69-11.32,4.08-23.19,3.93-35.09-.24-19.64-21.14-32.35-40.3-36.77s-40.31-5.09-55.63-17.39-20.56-35.22-12.32-52.89l1.81,6.88c-2.71-10.81,5-22.2,15.26-26.65s22-3.32,32.74-.42,21.06,7.39,32,9.61c19.89,4.09,40.61.29,60.8,2.64s42.09,14.07,45.26,34.14c1.41,8.8-1,18.22,2.28,26.49,9.12,22.65,49.9,16.22,58.93,38.9,8,20-17.38,44.7-4.84,62.25,9.12,12.76,32.16,10.23,39,24.33,3.9,8.06.26,17.73-4.67,25.2s-11.29,14.39-13.38,23.08c-2.75,11.35,2.36,23.06,8.53,33s13.68,19.37,16.5,30.67A41.23,41.23,0,0,1,3307.15,2134.28Z"/><path class="cls-10" d="M2959.42,2099.1q-7.62-5.2-15.24-10.35c-13.85-9.43-28.38-19.61-35.24-34.9-7.8-17.4-2.74-40.13,12.69-51.4a66.57,66.57,0,0,1,9.84-5.69c-13.25,34.66-11.55,60.13,10.55,78.94C2952.42,2084.54,2957.33,2092.6,2959.42,2099.1Z"/><path class="cls-20" d="M3161.38,2024.66a69.78,69.78,0,0,0-10,24.73,34.09,34.09,0,0,1-3.57-11.18c-2.51-22.22,24.88-42.65,15.91-63.14a28.27,28.27,0,0,0-7-9.32,136.61,136.61,0,0,1,28.77-12.48C3197,1967.86,3182.17,1992.54,3161.38,2024.66Z"/><path class="cls-5" d="M3127.15,1949.36c16.16-18.48,56.2-28.79,61,7s-45.68,45.84-45.68,45.84Z"/><path class="cls-8" d="M3064.21,1865s-20.57,56.34-60.67,81.58l3.29-60.51C3024.24,1875.36,3064.21,1865,3064.21,1865Z"/><path class="cls-10" d="M3070.24,1857.9c-21.16,27.44-68.66,56.2-103.31,55.72,3.75-22.73,8.2-45.58,17.45-66.67s23.77-40.53,43.79-51.93,45.95-13.66,66-2.39C3094.21,1792.63,3115.33,1799.16,3070.24,1857.9Z"/><path class="cls-12" d="M3151.35,1877.36a5.18,5.18,0,0,1-.33,1c-1.6-3.08-3.87-5.13-6-7.3a71.53,71.53,0,0,0-6.84-5.61,61.09,61.09,0,0,0-14.49-7.8,75.78,75.78,0,0,0-7.84-2.36c-1.36-.23-2.74-.41-4.15-.73a37.07,37.07,0,0,0-4.28-.52c-2.93-.51-6-.43-9.12-.71-2-.13-4.08-.12-6.2-.21a35.74,35.74,0,0,1-3.76-.29,41.69,41.69,0,0,1,4.07-3.19,25.19,25.19,0,0,1,4.44-2.72,39.63,39.63,0,0,1,9.93-3.39,41.46,41.46,0,0,1,10.76-.83c1.81.19,3.64.54,5.47.82a12.67,12.67,0,0,1,2.68.67l2.64.88a37.94,37.94,0,0,1,17.44,13.06,33.33,33.33,0,0,1,4.93,9.57,24.9,24.9,0,0,1,1,5.32A12.93,12.93,0,0,1,3151.35,1877.36Z"/><path class="cls-21" d="M3417.17,3378.72c-1.7-1.26-71.5-52.61-138.16-22.47-31,14.05-62.38,10-93.18,1.74a1309,1309,0,0,0,85.87-298.72c38.1-235.24-59.13-485.89-75.93-537-14.64-44.51,10.56-77.86,50.14-135.67-33.3,85.85-37.67,127.44,17.43,201.27,60.26,80.74,141,339.4,137.79,525.79C3397.93,3298.68,3416.92,3377.61,3417.17,3378.72Z"/></g></g></svg>