<svg xmlns="http://www.w3.org/2000/svg" xmlns:xlink="http://www.w3.org/1999/xlink" viewBox="0 0 5000 5000"><defs><style>.cls-1{fill:#fff;}.cls-2{fill:url(#linear-gradient);}.cls-3{fill:#c6c6c6;}.cls-4{fill:#ddd;}.cls-5{fill:#fcac88;}.cls-6{fill:#0d1d21;}.cls-7{fill:#ffbe9d;}.cls-8{fill:#1a2e35;}.cls-9{fill:#e8e8e8;}.cls-10{fill:#070f11;}.cls-11{fill:#fc986d;}.cls-12{fill:#ff4f5a;}.cls-13{fill:#d83e48;}.cls-14{fill:#d32a3b;}.cls-15{fill:#e8505b;}.cls-16{fill:#122a30;}.cls-17{fill:#385a64;}.cls-18{fill:#263238;}.cls-19{fill:#224449;}.cls-20{fill:#bf5a4d;}</style><linearGradient id="linear-gradient" x1="2572.45" y1="2356.15" x2="2420.03" y2="4690.63" gradientUnits="userSpaceOnUse"><stop offset="0" stop-color="#fff"/><stop offset="1" stop-color="#e8e8e8"/></linearGradient></defs><title>06</title><g id="Layer_2" data-name="Layer 2"><g id="Layer_1-2" data-name="Layer 1"><rect class="cls-1" width="5000" height="5000"/><path class="cls-2" d="M1168.42,2790.92C792.29,3253.09,211.61,3627.2,666.74,3627.2H4251.13c284.2,0,320.41-190,87.67-255.21s228-210.52,152.8-634.38-155.38-372.19-417.86-607.49,56.46-682.8-333.16-854.7-1403.31-276-1599.84,60.49-194.18,508.43-534.12,556.95S1333.92,2538.85,1168.42,2790.92Z"/><path class="cls-3" d="M4292.87,2572.72a54.8,54.8,0,0,0-42-19.5h-698a54.68,54.68,0,0,0-21.28,4.3V2454.31a8.66,8.66,0,0,0-8.66-8.65H3290.2a8.65,8.65,0,0,0-8.66,8.65v16.3a8.65,8.65,0,0,0,8.66,8.66H3498V3311.8a65.94,65.94,0,1,0,33.62,0V3130a54.5,54.5,0,0,0,21.28,4.3H4076V3311.8a65.94,65.94,0,1,0,33.62,0V3134.26h60.8a54.77,54.77,0,0,0,54.12-45.64l1.19-7,1.58-9.18,18.28-107,1.58-9.18,18.28-107,1.58-9.18,18.28-107,1.55-9.18L4305,2617.38c0-.18.05-.34.07-.52a58,58,0,0,0,.73-9.18A55,55,0,0,0,4292.87,2572.72Zm-682.2,527.92H3552.9a21.33,21.33,0,0,1-21.18-19h79Zm0-28.21h-79.05v-107h79.05Zm0-116.19h-79.05v-107h79.05Zm0-116.18h-79.05v-107h79.05Zm0-116.19h-79.05v-107h79.05Zm0-116.19h-79.05a21.3,21.3,0,0,1,21.28-20.84h57.77Zm130.83,493H3621v-19H3741.5Zm0-28.21H3621v-107H3741.5Zm0-116.19H3621v-107H3741.5Zm0-116.18H3621v-107H3741.5Zm0-116.19H3621v-107H3741.5Zm0-116.19H3621v-20.84H3741.5Zm130.83,493H3751.84v-19h120.49Zm0-28.21H3751.84v-107h120.49Zm0-116.19H3751.84v-107h120.49Zm0-116.18H3751.84v-107h120.49Zm0-116.19H3751.84v-107h120.49Zm0-116.19H3751.84v-20.84h120.49Zm130.83,493H3882.67v-19h120.49Zm0-28.21H3882.67v-107h120.49Zm0-116.19H3882.67v-107h120.49Zm0-116.18H3882.67v-107h120.49Zm0-116.19H3882.67v-107h120.49Zm0-116.19H3882.67v-20.84h120.49Zm130.83,493H4013.5v-19H4134Zm0-28.21H4013.5v-107H4134Zm0-116.19H4013.5v-107H4134Zm0-116.18H4013.5v-107H4134Zm0-116.19H4013.5v-107H4134Zm0-116.19H4013.5v-20.84H4134ZM4191.35,3083a21.22,21.22,0,0,1-21,17.68h-26.05v-19h47.25Zm1.81-10.53h-48.83v-107h67.11ZM4213,2956.24h-68.66v-107h86.94Zm19.86-116.18h-88.52v-107h106.8Zm19.86-116.19H4144.33v-107H4271Zm-108.38-116.19v-20.84H4250.9a21.28,21.28,0,0,1,21.26,20.84Z"/><polygon class="cls-4" points="4180.9 3615.99 4198.94 3562.33 4248.07 3534.85 4149.81 3549.07 4180.9 3615.99"/><path class="cls-4" d="M4043.74,3048H4036v-79.23a91.21,91.21,0,1,0-182.41,0V3042h-7.76v-73.24a99,99,0,1,1,197.93,0Z"/><polyline class="cls-3" points="4140.07 2967.97 4248.07 3534.85 3662.88 3615.99 3706.05 2967.97"/><polygon class="cls-4" points="3706.05 2967.97 3728.4 2988.87 3704.89 3018.24 3662.88 3383.42 3706.05 2967.97"/><polygon class="cls-4" points="3728.4 2988.87 3728.4 3032.81 3704.84 3018.16 3728.4 2988.87"/><polygon class="cls-4" points="4117.64 2988.93 4117.64 3032.88 4138.78 3018.29 4117.64 2988.93"/><polygon class="cls-4" points="4180.9 3615.99 3662.88 3615.99 3704.89 2979.59 4141.15 2979.59 4180.9 3615.99"/><path class="cls-4" d="M3840.92,3041.53a18.08,18.08,0,1,1-21.72-13.5A18.09,18.09,0,0,1,3840.92,3041.53Z"/><path class="cls-4" d="M4031.09,3043.86a18.08,18.08,0,1,1-21.72-13.5A18.09,18.09,0,0,1,4031.09,3043.86Z"/><path class="cls-4" d="M4016.48,3048h-7.75v-79.23a91.21,91.21,0,0,0-182.42,0V3042h-7.76v-73.24a99,99,0,1,1,197.93,0Z"/><path class="cls-5" d="M1542.84,3899.07l223.09,7.94a16.84,16.84,0,0,0,17.19-13.8c1.77-9.74,3.41-32.09-1.72-52.91.92-6.18,5-34,11.21-76.29-38.74,4.13-77.69,8.65-116.63,11l-.78,26.27-1.09,36.62a321.9,321.9,0,0,1-53.92,27c-23.72,9.13-51.68,16.11-76.12,12.06a8.66,8.66,0,0,0-8.33,2.93c-2.61,3.34-4.61,8.8.58,15.85A8.4,8.4,0,0,0,1542.84,3899.07Z"/><path class="cls-6" d="M1562.94,3911.11s50.19,1.81,102.82,2.68c56.22.92,115.22.8,118.87-3.75,7.08-8.78-.42-56.76-.42-56.76-27.7,16.13-57.6,19.75-88.51,21.95-19.41,1.4-39.23,2.21-59.13,5.24a40.28,40.28,0,0,1-38.09-16.18c-17,2.51-32.67,6.89-49.67,9.4a36.13,36.13,0,0,0-10.35,2.57c-3.23,1.52-6.11,4.18-7,7.63-1.11,4.3,1,8.78,3.71,12.32A38.64,38.64,0,0,0,1562.94,3911.11Z"/><path class="cls-7" d="M1620.19,3864.91c38.21,4.78,76.3-2.35,88.91-14.69,13.58-13.3,15.45-42-14.74-45.78-7.22-.9-13.6-2.11-19.16-3.13l-1.09,36.62A321.9,321.9,0,0,1,1620.19,3864.91Z"/><path class="cls-8" d="M1562.94,3911.11s50.19,1.81,102.82,2.68c8.4-12.53,19.63-28.27,29.94-38.56-19.41,1.4-39.23,2.21-59.13,5.24a40.28,40.28,0,0,1-38.09-16.18c-17,2.51-32.67,6.89-49.67,9.4a36.13,36.13,0,0,0-10.35,2.57c-3.23,1.52-6.11,4.18-7,7.63-1.11,4.3,1,8.78,3.71,12.32A38.64,38.64,0,0,0,1562.94,3911.11Z"/><path class="cls-5" d="M2252.28,3908l-223.09,7.94a16.84,16.84,0,0,1-17.19-13.8c-1.77-9.74-3.41-32.09,1.72-52.91-.92-6.18-5-34-11.21-76.29,38.74,4.13,77.69,8.65,116.63,11l.78,26.27,1.09,36.62a321.9,321.9,0,0,0,53.92,27c23.71,9.13,51.67,16.11,76.12,12.06a8.63,8.63,0,0,1,8.32,2.92c2.61,3.35,4.61,8.81-.57,15.86A8.41,8.41,0,0,1,2252.28,3908Z"/><path class="cls-6" d="M2232.18,3920s-50.2,1.81-102.82,2.67c-56.22.93-115.23.8-118.87-3.74-7.08-8.78.42-56.76.42-56.76,27.69,16.13,57.59,19.75,88.5,21.95,19.42,1.4,39.24,2.21,59.14,5.24a40.29,40.29,0,0,0,38.09-16.18c17,2.51,32.66,6.88,49.67,9.4a36.45,36.45,0,0,1,10.35,2.56c3.22,1.52,6.1,4.19,7,7.64,1.11,4.3-1,8.78-3.71,12.31A38.64,38.64,0,0,1,2232.18,3920Z"/><path class="cls-7" d="M2174.93,3873.8c-38.22,4.77-76.31-2.35-88.91-14.69-13.58-13.3-15.46-42,14.73-45.78,7.22-.9,13.6-2.11,19.17-3.13l1.09,36.62A321.9,321.9,0,0,0,2174.93,3873.8Z"/><path class="cls-8" d="M2232.18,3920s-50.2,1.81-102.82,2.67c-8.41-12.52-19.63-28.27-30-38.55,19.42,1.4,39.24,2.21,59.14,5.24a40.29,40.29,0,0,0,38.09-16.18c17,2.51,32.66,6.88,49.67,9.4a36.45,36.45,0,0,1,10.35,2.56c3.22,1.52,6.1,4.19,7,7.64,1.11,4.3-1,8.78-3.71,12.31A38.64,38.64,0,0,1,2232.18,3920Z"/><path class="cls-1" d="M2147.73,3801.87H1976.29s-162.52-765.78-188.22-868.15c-1.77-7.1-2.89-11-3.25-11.25-5.61-3.74,22.48,881.57,22.48,881.57H1627.46l-42.09-1042.35-1-24.68,82.63-2.27,123.43-3.36,136.76-3.72Z"/><path class="cls-9" d="M2061.12,3801.87h-84.83s-162.52-765.78-188.22-868.15c-1.35-7.36-2.2-11.8-2.43-12.92-3.79-18.38-45.89-70.2-66.33-46.38-18.25,21.23.55,724.34.83,929.62h-92.68l-42.09-1042.35c21-10.56,50.57-20.26,81.64-27,44.88-9.62,93-12.92,123.43-3.36a59,59,0,0,1,18.4,9.07C1855.06,2776,2020.11,3595.21,2061.12,3801.87Z"/><path class="cls-10" d="M1859.6,2798.09c5.62,6.24,10.77,12.63,16.4,18.6,1.35,1.53,2.8,3,4.19,4.47s2.75,3,4.25,4.41,2.86,2.91,4.29,4.36l4.44,4.2c5.93,5.58,12,11,18.35,16.17l2.38,1.94c.81.62,1.63,1.22,2.43,1.87,1.58,1.31,3.25,2.49,4.89,3.73a94,94,0,0,0,10.29,6.87c-4.17-.7-8.07-2.47-11.89-4.2a101.27,101.27,0,0,1-11-6.2,134.27,134.27,0,0,1-19.82-15.57,138.4,138.4,0,0,1-16.63-18.93A112,112,0,0,1,1859.6,2798.09Z"/><path class="cls-10" d="M1672.15,2807.79c-5.62,6.25-10.77,12.63-16.4,18.6-1.35,1.54-2.8,3-4.19,4.48s-2.75,3-4.25,4.41-2.86,2.9-4.29,4.35l-4.44,4.21c-5.93,5.58-12,11-18.35,16.16l-2.38,1.94c-.81.62-1.63,1.23-2.43,1.88-1.58,1.3-3.25,2.49-4.89,3.73a93.88,93.88,0,0,1-10.29,6.86c4.17-.69,8.07-2.46,11.9-4.19a103.82,103.82,0,0,0,11-6.2,135,135,0,0,0,19.83-15.58,138.92,138.92,0,0,0,16.62-18.92A112.12,112.12,0,0,0,1672.15,2807.79Z"/><path class="cls-10" d="M1784.83,2923.53a1.13,1.13,0,0,1-.51-.12,1.08,1.08,0,0,1-.54-.77l-27.44-181a1.07,1.07,0,0,1,1.05-1.22h32.95a1.06,1.06,0,0,1,1,.85c.17.82,17,83.09,17.47,126.57.53,44.07-22.59,55.12-23.57,55.57A1.12,1.12,0,0,1,1784.83,2923.53Zm-26.21-181,27,178.23c4.78-3,21.53-16.2,21.09-52.91-.5-40.91-15.48-116.48-17.26-125.32Z"/><path class="cls-1" d="M1768.39,2755.79c6.61,12.42,23.27,109.18,24.59,128.75s9.13,13.85,11.1-19.83-9.25-105-15.59-108.92S1768.39,2755.79,1768.39,2755.79Z"/><path class="cls-6" d="M1937.61,2625.23c0,17.52-.45,36.66-1,53.7-.91,28.18,15.69,78.13,15.69,78.13s-56-4.58-133.25-1.41-256.62,14.81-256.62,14.81,7-41.85,5.39-65.66c-1.84-26.67-2.22-71.42,4.48-141.28,0,0,195.09-9.29,299-3.34,36.31,2.09,61.48,6,63.26,12.88C1936.84,2581.86,1937.61,2602.12,1937.61,2625.23Z"/><path class="cls-10" d="M1937.61,2625.23c0,17.52-.45,36.66-1,53.7-88.28,1.31-128.69-31.3-161.27-26.81-35.25,4.84-54.46.8-62.92,2.89s-71.38,40.72-122.67,47.06c-8.71,1.08-15.92,2-21.93,2.73-1.84-26.67-2.22-71.42,4.48-141.28,0,0,195.09-9.29,299-3.34C1899.05,2581.05,1922.06,2603.7,1937.61,2625.23Z"/><path class="cls-6" d="M1531.43,2259.92c47.94-104.22,142.41-128.19,200.22-139.47s163.56-9.87,215.73,39.48,70.57,93.46,83.85,149-411,42.78-419.43,42.78S1531.43,2259.92,1531.43,2259.92Z"/><path class="cls-7" d="M1997.12,2654c-38.07,2.82-82.49-.71-101.52-4.94s-50.76-36,0-47.94,93.06-19,101.52,7S1997.12,2654,1997.12,2654Z"/><path class="cls-6" d="M2073.22,2560c-.13,140.16-107.87,116.32-107.87,116.32l.17-11.33,1.1-70.35,5.08-324.4,47.59-26.44C2023.52,2304.09,2073.35,2438.39,2073.22,2560Z"/><path class="cls-10" d="M2012.24,2619.59c-5.58,16.73-19.86,39.46-46.72,45.41l1.1-70.35C1989.38,2597,2016.18,2607.81,2012.24,2619.59Z"/><path class="cls-8" d="M1726,1954.56a14.76,14.76,0,0,1-20.8,17.47c-9.74-4.94-11-18.37-9.06-29.12s5.57-22.22,1.06-32.16c-3.45-7.61,16.33-25.49,10.5-31.47-10.15-10.43,22.3-11.88,24.77-26.22s-13.27-31.15.75-35.07c14.3-4-6.68,3.62,4-6.74,7.72-7.5,8.2-19.8,14.17-28.76,9.27-13.91,28.87-16.11,45.43-13.85s33.42,7.58,49.64,3.54c13.55-3.37,10.2,7.09,22.9,1.29,27.52-12.59,7.87,22.52,28.69,44.48s41,6,27,32.77c-5,9.63,9.6,68.84-.13,73.68C1875.65,1948.84,1726,1954.56,1726,1954.56Z"/><path class="cls-7" d="M1911.88,1830.24v179.54c0,30-25.16,57-57.28,59.87v65.26a64.77,64.77,0,0,1-19,46,61,61,0,0,1-5.51,4.91,65,65,0,0,1-105.46-50.86V1884.17l17.25-16.63,12.22-11.77,17.66-27.69,117.54,1.82Z"/><path class="cls-5" d="M1918.12,1866.78c-8,14.81-82.84,8.48-118.59-4.22s-19.52,20.78-46,25.24c-6.15,1-11.69-2-15.35-7.43l12.92-12.46,18.7-29.3,124.38,1.92C1913.13,1853.14,1918.12,1866.78,1918.12,1866.78Z"/><path class="cls-8" d="M1938.66,1865.18s-35.46,18-82.5-4.32c-30.87-14.66-66.65-21.42-74.39-15.12s-8.78,37.83-38.89,47.62c0,0,3.25,60.06-20.76,58.38s-10.84-95.06-10.84-95.06l58.07-29.77,63.74-13.33,60.45,7.33,21.17,10Z"/><path class="cls-11" d="M1854.6,2069.65V2097l-57.3-36.72A188.67,188.67,0,0,0,1854.6,2069.65Z"/><path class="cls-5" d="M1830.06,2185.77a65,65,0,0,1-105.46-50.86V1945.24l8.79,9.47c-.15,2.84-9.94,71.48,43.08,113.14C1823.85,2105.08,1836.8,2159.71,1830.06,2185.77Z"/><path class="cls-7" d="M1747.51,1915.39c-13.35-15.27-46.44-23.79-50.43,5.78s37.75,37.88,37.75,37.88Z"/><path class="cls-12" d="M1704.47,1886.79l235.1-14s.45-125.17-126.73-115.29C1689,1767.16,1704.47,1886.79,1704.47,1886.79Z"/><path class="cls-13" d="M1704.47,1886.79c3.29-.19,276.45,51.67,302.76,12,12.57-18.94-68.49-32.69-68.49-32.69l.83,6.73Z"/><polygon class="cls-6" points="1874.27 1817.8 1882.24 1832.22 1898.64 1833.82 1887.39 1845.86 1890.94 1861.94 1876.01 1854.97 1861.81 1863.31 1863.83 1846.96 1851.51 1836.03 1867.68 1832.9 1874.27 1817.8"/><rect class="cls-6" x="1810.59" y="1840.17" width="33.85" height="2.32" transform="translate(-84.26 87.65) rotate(-2.69)"/><rect class="cls-6" x="1821.89" y="1822.38" width="33.85" height="2.32" transform="translate(-83.42 88.16) rotate(-2.69)"/><rect class="cls-6" x="1822.69" y="1856.85" width="33.85" height="2.32" transform="translate(-85.03 88.23) rotate(-2.69)"/><path class="cls-7" d="M1549.06,2665.41c38.07,2.82,82.48-.7,101.52-4.93s50.76-36,0-47.94-93.06-19-101.52,7.05S1549.06,2665.41,1549.06,2665.41Z"/><path class="cls-6" d="M1585.37,2679.86s-107.73,23.84-107.86-116.32c0-28.13,2.62-56.94,6.75-85.34,12.31-84.69,37.88-165.9,45.36-215.16.87-5.67,1.48-10.91,1.82-15.69l21.53,12,26.06,14.46,6.07,388.87Z"/><path class="cls-10" d="M1585.1,2662.65c-13.33,3.15-56.56,8.65-79-19.8-17.7-22.4-22.33-90-21.8-164.65,12.31-84.69,37.88-165.9,45.36-215.16a98.66,98.66,0,0,1,23.35-3.72l26.06,14.46Z"/><rect class="cls-14" x="1506.05" y="2209.28" width="531.57" height="76.14"/><rect class="cls-12" x="1531.43" y="2285.42" width="480.81" height="334.17"/><rect class="cls-14" x="1831.94" y="2544.97" width="149.64" height="41.3"/><polygon class="cls-1" points="1803.67 2285.42 1799.01 2469.31 1773.49 2448.72 1740.01 2467.82 1744.63 2285.42 1803.67 2285.42"/><path class="cls-14" d="M888.83,2578.61c-47.93,4.57-72.9,61.51-71.83,109.65s17.73,96.21,9.39,143.63c-10.59,60.23-59.72,108.55-69,169-10.92,71.29,35.68,138.14,46.29,209.47,5.16,34.7,1.8,70.84,12.45,104.27,18,56.37,78.7,95.74,137.49,89.1s109.22-58.57,114.15-117.52c4.59-55-26-109-18.38-163.65,5.67-40.39,31.93-77.31,29.43-118-3-48.43-45.28-85.41-58-132.23s5.58-96.33,3.25-144.82c-4.17-87-48.17-150.24-135.23-148.88"/><path class="cls-15" d="M619.65,2981.08c-13.22,79.48,16.1,175.89,52.8,247.62a382.11,382.11,0,0,0,169.09,167c8.15,4,18.37,7.65,25.78,2.39,6.07-4.31,7.33-12.66,7.86-20.1a393.64,393.64,0,0,0-255.53-396.89"/><path class="cls-16" d="M931.73,3569.47c-.14,0-.82-1.54-2-4.61l-4.86-13.47c-4.08-11.74-10.2-28.65-18.06-49.42a1709.2,1709.2,0,0,0-69.53-158.89,1711.61,1711.61,0,0,0-85.7-150.82c-12-18.73-21.82-33.76-28.8-44.05l-7.87-11.95c-1.76-2.77-2.63-4.26-2.5-4.35s1.24,1.22,3.24,3.81l8.59,11.48c7.42,10,17.73,24.76,30,43.3A1464.23,1464.23,0,0,1,841.36,3341a1463.11,1463.11,0,0,1,68.48,159.81c7.49,21,13.16,38.06,16.72,50,1.64,5.57,3,10.12,4.05,13.74C931.5,3567.74,931.88,3569.42,931.73,3569.47Z"/><path class="cls-16" d="M925.45,3590.06c-.2,0-.15-2.46.11-7.15.37-5.4.85-12.19,1.44-20.51,1.44-17.81,3.23-43.57,5-75.36,3.67-63.58,6.17-151.25,2.81-247.07s-12.14-181.39-20.25-242.73c-4-30.69-7.61-55.43-10.3-72.46-1.17-8-2.12-14.5-2.87-19.7-.59-4.52-.81-6.94-.62-7s.81,2.2,1.77,6.59c1,5.1,2.34,11.5,3.94,19.33,3.38,16.81,7.59,41.38,12.15,72,9.17,61.13,18.52,146.79,22,242.92a2339.81,2339.81,0,0,1-4.53,247.88c-2.34,31.9-4.74,57.73-6.9,75.58-1,8.33-1.85,15.13-2.52,20.55C926.08,3587.6,925.65,3590.06,925.45,3590.06Z"/><path class="cls-15" d="M1024.7,3220.48c15.9,38.91,12.1,91.33,1.7,132.06A199.27,199.27,0,0,1,959.63,3457c-3.67,3-8.46,6-12.83,4.19-3.59-1.5-5.19-5.6-6.32-9.32a205.33,205.33,0,0,1,84.22-231.38"/><path class="cls-16" d="M933.79,3555.8a10.6,10.6,0,0,0,.48-2.57c.25-1.95.55-4.41.93-7.42.71-6.44,1.88-15.75,3.48-27.22a868.16,868.16,0,0,1,43.26-175.46c3.91-10.91,7.21-19.69,9.57-25.73,1.06-2.83,1.93-5.15,2.63-7a10.73,10.73,0,0,0,.76-2.5,11,11,0,0,0-1.21,2.31l-3,6.83c-2.63,5.94-6.16,14.64-10.29,25.49A758.43,758.43,0,0,0,937,3518.37c-1.39,11.53-2.31,20.88-2.74,27.36-.2,3-.36,5.49-.48,7.46A10.62,10.62,0,0,0,933.79,3555.8Z"/><path class="cls-17" d="M932.67,3750.62H909.33a118.87,118.87,0,0,1-118.85-118.85V3517.29h261v114.48a118.85,118.85,0,0,1-118.85,118.85Z"/><path class="cls-8" d="M3226.88,3627.2l-865.31-4c-104.07-.47-188.06-85.21-187.62-189.28l9.17-2169.35c.44-104.13,85.23-188.18,189.36-187.7l865.31,4c104.07.48,188.06,85.21,187.62,189.29l-9.17,2169.35C3415.8,3543.64,3331,3627.69,3226.88,3627.2Z"/><path class="cls-1" d="M2574.29,1285l-59-.25-146.84-.64c-72.92-.32-132.3,55.3-132.61,124.22l-9,2001c-.31,68.88,58.51,125,131.39,125.28l863.59,3.76c72.92.32,132.3-55.3,132.61-124.22l8.95-2000.95c.31-68.88-58.51-125-131.39-125.28l-167.77-.73Z"/><rect class="cls-18" x="2610.26" y="3444.68" width="378.84" height="28.45" rx="5.5"/><circle class="cls-1" cx="2630.34" cy="1188.43" r="33.62"/><rect class="cls-1" x="2717.59" y="1163.22" width="363.33" height="50.43" rx="9.75"/><path class="cls-14" d="M1979.32,1673.59a119.55,119.55,0,0,0,239.09,0Z"/><path class="cls-12" d="M2218.74,1673.59a119.55,119.55,0,0,0,239.1,0Z"/><path class="cls-14" d="M2458.16,1673.59a119.55,119.55,0,0,0,239.1,0Z"/><path class="cls-12" d="M2697.58,1673.59a119.55,119.55,0,0,0,239.1,0Z"/><path class="cls-14" d="M2937,1673.59a119.55,119.55,0,0,0,239.1,0Z"/><path class="cls-12" d="M3176.42,1673.59a119.55,119.55,0,0,0,239.1,0Z"/><path class="cls-14" d="M3415.84,1673.59a119.55,119.55,0,0,0,239.1,0Z"/><polygon class="cls-12" points="2368.45 1284.11 2218.73 1673.58 1979.32 1673.58 2242.41 1284.11 2368.45 1284.11"/><polygon class="cls-12" points="3176.1 1673.58 2937 1673.58 2899.25 1286.44 2697.57 1285.56 2697.57 1673.58 2457.82 1673.58 2515.28 1284.76 2368.45 1284.11 3098.47 1284.11 3176.1 1673.58"/><polygon class="cls-12" points="3654.94 1673.58 3415.84 1673.58 3243.28 1287.81 3098.47 1284.11 3378.94 1284.11 3654.94 1673.58"/><polygon class="cls-14" points="2515.28 1284.76 2457.82 1673.58 2218.73 1673.58 2368.45 1284.11 2515.28 1284.76"/><polygon class="cls-14" points="2937 1673.58 2697.57 1673.58 2697.57 1285.56 2899.25 1286.44 2937 1673.58"/><polygon class="cls-14" points="3415.84 1673.58 3176.1 1673.58 3098.47 1284.11 3243.28 1287.81 3415.84 1673.58"/><rect class="cls-4" x="2352.38" y="2935.06" width="413.87" height="59.28"/><rect class="cls-3" x="2372.14" y="2994.35" width="374.35" height="260.18"/><rect class="cls-4" x="2606.1" y="3196.43" width="116.5" height="32.16"/><polygon class="cls-4" points="2584.09 2994.34 2580.47 3137.52 2560.59 3121.49 2534.53 3136.36 2538.13 2994.34 2584.09 2994.34"/><rect class="cls-4" x="2362.8" y="2020.51" width="437.05" height="407.55"/><rect class="cls-4" x="2838.02" y="2077.54" width="437.05" height="37.5"/><rect class="cls-4" x="2838.02" y="2162.87" width="437.05" height="37.5"/><rect class="cls-4" x="2836.73" y="2248.21" width="437.05" height="37.5"/><rect class="cls-4" x="2836.73" y="2333.55" width="437.05" height="37.5"/><rect class="cls-4" x="2838.02" y="2994.35" width="437.05" height="37.5"/><rect class="cls-4" x="2838.02" y="3079.68" width="437.05" height="37.5"/><rect class="cls-4" x="2836.73" y="3165.02" width="437.05" height="37.5"/><path class="cls-4" d="M2850.14,2647.35v47.89a29.06,29.06,0,0,1-29,29.07H2636.26a29.06,29.06,0,0,0,29.06-29.07v-47.89a29.06,29.06,0,0,0-29.06-29.07H2821.1A29.06,29.06,0,0,1,2850.14,2647.35Z"/><rect class="cls-12" x="2352.37" y="2618.28" width="312.95" height="106.02" rx="29.07"/><path class="cls-1" d="M2422.09,2686.76q-6.32,2.37-16,2.37a4,4,0,0,1-2.91-1.36,4.19,4.19,0,0,1-1.29-2.91v-28.77c-.06-1.23-.1-2.46-.14-3.69a19.07,19.07,0,0,1,.14-3.53q.38-2.55,4.75-3.09a27.24,27.24,0,0,1,6.84-.6,16.76,16.76,0,0,1,9.82,3.31q5.52,3.86,5.51,9.64a11.09,11.09,0,0,1-1.14,5.26,13.52,13.52,0,0,1-3.12,3.72,13.38,13.38,0,0,1,4.67,3.86,9.13,9.13,0,0,1,2.31,5.72q0,3.61-3.94,6.84A19.59,19.59,0,0,1,2422.09,2686.76Zm-8.6-34.22c-2.34,0-3.74,0-4.21.05l0,5.75,0,5.7a19,19,0,0,0,3.72.19q8.3-.64,8.3-6.1,0-1.93-2.44-3.72A8.83,8.83,0,0,0,2413.49,2652.54Zm3.17,19.19c-1.64,0-4.11-.07-7.38-.19v10.15a46,46,0,0,0,10.12-1.79c3.19-.91,4.76-1.89,4.73-2.93q-.09-2.1-3.07-3.72A11.51,11.51,0,0,0,2416.66,2671.73Z"/><path class="cls-1" d="M2462.47,2672.13c0,1.22,0,3,0,5.49s0,4.27,0,5.48c0,.38,0,.94.09,1.7s.1,1.31.1,1.69a3.23,3.23,0,0,1-1.1,2.51,3.88,3.88,0,0,1-2.7,1,3.42,3.42,0,0,1-3.28-2,20.76,20.76,0,0,1-7.2,1.27,12.18,12.18,0,0,1-6.49-1.62,7.51,7.51,0,0,1-3.52-5.42,78.21,78.21,0,0,1-1.06-12.07,46,46,0,0,1,.81-8,3.35,3.35,0,0,1,3.67-3,3.92,3.92,0,0,1,2.68,1,3.18,3.18,0,0,1,1.12,2.5,27.8,27.8,0,0,1-.4,3.72,27.5,27.5,0,0,0-.39,3.85q0,3.8.26,6.65a27.5,27.5,0,0,0,.77,4.7,9.45,9.45,0,0,0,1.32.46,5.33,5.33,0,0,0,1.23.16,28.52,28.52,0,0,0,6.63-.87c0-1.39,0-3,0-4.75q-.06-3.18-.06-4.56a78,78,0,0,1,.52-9.61,3.32,3.32,0,0,1,3.69-3.23,4,4,0,0,1,2.74,1,3,3,0,0,1,1.06,2.53C2462.64,2669.47,2462.47,2672.66,2462.47,2672.13Z"/><path class="cls-1" d="M2497.35,2664.89q-3,6.15-9.36,19.35-3.48,7.08-5.29,11.75-.57,1.68-1.79,5a3.51,3.51,0,0,1-3.48,2.55,4,4,0,0,1-2.71-1,3.18,3.18,0,0,1-1.17-2.52q0-2.52,5.75-15-3-5.88-9.47-17.34c-.43-.69-.88-1.39-1.33-2.09a4.55,4.55,0,0,1-.73-2.28,3.45,3.45,0,0,1,1.17-2.58,3.76,3.76,0,0,1,2.68-1.11,3.3,3.3,0,0,1,2.8,1.33,103.86,103.86,0,0,1,9,15.44q2.91-6.43,3.53-7.76c1.29-2.7,2.54-5.07,3.77-7.11a3.58,3.58,0,0,1,3.21-2,4.06,4.06,0,0,1,2.71,1,3.21,3.21,0,0,1,1.2,2.53A4.06,4.06,0,0,1,2497.35,2664.89Z"/><path class="cls-1" d="M2552.15,2689.75a3.35,3.35,0,0,1-3.72-3.29q-.37-2.79-.76-5.61a41.94,41.94,0,0,1-.4-5.62c0-.47,0-1.28.09-2.42s.1-1.94.1-2.41c0-.13,0-.45.05-1s0-.93,0-1.26q0-2.25-1.08-2.25c-1.55,0-3.07,1-4.56,3a22.32,22.32,0,0,0-3.5,7.57c0,.62-.11,1.43-.23,2.45a20.64,20.64,0,0,0-.15,2.45,22.72,22.72,0,0,1-.18,2.35,22.07,22.07,0,0,0-.17,2.35,3.51,3.51,0,0,1-1.08,2.63,4,4,0,0,1-5.39,0,3.51,3.51,0,0,1-1-2.61c0-.51-.06-1.29-.17-2.33s-.16-1.82-.16-2.34q0-2.66.38-7.38t.38-7.38c0-.55,0-1.38-.09-2.48s-.1-1.91-.1-2.44a3.32,3.32,0,0,1,1.1-2.56,3.85,3.85,0,0,1,2.7-1q3.55,0,3.8,4.26l0,.3q4-4,8.36-4,5.13,0,7.08,4.29,1.3,2.88,1.3,8.6v1.93c0,.83,0,1.42,0,1.77a32.76,32.76,0,0,0,.58,5.45,33.06,33.06,0,0,1,.59,5.43,3.33,3.33,0,0,1-1.09,2.53A3.84,3.84,0,0,1,2552.15,2689.75Z"/><path class="cls-1" d="M2573.82,2689.42a12.1,12.1,0,0,1-8.63-3.44,13.91,13.91,0,0,1-4.15-10.07,16.62,16.62,0,0,1,3.28-10.7,13.52,13.52,0,0,1,11.49-5.54,10.19,10.19,0,0,1,8.63,4.35,15.86,15.86,0,0,1,2.87,9.69,17.33,17.33,0,0,1-3.36,10.75A12.07,12.07,0,0,1,2573.82,2689.42Zm1.63-22.58a5.88,5.88,0,0,0-5.26,3,11,11,0,0,0-1.63,6,6.52,6.52,0,0,0,1.84,5,4.85,4.85,0,0,0,3.42,1.39,5.82,5.82,0,0,0,4.1-1.61,7.09,7.09,0,0,0,2.12-5.07Q2580.4,2666.87,2575.45,2666.84Z"/><path class="cls-1" d="M2629.37,2663.91q-2.85,10.64-5.73,19.33a19.16,19.16,0,0,1-2.66,5,4,4,0,0,1-3.47,1.76c-2.28,0-4.07-2.23-5.38-6.59a83.93,83.93,0,0,1-1.73-9.32,17.41,17.41,0,0,0-.71,1.61q-1.41,3.36-4.12,10.45a4.16,4.16,0,0,1-1.22,1.82,4,4,0,0,1-3.4,1.9c-.85,0-1.74-.73-2.68-2.28a20.65,20.65,0,0,1-2.42-6.08q-.84-3.37-2.61-14.66a27.11,27.11,0,0,1-.38-3.83,3.18,3.18,0,0,1,1.13-2.48,4,4,0,0,1,2.7-1,3.37,3.37,0,0,1,3.61,2.9,32.92,32.92,0,0,1,.6,3.75c.21,2.13.35,3.39.4,3.77q.36,2.12,1.09,6.92,2-5.51,4.61-13.71c.75-2.35,2.14-3.53,4.19-3.53s3.32,1.32,4,3.94c.45,1.85.93,4.24,1.44,7.19q1.11,6.43,1.35,7.66.26-.84,4.27-16.51c.39-1.55,1.52-2.33,3.39-2.33a4.09,4.09,0,0,1,2.73,1,3.18,3.18,0,0,1,1.18,2.5A3.45,3.45,0,0,1,2629.37,2663.91Z"/><path class="cls-8" d="M3675.06,3318.74h-7.76v-79.23a91.21,91.21,0,0,0-182.42,0v73.24h-7.76v-73.24a99,99,0,1,1,197.94,0Z"/><polyline class="cls-19" points="3771.38 3238.69 3811.34 3654.12 3293.98 3653.93 3337.37 3238.69"/><polygon class="cls-8" points="3337.37 3238.69 3359.72 3259.59 3336.2 3288.96 3294.2 3654.14 3337.37 3238.69"/><polygon class="cls-20" points="3359.72 3259.59 3359.72 3303.54 3336.16 3288.89 3359.72 3259.59"/><polygon class="cls-8" points="3771.3 3238.76 3748.96 3259.66 3770.09 3289.01 3812.26 3654.33 3771.3 3238.76"/><polygon class="cls-20" points="3748.96 3259.66 3748.96 3303.6 3770.09 3289.01 3748.96 3259.66"/><polygon class="cls-17" points="3812.22 3654.12 3294.2 3654.12 3336.2 3250.32 3772.47 3250.32 3812.22 3654.12"/><path class="cls-8" d="M3472.23,3312.25a18.08,18.08,0,1,1-21.72-13.5A18.08,18.08,0,0,1,3472.23,3312.25Z"/><path class="cls-8" d="M3662.41,3314.59a18.08,18.08,0,1,1-21.72-13.51A18.09,18.09,0,0,1,3662.41,3314.59Z"/><path class="cls-8" d="M3647.8,3318.74H3640v-79.23a91.21,91.21,0,1,0-182.41,0v73.24h-7.76v-73.24a99,99,0,1,1,197.93,0Z"/><path class="cls-19" d="M3812.23,1922.69c-32.49-44.7-79.74-65.53-129-65.53,0,0-120.74,0-156.49,108.08-13.18,39.84-10.26,83.09,5.73,121.88a223.33,223.33,0,0,0,22.55,42c31.18,45,128.21,168,128.21,168h21.09c27.08-37.62,95.27-162.58,115.69-202.64C3845.61,2044.13,3849.55,1974,3812.23,1922.69Zm-108.91,199.94a103.14,103.14,0,1,1,103.14-103.14A103.14,103.14,0,0,1,3703.32,2122.63Z"/><path class="cls-17" d="M3833.47,1923.54c-32.5-44.7-79.75-65.54-129-65.54,0,0-120.74,0-156.49,108.09-13.18,39.83-10.26,83.09,5.73,121.88a223.44,223.44,0,0,0,22.56,42c31.17,45,128.2,168,128.2,168s112.1-154.22,136.78-202.63C3866.84,2045,3870.78,1974.86,3833.47,1923.54Zm-130,199.93a102.37,102.37,0,0,1-103.14-103.13c.21-57,46.18-103.13,103.14-103.13a103.13,103.13,0,1,1,0,206.26Z"/><path class="cls-4" d="M3896,2133.38h0l96.62-28.36,0,.07,0,0,47.48,28.34,13.41,8h0a42.83,42.83,0,0,0,2.27,47.1,42.47,42.47,0,0,0,20.32,15,42.81,42.81,0,0,0,50.76-18.34h0l13.41,8,47.47,28.34,0,0,.06,0,20.9,98.5h0l3.31,15.6-73.79,15.66-3.31-15.6h0l-4-18.92-116.85,195.76L3819,2396.07l116.85-195.75-18.55,5.44h0l-15.31,4.49-21.24-72.38Z"/></g></g></svg>