<svg xmlns="http://www.w3.org/2000/svg" xmlns:xlink="http://www.w3.org/1999/xlink" viewBox="0 0 5000 5000"><defs><style>.cls-1{fill:none;}.cls-2{fill:#fff;}.cls-3{fill:url(#linear-gradient);}.cls-4{fill:#0d1d21;}.cls-5{fill:#fcac88;}.cls-6{fill:#ffbe9d;}.cls-7{fill:#1a2e35;}.cls-8{fill:#385a64;}.cls-9{fill:#224449;}.cls-10{fill:#e8e8e8;}.cls-11{fill:#d1d1d1;}.cls-12{fill:#c6c6c6;}.cls-13{fill:#263238;}.cls-14{fill:#e8505b;}.cls-15{fill:#d32a3b;}.cls-16{fill:#37484f;}.cls-17{fill:#fc986d;}.cls-18{fill:#ff4f5a;}.cls-19{fill:#d83e48;}.cls-20{fill:#1b3638;}.cls-21{clip-path:url(#clip-path);}.cls-22{fill:#070f11;}.cls-23{fill:#ff7b88;}</style><linearGradient id="linear-gradient" x1="2691.21" y1="3928.1" x2="2255.62" y2="2259.45" gradientUnits="userSpaceOnUse"><stop offset="0" stop-color="#fff"/><stop offset="1" stop-color="#e8e8e8"/></linearGradient><clipPath id="clip-path"><circle class="cls-1" cx="2591.71" cy="1894.5" r="315.06"/></clipPath></defs><title>09</title><g id="Layer_2" data-name="Layer 2"><g id="Layer_1-2" data-name="Layer 1"><rect class="cls-2" width="5000" height="5000"/><path class="cls-3" d="M1184.11,3899.38c-330.81,0-586.11-122.5-324.45-200.38s169.54-418.36,59.81-635.07,158.4-239.39,483.26-376.28,53.53-109.59,61.94-454.08,479.45-514.62,837.18-491.9,754.84,320.42,1101,188.64,480.22-43.18,632.11,263.19S4437.8,2897,4213.44,3105s-313.32,539.72-177.46,627S4498.31,3938,4146.54,3938,1347.46,3899.38,1184.11,3899.38Z"/><path class="cls-4" d="M3753.32,3447.88V3342.69l-8.78-23.37s.56-153.56.4-228.85c8.38-31.9,169.37-41.8,169.37-41.8v-30.81s1.23-39.44-51.77-43.14-238.34-.33-238.34-.33-55-1.4-55,33.61v41.9c126.14,7.48,145.85,40.56,145.86,40.57L3714,3320.1l-8.74,24.48-.37,103.3,0,9.74-1.31,366.18-95.93,63.2h251.64l-105.95-63.2V3447.88Z"/><path class="cls-5" d="M3362.09,3921.1l248.45,8.85a18.76,18.76,0,0,0,19.14-15.37c2-10.85,3.8-35.74-1.92-58.93,1-6.88,5.6-37.86,12.49-85-43.14,4.59-86.52,9.63-129.89,12.28l-.87,29.26-1.21,40.78a358.4,358.4,0,0,1-60.05,30c-26.41,10.17-57.55,17.94-84.78,13.43a9.62,9.62,0,0,0-9.26,3.26c-2.91,3.72-5.14,9.8.63,17.65A9.37,9.37,0,0,0,3362.09,3921.1Z"/><path class="cls-4" d="M3384.47,3934.51s55.9,2,114.51,3c62.61,1,128.33.89,132.39-4.17,7.88-9.78-.47-63.21-.47-63.21-30.85,18-64.15,22-98.57,24.45-21.62,1.55-43.69,2.46-65.86,5.83a44.88,44.88,0,0,1-42.42-18c-19,2.8-36.38,7.67-55.31,10.47-3.95.57-7.94,1.16-11.53,2.85s-6.8,4.67-7.8,8.5c-1.23,4.8,1.14,9.78,4.14,13.72A43,43,0,0,0,3384.47,3934.51Z"/><path class="cls-6" d="M3448.23,3883.06c42.56,5.32,85-2.62,99-16.36,15.12-14.81,17.21-46.8-16.42-51-8-1-15.14-2.34-21.34-3.48l-1.21,40.78A358.4,358.4,0,0,1,3448.23,3883.06Z"/><path class="cls-7" d="M3384.47,3934.51s55.9,2,114.51,3c9.36-13.95,21.86-31.48,33.35-42.93-21.62,1.55-43.69,2.46-65.86,5.83a44.88,44.88,0,0,1-42.42-18c-19,2.8-36.38,7.67-55.31,10.47-3.95.57-7.94,1.16-11.53,2.85s-6.8,4.67-7.8,8.5c-1.23,4.8,1.14,9.78,4.14,13.72A43,43,0,0,0,3384.47,3934.51Z"/><path class="cls-5" d="M3434.36,3601l209.41-134a18.75,18.75,0,0,0,7-23.52c-4.54-10.05-17.19-31.56-35.08-47.39-3.07-6.24-16.93-34.33-38-77-32.88,28.32-65.7,57.12-99.86,84l15.92,24.56,22.19,34.23a358.38,358.38,0,0,1-32.31,58.87c-15.94,23.38-37.14,47.48-62.1,59.25a9.65,9.65,0,0,0-5.77,7.95c-.28,4.72,1.35,11,10.56,14.16A9.33,9.33,0,0,0,3434.36,3601Z"/><path class="cls-4" d="M3460.4,3599.34s47.13-30.13,95.89-62.67c52.09-34.75,106.06-72.23,106.52-78.71.93-12.52-36.32-51.72-36.32-51.72-15.16,32.31-40.26,54.56-67.18,76.15-16.9,13.57-34.54,26.87-50.86,42.25a44.89,44.89,0,0,1-45.14,9.3c-14,13.08-25.56,27-39.55,40.06-2.92,2.71-5.86,5.47-7.86,8.91s-2.94,7.7-1.58,11.42c1.71,4.65,6.49,7.4,11.2,8.94A43,43,0,0,0,3460.4,3599.34Z"/><path class="cls-6" d="M3483.59,3520.76c38-19.83,68.42-50.48,72.15-69.76,4-20.79-12.46-48.29-42.5-32.61-7.18,3.74-13.78,6.68-19.53,9.27l22.19,34.23A358.38,358.38,0,0,1,3483.59,3520.76Z"/><path class="cls-7" d="M3460.4,3599.34s47.13-30.13,95.89-62.67c-.24-16.79.08-38.33,3-54.28-16.9,13.57-34.54,26.87-50.86,42.25a44.89,44.89,0,0,1-45.14,9.3c-14,13.08-25.56,27-39.55,40.06-2.92,2.71-5.86,5.47-7.86,8.91s-2.94,7.7-1.58,11.42c1.71,4.65,6.49,7.4,11.2,8.94A43,43,0,0,0,3460.4,3599.34Z"/><path class="cls-8" d="M3819.46,2777.39l-106.64,213.67s-21,4.53-51.17,11.21c-29.52,6.52-67.83,15.08-103.81,23.41-56,13-106.45,25.39-109.58,28.74C3441,3062.13,3611.62,3352,3611.62,3352l-102.41,64.82-24.79,15.7s-183.58-303.32-210.11-404.81c-11-42.1,40.25-82.91,104.46-116.37,92-48,210.63-80.88,210.63-80.88Z"/><path class="cls-9" d="M3819.46,2777.39l-106.64,213.67s-21,4.53-51.17,11.21c16.4-29.24,35.43-69.84,21.56-80.25-20.44-15.32-192.38-23.19-304.44-10.7,92-48,210.63-80.88,210.63-80.88Z"/><path class="cls-9" d="M3611.62,3352l-102.41,64.82c-12.68-64-95.17-366.13-95.53-372.32-.33-6.36,55.17-10.72,144.16-18.8-56,13-106.45,25.39-109.58,28.74C3441,3062.13,3611.62,3352,3611.62,3352Z"/><path class="cls-8" d="M3897,3055.85,3703.69,3355l-51.31,455.18-106.25-9.47-61.71-5.49s42.3-469.52,56.84-504.34c11.17-26.72,97.86-193.39,151-295.28,16.09-30.85,29.08-55.75,36-69.07,29.77-57.33,53.72-120.41,78.22-131.31s136.2,20.71,136.2,20.71C3947.89,2848.31,3977.28,2931.64,3897,3055.85Z"/><path class="cls-9" d="M3897,3055.85,3703.69,3355l-51.31,455.18-106.25-9.47s24.28-455.38,113.63-560.36,248.42-251.79,200.27-303.39c-43.92-47.08-68.43-30.53-167.78,58.64,16.09-30.85,29.08-55.75,36-69.07,29.77-57.33,53.72-120.41,78.22-131.31s136.2,20.71,136.2,20.71C3947.89,2848.31,3977.28,2931.64,3897,3055.85Z"/><path class="cls-4" d="M3970.41,1520.47h-260.2a32.23,32.23,0,0,0-32.24,32.24v132.4a32.23,32.23,0,0,0,32.24,32.24h94.47l30.88,53.49a13.47,13.47,0,0,0,23.32,0l30.88-53.49h80.65a32.24,32.24,0,0,0,32.24-32.24v-132.4A32.24,32.24,0,0,0,3970.41,1520.47Z"/><circle class="cls-2" cx="3761.35" cy="1621.21" r="19.57"/><circle class="cls-2" cx="3840.31" cy="1621.21" r="19.57"/><circle class="cls-2" cx="3919.27" cy="1621.21" r="19.57"/><polygon class="cls-4" points="4376.26 2879.39 4157.32 3885.95 4131.73 3885.95 4353.51 2879.39 4376.26 2879.39"/><polyline class="cls-4" points="4151.63 2879.39 4376.26 3885.95 4354.29 3885.95 4131.73 2879.39 4151.63 2879.39"/><polygon class="cls-4" points="4334.06 3752.38 4176.29 3752.38 4176.29 3731.93 4327.28 3731.93 4334.06 3752.38"/><polygon class="cls-4" points="3074.92 2879.39 2855.99 3888.88 2830.4 3888.88 3052.18 2879.39 3074.92 2879.39"/><polyline class="cls-4" points="2850.3 2879.39 3074.92 3888.88 3052.96 3888.88 2830.4 2879.39 2850.3 2879.39"/><polygon class="cls-4" points="3032.73 3754.93 2874.95 3754.93 2874.95 3734.42 3025.94 3734.42 3032.73 3754.93"/><rect class="cls-4" x="2723.46" y="2863.05" width="1776.54" height="17.14"/><rect class="cls-10" x="500" y="3468.87" width="477.13" height="367.25"/><rect class="cls-2" x="798.21" y="3754.12" width="148.49" height="45.39"/><polygon class="cls-2" points="770.15 3468.87 765.53 3670.97 740.2 3648.34 706.98 3669.33 711.57 3468.87 770.15 3468.87"/><rect class="cls-11" x="977.13" y="3468.87" width="477.13" height="367.25"/><rect class="cls-2" x="1275.34" y="3754.12" width="148.49" height="45.39"/><polygon class="cls-2" points="1247.29 3468.87 1242.66 3670.97 1217.33 3648.34 1184.11 3669.33 1188.7 3468.87 1247.29 3468.87"/><rect class="cls-12" x="751.19" y="3157.59" width="404.42" height="311.28"/><rect class="cls-2" x="1003.95" y="3399.37" width="125.86" height="38.48"/><polygon class="cls-2" points="980.17 3157.59 976.25 3328.89 954.78 3309.71 926.63 3327.5 930.51 3157.59 980.17 3157.59"/><path class="cls-7" d="M3072.51,3902.27l-963.68-4.46c-115.9-.52-209.44-94.9-208.95-210.8l10.21-2416c.49-116,94.92-209.57,210.89-209l963.69,4.45c115.9.54,209.43,94.91,208.94,210.81l-10.21,2416C3282.91,3809.21,3188.48,3902.81,3072.51,3902.27Z"/><path class="cls-2" d="M2345.74,1293.81l-65.71-.29-163.53-.71c-81.22-.35-147.35,61.59-147.7,138.34l-10,2228.43c-.34,76.71,65.17,139.17,146.34,139.52l961.76,4.2c81.21.35,147.34-61.59,147.69-138.34l10-2228.44c.34-76.71-65.16-139.16-146.33-139.51l-186.85-.82Z"/><rect class="cls-13" x="2385.79" y="3699" width="421.91" height="31.68" rx="5.5"/><circle class="cls-2" cx="2408.16" cy="1186.25" r="37.44"/><rect class="cls-2" x="2505.32" y="1158.17" width="404.63" height="56.16" rx="9.75"/><polygon class="cls-7" points="3220.92 2789.08 3219.09 3301.49 3217.79 3652.7 2420.2 3652.7 2420.2 2789.08 3220.92 2789.08"/><polygon class="cls-7" points="3220.92 2718.27 3218.94 2780.56 3217.54 2823.25 2357.02 2823.25 2357.02 2718.27 3220.92 2718.27"/><polygon class="cls-8" points="3217.69 2978.17 3216.48 3251.72 3215.63 3439.2 2692.55 3439.2 2692.55 2978.17 3217.69 2978.17"/><path class="cls-5" d="M1555.24,3636.66s-11.87,29.9-24.28,61.85c-12.87,33.18-26.32,68.51-27.71,74.9a16.39,16.39,0,0,1-8.77,11.25c-5.93,3.25-14,4.38-21.82,4.9-13.63.9-45.87-29.52-45.87-29.52l9.91-120.74Z"/><path class="cls-6" d="M1531,3698.51c-12.87,33.18-26.32,68.51-27.71,74.9a16.39,16.39,0,0,1-8.77,11.25C1479,3765.66,1490.64,3729.35,1531,3698.51Z"/><path class="cls-14" d="M1503.64,3774.3c8.87-3.77,2.91,26,10.15,32.09s16.38,10.07,25.37,13.91l54.8,23.47c11.72,5,23.56,10.1,33.75,17.31s18.74,16.85,21.65,28.07c.43,1.67.7,3.52-.3,5-.88,1.27-2.54,1.9-4.11,2.43-20.36,6.85-42.71,8.11-64.6,7.08-11.75-.55-23.46-1.73-35.14-3.06-12.52-1.43-25-3-37.5-4.61l-13.36-1.71-83.58-10.66c-6.62-.84-14.18-2.23-17.51-7.42-1.85-2.9-1.92-6.38-1.84-9.68a161.47,161.47,0,0,1,19.11-71.8c6-11.33,13.55-22.28,16.26-34.63C1426.79,3760.05,1490.08,3780.05,1503.64,3774.3Z"/><path class="cls-15" d="M1508.76,3794.84q-12.55,14.52-26.45,28.07c-1.71,1.66,1,4.22,2.75,2.54q14.25-13.87,27.11-28.75c1.55-1.8-1.86-3.65-3.41-1.86Z"/><path class="cls-15" d="M1530.11,3809.68a146.37,146.37,0,0,0-25.27,37.65c-1,2.09,2.87,3.11,3.83,1a143.52,143.52,0,0,1,24.85-36.83c1.61-1.76-1.81-3.6-3.41-1.86Z"/><path class="cls-15" d="M1553.77,3821.31a105.33,105.33,0,0,0-13.66,30.11c-.6,2.18,3.24,3.23,3.83,1a102.28,102.28,0,0,1,13.23-29.29c1.28-2-2.12-3.82-3.4-1.86Z"/><path class="cls-15" d="M1571.68,3830.75a77.82,77.82,0,0,0-8.33,26.05c-.3,2.24,3.72,2.38,4,.16a75,75,0,0,1,8.14-25.17c1.07-2-2.77-3.06-3.83-1Z"/><path class="cls-2" d="M1632.3,3861.57a12.61,12.61,0,0,1-.75,8.71c-2.21,4.57-6.63,8-11.35,10.67a65.41,65.41,0,0,1-33.75,8.2c-14.83-.42-28.92-5.67-43.26-9.16-36.2-8.8-74.43-6.37-111.51-11.24-7.94-1.05-16.48-2.75-21.7-8.22-3.54-3.71-5-8.62-5.81-13.41a65.74,65.74,0,0,1,6-40.13c3.37-6.79,7.92-13.09,11-20,2.72-6,4.1-12.75,2.6-19.08-3.61,8.74-9.07,17-13.72,25.38a157.35,157.35,0,0,0-19.75,70.29c-.12,3.23-.08,6.63,1.74,9.45,3.26,5,10.79,6.34,17.38,7.12l83.21,9.8,13.3,1.57c12.44,1.46,24.88,2.93,37.34,4.23,11.63,1.21,23.29,2.28,35,2.73,21.81.84,44.1-.55,64.47-7.39,1.57-.53,3.23-1.17,4.12-2.41,1-1.41.75-3.22.34-4.85C1645,3875.33,1639.43,3867.79,1632.3,3861.57Z"/><path class="cls-5" d="M1989,3630.47s-14.79,28.91-30.32,59.81c-16.11,32.08-33,66.28-35,72.54a17,17,0,0,1-9.86,10.55c-6.23,2.79-14.37,3.31-22.22,3.24-13.67-.13-42.77-32.85-42.77-32.85l21.84-119.55Z"/><path class="cls-6" d="M1958.65,3690.28c-16.11,32.08-33,66.28-35,72.54a17,17,0,0,1-9.86,10.55C1900.2,3753.27,1915.42,3718,1958.65,3690.28Z"/><path class="cls-14" d="M1924,3763.86c9.22-3.09.36,26.2,7,32.86s15.35,11.31,23.92,15.84l52.32,27.63c11.19,5.91,22.49,11.89,31.94,19.87s17,18.28,18.82,29.72c.26,1.69.35,3.57-.78,4.93-1,1.2-2.72,1.71-4.34,2.12-21,5.3-43.36,4.85-65.08,2.16-11.65-1.45-23.2-3.52-34.72-5.74-12.33-2.37-24.62-4.92-36.91-7.46l-13.15-2.72-82.25-17c-6.52-1.35-13.92-3.31-16.73-8.75-1.56-3-1.29-6.52-.88-9.82a165.36,165.36,0,0,1,26.09-70.33c7.14-10.86,15.68-21.24,19.6-33.38C1848.77,3743.77,1909.88,3768.58,1924,3763.86Z"/><path class="cls-15" d="M1927,3784.58q-13.95,13.52-29.14,26c-1.87,1.53.6,4.29,2.49,2.74q15.57-12.77,29.86-26.62c1.73-1.67-1.49-3.76-3.21-2.1Z"/><path class="cls-15" d="M1946.78,3801a151.28,151.28,0,0,0-28.91,35.61c-1.17,2,2.55,3.32,3.72,1.32a148.44,148.44,0,0,1,28.4-34.83c1.78-1.63-1.44-3.72-3.21-2.1Z"/><path class="cls-15" d="M1969.19,3814.33a108.73,108.73,0,0,0-16.59,29c-.81,2.13,2.9,3.46,3.72,1.33a105.27,105.27,0,0,1,16.08-28.2c1.46-1.85-1.74-4-3.21-2.1Z"/><path class="cls-15" d="M1986.1,3825.07a79.41,79.41,0,0,0-10.87,25.34c-.52,2.2,3.46,2.64,4,.45a76.88,76.88,0,0,1,10.61-24.46c1.27-2-2.46-3.26-3.72-1.33Z"/><path class="cls-2" d="M2043.44,3860.32a12.7,12.7,0,0,1-1.61,8.62c-2.66,4.4-7.4,7.48-12.36,9.79a66.33,66.33,0,0,1-34.44,5.63c-14.73-1.52-28.25-7.82-42.19-12.37-35.2-11.47-73.53-11.92-110-19.56-7.8-1.63-16.15-4-20.81-9.82-3.15-4-4.12-9-4.45-13.78a66.65,66.65,0,0,1,9.94-39.54c4-6.51,9.19-12.45,13-19.08,3.3-5.81,5.34-12.41,4.47-18.82-4.46,8.43-10.71,16.21-16.18,24.25a160.67,160.67,0,0,0-26.65,68.55c-.43,3.21-.74,6.6.8,9.54,2.75,5.27,10.12,7.14,16.61,8.4l81.93,16,13.1,2.56c12.24,2.39,24.49,4.78,36.77,7,11.47,2.08,23,4,34.6,5.34,21.65,2.48,44,2.77,65-2.53,1.62-.41,3.34-.91,4.35-2.09s1.07-3.15.82-4.8C2054.77,3875,2049.93,3867.05,2043.44,3860.32Z"/><path class="cls-13" d="M2074.26,3213.41c-.29,45.7-14.44,174.49-40.6,283.44-19.9,82.85-22.46,136.86-32.6,163-3.11,8.09-4.89,12.58-4.89,12.58l-181.81,12.9s5.58-13.52,14.62-35.93c39.56-98.33,80.46-378.78,71.51-429.24-5.15-29.07-26.68-81.68-48.08-129.31-24.24-53.91-48.32-101.5-48.32-101.5l-187.65,582v0l-29.76,92.31-3.67,11.4-27.42-1.92-.7-.06-31.76-2.22-13-.9-71.22-5-30.83-2.15,4.32-15.26,219.88-778.29,6.47-22.88s14.08-5.62,36.11-13.7c19.39-7.11,45-16.16,72.5-25,73.71-23.61,161.38-45.56,182.31-24.6,7,7,16.49,23.47,27.23,46.08.22.44.43.88.65,1.34v0c.59,1.21,1.16,2.46,1.75,3.72,15.11,32.47,32.49,76.31,49.07,123.11C2043.18,3055.54,2074.54,3166.66,2074.26,3213.41Z"/><path class="cls-16" d="M1877.42,3022.74c-1.16,8-10.49,33-25,68.08-24.24-53.91-48.32-101.5-48.32-101.5l-187.65,582c-4-44.55,185.45-631.61,185.45-631.61S1883.85,2978.84,1877.42,3022.74Z"/><path class="cls-4" d="M1989.45,3220.44c-.68,52.39-11.39,346-41.15,455.36l-133.94,9.5s97.11-403.21,86.13-465.17-96.4-230.81-96.4-230.81l-30.72-51.89L1510.13,3670l-102.05-7.14,230.67-816.43s49.85-19.87,108.61-38.68c73.71-23.61,161.38-45.56,182.31-24.6,7.53,7.57,17.9,25.93,29.63,51.17-11.07,9.8-25,20.46-39.67,31.9C1871.26,2904,1990.33,3155.21,1989.45,3220.44Z"/><polygon class="cls-13" points="1628.13 3667.54 1603.76 3716.56 1598.19 3727.78 1520.01 3722.35 1408.13 3714.56 1342.96 3710.03 1365.42 3643.27 1444.38 3650.55 1514.15 3657 1539.38 3659.34 1628.13 3667.54"/><polygon class="cls-16" points="1628.13 3667.54 1603.76 3716.56 1539.38 3659.34 1628.13 3667.54"/><polygon class="cls-13" points="2045.63 3662.52 2023.3 3712.28 2018.2 3723.66 1939.85 3720.7 1827.73 3716.43 1762.4 3713.96 1782.08 3646.53 1861.28 3651.32 1931.28 3655.58 1956.59 3657.13 2045.63 3662.52"/><polygon class="cls-16" points="2045.63 3662.52 2023.3 3712.28 1956.59 3657.13 2045.63 3662.52"/><path class="cls-16" d="M2074.26,3213.41c-.29,45.7-3,177.91-40.6,283.44-21.69-33.59,36.22-194.84,17.68-303.24-16.26-95.06-49-162.24-43-236.18C2043.18,3055.54,2074.54,3166.66,2074.26,3213.41Z"/><path class="cls-6" d="M2315.65,2499.3c-.81.19-1.62.42-2.49.62-14.6,3.57-42.8,6.9-66.55,9.27a0,0,0,0,0,0,0,6.29,6.29,0,0,0-.77.07l-23.66,2-10.52.88-1.07-5.09-9.52-46.07-.16-.72.33-.31,1.42-1.35,26-24.69c2.64-2.44,5.51-5.19,8.65-8.46a47.17,47.17,0,0,0,8.76-12.83c2.7-5.74,5.94-13.53,6.41-18.32a6.61,6.61,0,0,1,6.39-6,4.86,4.86,0,0,1,4.28,2.48c2.67,4.58,1.4,21-8.21,37.65-3.8,6.55-1.78,8.82,2.72,8.94,6.83.17,19.52-4.78,25.72-7.09,10.19-3.82,42.34-14.15,45.89-11.93a5.11,5.11,0,0,1,2.49,3.14c.86,3.32-2.55,7.49-10.12,10.11-9.35,3.25-34.51,14-37.95,20a2,2,0,0,0-.31,1.83c2.08,5.27,53.82-14.91,53.82-14.91s8.46-5,12.08-1.49a4.6,4.6,0,0,1,1,1.44c4.83,11-51.64,28.36-57,29.87a2.51,2.51,0,0,0-1.88,1.8,3.22,3.22,0,0,0,4.19,3.81c4.11-1.41,51.19-21.35,56.21-10.24a.88.88,0,0,1,.06.17c3.07,8.46-46.45,14.64-54,24.18s37.66-8.64,41-.32C2340,2490.68,2340.54,2493.12,2315.65,2499.3Z"/><path class="cls-8" d="M2233.17,2535.52s-72.69,35-144.81,53.63a396.75,396.75,0,0,1-43.51,8.92,118,118,0,0,1-22.35,1.11c-49.12-2.16-83.57-35.7-104.2-71.09a196.62,196.62,0,0,1-18.39-42.17c-2.5-8.4-2.07-20.08.39-33.66,4.92-27.24,18-62.19,31.66-94,4-9.38,8.12-18.48,12.08-27,4.24-9.14,8.32-17.67,12-25.21,9.92-20.27,17.1-33.64,17.1-33.64,24.08,29.49,39.94,173.38,63.21,196.65s167.87-45.82,167.87-45.82Z"/><path class="cls-9" d="M2088.36,2589.15a396.75,396.75,0,0,1-43.51,8.92,118,118,0,0,1-22.35,1.11c-49.12-2.16-83.57-35.7-104.2-71.09-3.27-29.64-10.67-54.38-18-75.83-12.55-36.72-24.84-63.85-15.89-89.56,6.81-19.57-12.33-44.1-12.33-44.1s40.06,25.4,59.88,39.63c6.53,4.67,10.85,8.13,10.85,9.08C1942,2401.08,1950.27,2575.39,2088.36,2589.15Z"/><path class="cls-7" d="M1699.67,2064.39a13.69,13.69,0,0,1-19.29,16.19c-9-4.58-10.18-17-8.4-27s5.16-20.61,1-29.83c-3.19-7.06,15.14-23.63,9.74-29.19-9.41-9.67,20.68-11,23-24.31s-12.3-28.89.7-32.52c13.26-3.71-6.19,3.35,3.68-6.25,7.16-7,7.6-18.37,13.14-26.68,8.6-12.89,26.78-14.94,42.14-12.84s31,7,46,3.28c12.57-3.12,9.46,6.58,21.24,1.19,25.52-11.67,7.29,20.9,26.61,41.26s38,5.52,25,30.39c-4.68,8.93,8.9,63.85-.12,68.33C1838.47,2059.08,1699.67,2064.39,1699.67,2064.39Z"/><path class="cls-6" d="M1872.08,1949.09v166.5c0,27.82-23.34,52.84-53.12,55.53v60.52a60.11,60.11,0,0,1-17.65,42.62,57.87,57.87,0,0,1-5.11,4.55,60.27,60.27,0,0,1-97.81-47.17V1999.1l16-15.42,11.33-10.92,16.39-25.68,109,1.69Z"/><path class="cls-5" d="M1877.86,1983c-7.45,13.73-76.83,7.86-110-3.92s-18.1,19.27-42.65,23.41c-5.71,1-10.84-1.89-14.24-6.89l12-11.56,17.34-27.17,115.35,1.78C1873.23,1970.32,1877.86,1983,1877.86,1983Z"/><path class="cls-7" d="M1896.92,1981.49s-32.89,16.72-76.52-4c-28.63-13.6-61.81-19.88-69-14s-8.14,35.09-36.07,44.16c0,0,3,55.71-19.25,54.15s-10-88.16-10-88.16L1739.9,1946l59.11-12.36,56.06,6.79,19.63,9.32Z"/><path class="cls-17" d="M1819,2171.12v25.36l-53.15-34.05A175,175,0,0,0,1819,2171.12Z"/><path class="cls-5" d="M1796.2,2278.81a60.27,60.27,0,0,1-97.81-47.17v-175.9l8.15,8.78c-.14,2.63-9.22,66.3,40,104.93C1790.44,2204,1802.45,2254.64,1796.2,2278.81Z"/><path class="cls-6" d="M1719.64,2028.06c-12.39-14.17-43.07-22.06-46.77,5.36s35,35.13,35,35.13Z"/><path class="cls-8" d="M1948.58,2399.43c4.81,53,14.56,201,16.4,299.58-71.78-59.11-283.85-352.6-283.85-352.6l-20.86,273.78-1.15,14.92-2.89-16.74-21.26-123-1.54-9-.94,3.32c0-6.17,0-11-.11-14.26v0a1.23,1.23,0,0,0,0-.27c-1.29-29.53-37.41-102.13-46.83-152.92-.27-1.41-.5-2.81-.73-4.19-3.23-20.19-1.75-36.47,8.67-44.37a17.23,17.23,0,0,1,2-1.37c9.8-5.86,18-10.3,24.89-13.68,2.52-1.23,4.86-2.33,7-3.31,16.95-7.59,23.93-7.73,26.76-9.32,4.24-2.37,4.67-62.29,4.67-62.29s68.74,22.09,87.52,47.93c0,0,0,0,0,0a91.57,91.57,0,0,1,11.59,22,128.3,128.3,0,0,1,7.85,38.25,129.08,129.08,0,0,1,7.17-36.45,94.26,94.26,0,0,1,11.74-23c.19-.25.35-.5.54-.75,18.76-25.87,87.53-48,87.53-48S1866,2246,1877.67,2246s78.93-2.39,95.5,26.31C1987.45,2297.08,1941.18,2318,1948.58,2399.43Z"/><path class="cls-8" d="M1989.46,2836.68c-44.12,45.94-118.11,28.42-186.69,28.56-73.12.16-150.6,42.45-195-8.28.14-2.34,12.36-78.72,12.5-81.12.27-4.34.52-8.81.81-13.38,87.1,26.16,183.8,43.76,254.07,31.05s72.2-32.51,92.71-39.53C1970.15,2765.14,1985.61,2824,1989.46,2836.68Z"/><path class="cls-9" d="M1746.37,2231.69a92.37,92.37,0,0,1,11.59,22c-12-11.16-25.26-12.45-32.55-.11-8.73,14.76-10.07,31.51-10.07,31.51l-61.13-39c1.21.59,40.09,19.85,46.17,22.06s8.85,1.2,10.64-4.47,10.13-29.8,17.28-31.14c5.51-1,12.26-2.14,18.06-.82C1746.37,2231.67,1746.37,2231.69,1746.37,2231.69Z"/><path class="cls-2" d="M1746.6,2232.05c-.1.76-7-3.13-16.25,2.12-4.54,2.4-8.65,7-11.49,13.36a68,68,0,0,0-3.64,10.33c-.5,1.89-1,3.81-1.5,5.74s-1,4.39-3.07,6.65a6.65,6.65,0,0,1-4.28,2.07,9.09,9.09,0,0,1-4.06-.76c-2.14-.93-3.73-1.77-5.56-2.64l-10.19-5-17.13-8.73c-9.69-5.1-15.54-8.55-15.26-9.15s6.65,1.77,16.72,6.08l17.57,7.8,10.31,4.76,5.31,2.45c1.71.63,2.34.55,3.1-.19,1.69-1.84,2.27-6.71,3.52-10.37a65.29,65.29,0,0,1,4.17-10.95c3.28-6.8,8.53-12.17,13.94-14.47a19.9,19.9,0,0,1,13.49-1.56C1745.44,2230.51,1746.74,2231.83,1746.6,2232.05Z"/><path class="cls-9" d="M1832.86,2270c-5.92,2.9-17,5.69-21.74-6.07-4.56-11.3-28.74-17.07-45.31,28,3.16-37.68,13.69-52.14,18.91-59.49a3.4,3.4,0,0,1,.53-.39c4.81-3,7.55-1.93,17.56.89s15.46,19.52,16.52,25.19,6.54,11.9,6.54,11.9S1838.77,2267.1,1832.86,2270Z"/><path class="cls-2" d="M1785.25,2232.05c.1.76,7-3.13,16.24,2.12,4.55,2.4,8.66,7,11.5,13.36a69.06,69.06,0,0,1,3.64,10.33c.49,1.89,1,3.81,1.5,5.74s1,4.39,3.07,6.65a6.63,6.63,0,0,0,4.28,2.07,9.12,9.12,0,0,0,4.06-.76c2.14-.93,3.72-1.77,5.56-2.64l10.19-5,17.13-8.73c9.69-5.1,15.54-8.55,15.26-9.15s-6.66,1.77-16.72,6.08l-17.58,7.8-10.3,4.76-5.32,2.45c-1.7.63-2.33.55-3.09-.19-1.69-1.84-2.27-6.71-3.52-10.37a67.07,67.07,0,0,0-4.17-10.95c-3.28-6.8-8.53-12.17-14-14.47a19.87,19.87,0,0,0-13.48-1.56C1786.41,2230.51,1785.1,2231.83,1785.25,2232.05Z"/><path class="cls-18" d="M1679.72,2001.53l218-12.94s.41-116.09-117.54-106.93C1665.37,1890.58,1679.72,2001.53,1679.72,2001.53Z"/><path class="cls-19" d="M1679.72,2001.53c3-.18,256.39,47.93,280.79,11.14,11.65-17.57-63.52-30.32-63.52-30.32l.77,6.24Z"/><path class="cls-20" d="M1967.9,2754c-20.51,7-22.47,26.82-92.71,39.54s-167-4.88-254.08-31c.44-7.69.9-15.67,1.35-23.84,1.13-20.38,2.23-42,3.3-63.88,1-20.59,1.89-41.31,2.77-61.25,2.19-52.07,3.73-98.84,4-123.76l.94-3.32,25.69,148.69,22-288.7S1893.2,2639.9,1965,2699c.25,12.15.35,23.57.31,33.95A108.54,108.54,0,0,0,1967.9,2754Z"/><polygon class="cls-19" points="1937.71 2353.78 1928.89 2734.22 1678.93 2732.95 1680.87 2350.32 1937.71 2353.78"/><polygon class="cls-18" points="2280.99 2358.42 2271.43 2735.95 1928.89 2734.22 1937.71 2353.78 2280.99 2358.42"/><path class="cls-7" d="M1929.12,2733.74c-1,0,.29-84.31,2.93-188.23s5.59-188.18,6.61-188.16-.3,84.3-2.93,188.25S1930.13,2733.77,1929.12,2733.74Z"/><path class="cls-7" d="M1678.93,2733c-.11-.07.71-1.45,2.36-4,1.89-2.84,4.32-6.52,7.34-11.07l27.67-40.25c23.86-34.14,56.39-80.66,92.33-132.06,36.11-51.56,68.63-98.33,91.86-132.39,11.63-17,20.87-30.91,27.25-40.5l7.27-11.11a23.06,23.06,0,0,1,2.74-3.75c.11.07-.61,1.49-2.11,4.14l-6.69,11.48c-6,9.85-14.94,24-26.29,41.19-22.7,34.46-54.9,81.49-91,133s-69.17,98-93.23,131.44l-28.62,39.59-7.91,10.67C1680.05,2731.8,1679,2733,1678.93,2733Z"/><path class="cls-7" d="M1923.24,2736.77c-.86.54-55.42-84.54-121.84-190s-119.59-191.45-118.73-192,55.41,84.52,121.85,190S1924.1,2736.23,1923.24,2736.77Z"/><polygon class="cls-7" points="2161.19 2355.39 2157.5 2501.12 2137.11 2484.66 2110.36 2499.92 2114.05 2354.19 2161.19 2355.39"/><rect class="cls-7" x="2061.02" y="2686.74" width="46.15" height="4.56" transform="translate(-605.67 4772.16) rotate(-89.98)"/><rect class="cls-7" x="2055.39" y="2688.35" width="46.15" height="1.33" transform="translate(-611.29 4766.53) rotate(-89.98)"/><rect class="cls-7" x="2051.5" y="2687.97" width="46.15" height="2.09" transform="translate(-615.18 4762.64) rotate(-89.98)"/><rect class="cls-7" x="2048.56" y="2688.16" width="46.15" height="1.71" transform="translate(-618.12 4759.7) rotate(-89.98)"/><rect class="cls-7" x="2042.96" y="2686.07" width="46.15" height="5.88" transform="translate(-623.71 4754.1) rotate(-89.98)"/><rect class="cls-7" x="2029.44" y="2688.3" width="46.15" height="1.42" transform="translate(-637.22 4740.57) rotate(-89.98)"/><rect class="cls-7" x="2025.55" y="2688.3" width="46.15" height="1.42" transform="translate(-641.11 4736.68) rotate(-89.98)"/><rect class="cls-7" x="2019.79" y="2687.28" width="46.15" height="3.45" transform="translate(-646.86 4730.92) rotate(-89.98)"/><rect class="cls-7" x="2015.04" y="2687.28" width="46.15" height="3.45" transform="translate(-651.6 4726.17) rotate(-89.98)"/><rect class="cls-7" x="2005.48" y="2686.41" width="46.15" height="5.19" transform="translate(-661.17 4716.6) rotate(-89.98)"/><rect class="cls-7" x="1996.68" y="2686.72" width="46.15" height="4.56" transform="translate(-669.95 4707.81) rotate(-89.98)"/><rect class="cls-7" x="1991.06" y="2688.33" width="46.15" height="1.33" transform="translate(-675.58 4702.18) rotate(-89.98)"/><rect class="cls-7" x="1987.17" y="2687.95" width="46.15" height="2.09" transform="translate(-679.46 4698.28) rotate(-89.98)"/><rect class="cls-7" x="1984.22" y="2688.14" width="46.15" height="1.71" transform="translate(-682.4 4695.34) rotate(-89.98)"/><rect class="cls-7" x="1978.63" y="2686.05" width="46.15" height="5.88" transform="translate(-688 4689.74) rotate(-89.98)"/><rect class="cls-7" x="1965.1" y="2688.28" width="46.15" height="1.42" transform="translate(-701.51 4676.22) rotate(-89.98)"/><rect class="cls-7" x="1961.21" y="2688.27" width="46.15" height="1.42" transform="translate(-705.4 4672.32) rotate(-89.98)"/><path class="cls-6" d="M1749.84,2666.23c14.78,1.5,15.24,2.14,19.92,1.93s25.53-10.89,33.84-21.72,1.85-19.32,12.61-18.63,12,11.32,2.81,23.19-16.65,17.34-14.49,19.64,35,42.05,54.48,54.21,45.35,9.06,61.38,8.11,5.41,12.42-18.53,13.17-91-1.67-115.1-3.13c-23.42-1.43-35.18-.68-44.11-1S1749.84,2666.23,1749.84,2666.23Z"/><path class="cls-8" d="M1751,2728c-2,14.32-5.38,25.24-11,25.24-16.44,0-250.35-72.24-254.52-119.49s23.61-298.72,108-360a125.77,125.77,0,0,1,10.24,15.26c13.21,22.36,34.82,69.17,37.7,139.45a242.52,242.52,0,0,1-6.44,67c-14.09,58.89-45.08,90.64-36.29,96.12,4.57,2.85,29.2,14.15,57.55,26.86,1.33.61,2.69,1.21,4,1.82,43.33,19.42,93.33,41.3,93.33,41.3S1754.79,2700.8,1751,2728Z"/><path class="cls-9" d="M1751,2728c-2,14.32-5.38,25.24-11,25.24-16.44,0-250.35-72.24-254.52-119.49s23.61-298.72,108-360a17.23,17.23,0,0,1,2-1.37c9.8-5.86,18-10.3,24.89-13.68,2.52-1.23,4.86-2.33,7-3.31a286.47,286.47,0,0,0-23.69,33.62c-6.42,10.54-12.49,21.74-18.18,33.3-27.59,56.17-46.27,121.3-54.23,165.55-12.5,69.47-10.09,134.43,0,150.06C1540.16,2651.64,1698.77,2708.24,1751,2728Z"/><polygon class="cls-4" points="1837.2 1937.55 1844.59 1950.92 1859.8 1952.4 1849.37 1963.57 1852.65 1978.49 1838.82 1972.02 1825.64 1979.75 1827.52 1964.59 1816.09 1954.45 1831.09 1951.55 1837.2 1937.55"/><rect class="cls-4" x="1778.14" y="1958.29" width="31.39" height="2.15" transform="translate(-89.83 86.2) rotate(-2.69)"/><rect class="cls-4" x="1788.62" y="1941.8" width="31.39" height="2.15" transform="translate(-89.05 86.67) rotate(-2.69)"/><rect class="cls-4" x="1789.36" y="1973.77" width="31.39" height="2.15" transform="translate(-90.55 86.74) rotate(-2.69)"/><path class="cls-4" d="M1856.39,1649H1659.53a24.39,24.39,0,0,0-24.39,24.39v100.17a24.39,24.39,0,0,0,24.39,24.39H1731l23.36,40.47a10.19,10.19,0,0,0,17.65,0l23.36-40.47h61a24.39,24.39,0,0,0,24.39-24.39V1673.41A24.39,24.39,0,0,0,1856.39,1649Z"/><circle class="cls-2" cx="1698.22" cy="1725.24" r="14.81"/><circle class="cls-2" cx="1757.96" cy="1725.24" r="14.81"/><circle class="cls-2" cx="1817.69" cy="1725.24" r="14.81"/><g class="cls-21"><circle class="cls-12" cx="2591.71" cy="1894.5" r="315.06"/><path class="cls-2" d="M2775.29,2155.66c-5.39,7.84-16.8,19.93-17.37,31.34s-7.72,22.3-15.56,23.52-15,7.27-15,12.66-7.24,3.05-7.81,13.29-9.58,21.7-13.78,19.9c-1.08-.46-2.82-1.31-4.73-2.22-5.73-2.74-13-5.85-8.52.45,6,8.41,7.24,12.6.65,15.66-6.1,2.76-13.68,13.74-18.16,12.17a3.08,3.08,0,0,1-1.06-.71c-4.24-4.17-3.62.62-3.59,4.84,0,3.11-.63,8.44-3.11,11.1a4.65,4.65,0,0,1-3.47,1.56c-5.45,0,4.84,15,1.85,16.83-1,.62-2.71,2.9-4.48,5.67-3.53,5.56-7.52,13-7.52,13s.62,8.41-6,3a11.53,11.53,0,0,1-1.48-1.42c-5.88-6.48-10.18-21.19-12.43-25.61-2.43-4.82.59-5.44,4.19-11.46s3-10.83-.69-21.64-2.45-19.27,3-23.49,2.34-18.08,2.34-25.89c0-2.88,1.51-5,3.27-6.73,3.06-3.08,6.79-5.36,4.48-9.55-3.62-6.59.57-14.43-3.65-18.05l-.91-.83c-4.08-4.13-9.24-13-15.4-12.94-6.61,0-5.44-6.62-5.44-12a6.21,6.21,0,0,0-1-3c-2.68-4.67-10-10.86-14.06-16.28a20.82,20.82,0,0,1-1.82-2.91c-3.54-7-4.22-19.07,1.77-22.55.17-.11.37-.2.57-.31,6.61-3,3.56-12,10.2-13.89a4.49,4.49,0,0,0,3.2-2.39,6.33,6.33,0,0,0,0-4.17,43.4,43.4,0,0,0-3.19-7.27c-1.32-2.53-6.13-2.36-10.84-2.36-3.73,0-7.38-.12-9.09-1.77.71-.34,4.3-2.14,4.64-3.77s2.26-3.19,4.42-3.9a6.91,6.91,0,0,0,4.16-.2c2.63-1,6.28-.4,9.84-.11,3.05.25,6.05.22,8.24-1.17,4.82-3,9.61-9,12-3a5.85,5.85,0,0,0,1.52,2.14c3.33,2.91,10.06,1.71,15.11,1.46.48,0,1,0,1.42,0,1.46,0,3-.12,4.71-.2a45.21,45.21,0,0,1,7.81.17,31.63,31.63,0,0,1,12.2,4.16c5.05,3,9.64,6.47,14,9.3s8.58,5.1,12.57,5.07c7.81,0,6.61,7.79,6.64,15.66s10.27,7.78,21.1,11.34,15.66,3,26.52,9.56S2780.71,2147.82,2775.29,2155.66Z"/><path class="cls-2" d="M2479,1773.31a2.79,2.79,0,0,0,2.17,2.23c2.65.77,6.73-.46,6.41,1.8-.24,1.67,1.67,1.45,4.1.38a31.74,31.74,0,0,0,6.71-4c4-3.17,9-.94,18.47-.51a28.54,28.54,0,0,0,4.75-.18c5-.65,5.43-2.83,0-3H2521c-7.66,0-7.69-9.91-13.55-9.89-5-.44-4.06,1.37-5.85,6.34-1.28,3.53-5.33,0-9.87-2.2a11.33,11.33,0,0,0-5.46-1.37,7.8,7.8,0,0,0-5,2.09C2479,1767.09,2478.44,1770.39,2479,1773.31Z"/><path class="cls-2" d="M2459.19,1767.51c5.86,0,4-5.43,11.71-5.45,3.41,0,7.66-1.91,10.25-4s3.55-4.56,0-5.25a12.87,12.87,0,0,0-2.61-.2c-10.36.46-10.81,6.79-19.79,7.25S2453.32,1767.53,2459.19,1767.51Z"/><path class="cls-2" d="M2500.44,1754.06c8.59,0,3.79-11.47-2.9-11.45-3.23-.28-5.09.54-5.92,1.8a4.32,4.32,0,0,0,0,4A10,10,0,0,0,2500.44,1754.06Z"/><path class="cls-2" d="M2690.87,1921.47c-3.43,8.2,1,8.55,9.26,12.09l1.14.49c9,4,10.81-1.83,8.09-7.69-2.22-4.82-3.56-10.57-9.29-12.17a13.87,13.87,0,0,0-4.26-.4C2689.94,1913.35,2694.45,1912.89,2690.87,1921.47Z"/><path class="cls-2" d="M2472.76,1800.82c.71,3.48,5.66,4.13,8.52,4.52,2.06.31,3.06.46.53,1.46l-.52.23c-2.5,1.11-2,1.84,0,2.78s5.74,2.16,9.57,4.2a6.92,6.92,0,0,0,1,.44c7.74,3,20.72-4.16,29.92-4.16h1a28,28,0,0,0,10.59-1.3c3.09-1,4.11-2.35,1.44-2.35a7.17,7.17,0,0,1-1.44-.14c-4.31-.89-8.88-5.87-11.64-13.65l-.21-.6c-3-9-12-5.37-20.49-5.35a23.68,23.68,0,0,1-9.26-2.26c-3.61-1.54-7-3.42-10.52-4.07a13,13,0,0,0-2.48-.23c-7.23,0-11.46-4.8-19.89-4.16-10.23,0-14.39,12.66-9.57,18.67S2471.54,1794.8,2472.76,1800.82Z"/><path class="cls-2" d="M2695.77,1910.94c-10.24,0-15.06,3-17.45,7.27-1.54,2.74-2.6,2.17-4.34.6a36.36,36.36,0,0,0-3.48-3c-1-.69-2.53-.8-4.33-.6a27,27,0,0,0-6.16,1.68c-4.13,1.63-7.1,3.79-4,3.76a10.27,10.27,0,0,1,4,1,17.81,17.81,0,0,1,6.16,4.51c2.82,3.31,4.08,7.7.74,11.95-.23.31-.48.62-.71.91a27.56,27.56,0,0,1-6.13,5.33c-4.34,2.74-8.41,3.71-11.18,6.44a27.46,27.46,0,0,0-3.88,5.82c-1.71,3-3.53,5.67-7.52,5.67-6.62,0-10.18,15.06-10.15,20.48,0,2.13-1.74,4-4,5.7-3.6,2.74-8.59,5.24-10.41,8.18-3,4.82-.57,9.64-.54,18.05,0,4.68-.92,6.41-3,5.36-1.68-.86-4-3.45-7.27-7.73a19.39,19.39,0,0,0-2.79-3c-7.16-5.93-16.63-3.31-21.9-1.17l-.09,0c-6,2.36-13.77-1.8-19.16,3a19.71,19.71,0,0,0-3,3.65c-4.56,6.9-8.58,19.05-4.13,23.46,1.28,1.29,2.7,2.83,4.22,4.37,4.84,5,10.49,9.81,15.05,5.22a64.36,64.36,0,0,1,7.16-6.31c3.93-2.93,7.27-4.13,7.3-.37,0,6-1.14,21.07,7.87,21s3,6.61,6.67,12.63l.2.34c2.62,4.16,6.38,7.41,10.06,8.24-2.16.71-4.07,2.14-4.42,3.9s-3.93,3.43-4.64,3.77a4.38,4.38,0,0,1-.95-1.31c-2.7-5.33-3.73-18-13.51-17.94a19,19,0,0,1-8.53-2.19c-5.67-2.88-10.72-7.56-18.59-7.93-1.22-.08-2.42-.23-3.62-.43a62.12,62.12,0,0,1-13.45-4.3,68.67,68.67,0,0,0-7.87-3,16.51,16.51,0,0,0-3.37-.65c-4.67-.4-6.36-7.1-8.27-12.75-1-3.08-2.11-5.82-3.82-7.1-4.85-3.59-21.13-18.59-17.48-13.2s7.84,12,3.65,13.23-7.67-5.05-12.31-12l-.37-.57c-3.57-5.31-7.45-9.64-10.21-14.66a29.88,29.88,0,0,1-2.48-5.76c-2.43-7.84-19.31-16.22-24.15-24.63s-4.88-25.86-1.29-27.69,2.4-6,0-12.63-1.83-7.84,5.38-4.22,3.6-7.24-5.44-10.83-18.68-12-17.51-18-4.22-5.41-9-9.6-5.47-16.23-12.68-15.6-12.66-4.19-17.48-5.39-16.25-3.56-21.67-2.34-11.44-3-14.43,1.86-6.64-4.2-11.46-1.17-8.36,12.66-13.8,14.45-16.2,10.89-20.42,14.52-4.81-4.2,3-10.24,18.59-15.11,6.58-15.08-7.27-5.36-16.9-6-7.25-13.2-1.23-16.82,15-9.7,6.59-9.67-26.52-7.76-14.46-9,13.23-.66,9.61-7.24-17.51-10.21-4.85-12,18-13.31,28.83-13.34,29.51,5.33,47,6.5,34.33,14.94,34.33,9.52,2.36-7.81,14.39-7.84,9-8.47,18.05-2.48,4.22,3.59,14.46,3.57,6.64,6.61,14.45,6.58c2.31,0,4.34-.2,6.11-.37,4.27-.4,7.07-.48,8.35,3.34a4.6,4.6,0,0,0,2.2,2.79c2.65,1.4,7,.23,12.28,2,7.22,2.36,6-8.47,15.63-8.47a16.07,16.07,0,0,1,2,.08c4.59.38,7.52,2,11.6,3.4a34.08,34.08,0,0,0,7.87,1.65,42.59,42.59,0,0,0,4.42.2c3.42,0,6.47-.06,9-.17,7.73-.37,11.15-1.37,8.44-4.08-3.65-3.62-4.28-7.81-7.27-8.41a2.73,2.73,0,0,1-1.23-.57,4.48,4.48,0,0,1,0-6.53,6.2,6.2,0,0,1,1.83-1.34c4.79-2.42,6-6.61,9-1.82s-1.77,11.43,4.84,10.83,2.48,10.69,6.56,7.84l.09,0c4.19-3,8.41-.63,9,4.19s4.81,3.62,4.79-1.83c0-5,2.53-7.9,8-7.9a10.72,10.72,0,0,1,1.59.06c6.62.57,10.3,19.82,3.05,19.85a25.06,25.06,0,0,0-4.59.45,44.8,44.8,0,0,0-10.43,3.22s-1.77,11.44-8.39,11.44a6.32,6.32,0,0,0-3.1.68c-2.4,1.48-1.23,4.88-5.93,5.36-6,.63-4.79,11.46-7.76,13.29s1.8,5.42,2.42,10.21c.52,4.07,3.2,6,11.38,9.06,1.46.52,3.08,1.09,4.91,1.71,6.41,2.23,12.63,3.94,17.07,5.88,3.91,1.68,6.42,3.56,6.45,6.13s1.77,7.55,3.62,10.43,3.91,3.74,4.19-2.05c.6-11.43.57-18.65,5.36-18.65s.6-6-1.23-14.48c-1.68-7.67-3.36-18.39,5.54-21.13a14.4,14.4,0,0,1,2.82-.54c5.59-.71,13.4,2.59,19,6.59,4,2.88,6.93,6.13,6.93,8.38,0,5.13,2.76,8.13,8.21,6.81.25,0,.57-.14.85-.22,4.88-1.49,2.2-5.74,5.28-7a7.35,7.35,0,0,1,3.13-.29,6,6,0,0,1,4.68,3.11c2.94,4.65,3.28,13.23,6.79,16.71,4.84,4.82,13.88,6.61,12.06,10.81S2706,1910.91,2695.77,1910.94Z"/><path class="cls-2" d="M2576.68,1756.67c3.11-.8,2.46-4,0-5.26a4.67,4.67,0,0,0-2.57-.45c-6.32,0-6.31,5.42.46,5.86A7.2,7.2,0,0,0,2576.68,1756.67Z"/><path class="cls-2" d="M2522.73,1759.65c-.41,0-.78,0-1.13,0-6.06.39-4.35,3.72,0,4.66a11.3,11.3,0,0,0,2.48.26C2530.4,1764.6,2529,1759.64,2522.73,1759.65Z"/><path class="cls-2" d="M2583.43,1774.63c4.07.28,9.71,1.25,15.27,1.65a39.78,39.78,0,0,0,10-.31,14.11,14.11,0,0,0,5.4-2c3.11-2.07,0-3.8-5.42-5a80.55,80.55,0,0,0-10-1.57,93.07,93.07,0,0,0-14.06-.52,13.43,13.43,0,0,1-7.91-1.7c-3.31-2-4.67-4.63-7.76-3.09-7.81-1.18-3.58,7.24.63,12,2.74,3.11,4.2,2.19,7.16,1.32A17.9,17.9,0,0,1,2583.43,1774.63Z"/><path class="cls-2" d="M2548.4,1736.21c6.63,0,2.4-8.44-4.22-7.81a6.43,6.43,0,0,0-3.21.65c-1.34.84-1.13,2.33,0,3.71A10.07,10.07,0,0,0,2548.4,1736.21Z"/><path class="cls-2" d="M2528,1751.92c1.86.14,3.54.13,5.18.1,2.66-.08,5.18-.27,7.86-.22a37.81,37.81,0,0,1,9.23,1.26,5.66,5.66,0,0,0,4.2-.19c2.3-1.26,2.17-4.73,0-7.25a8.57,8.57,0,0,0-6.62-2.78,38.67,38.67,0,0,1-6.82-.64c-2.65-.46-5.2-1.11-7.86-1.75a56.78,56.78,0,0,0-11.6-1.73h-1.42c-4.62-1.68-2.77,5.14,1.45,9.62C2523.39,1750.25,2525.64,1751.75,2528,1751.92Z"/><path class="cls-2" d="M2562.87,1739.78c-1.06,6.56,5.77,10.11,13.78,6.64a18.89,18.89,0,0,0,2.48-1.28c8.72-5.25,2.78-15-2.53-16.13a1.91,1.91,0,0,0-.52-.1c-5.42-.58-4.25-9.63-15.68-8.38C2550.78,1720,2564,1732.57,2562.87,1739.78Z"/><path class="cls-2" d="M2839.19,1847.75a29.16,29.16,0,0,0,3.91-2.1,27.19,27.19,0,0,0,5.15-4.5c4.18-4.83,1.32-10.65-5.2-10.71a14.15,14.15,0,0,0-3.91.61l-.27.07c-5-.7-7.16,0-13.62-2.83s-12.88,9.36-2.82,17.23A16,16,0,0,0,2839.19,1847.75Z"/><path class="cls-2" d="M2809.21,1804.07c-9.63,1.25-6.64-10.82,3-10.84s-9.07-13.2-.64-13.23,6.62-4.23,12.62-10.26-2.45-11.42,5.37-11.45,10.21-9.65,2.37-13.86,6.61-8.45,1.17-13.25c-2.93-2.58.44-3.78,5.78-4.54,1.21-.17,2.52-.33,3.91-.45,3.75-.37,7.89-.67,11.36-1.07,9.06-1.1-4.1-9.21-11.39-8.94a6.25,6.25,0,0,0-2.47.54l-1.44.68c-5.61,2.5-11.58,3.25-16-.63-4.82-4.2-12,2.44-16.25-4.16s-6.61,7.24-18.67.05,13.82-6.66,33.08-4.32-18.67-15-39.75-14.92c-17.46,0-17.43,8.48-31.28,7.91s-.56,10.83-8.39,10.85,5.45,12-12.65,1.24-2.38,4.81-9.6,6.66c-6.87,1.72-7.77-6.36-19.79-8.16-.61-.09-1.24-.15-1.89-.2-13.14-1.11-11.09,8-24.18,9-.72,0-1.48.08-2.29.09a28.25,28.25,0,0,0-5.53.49c-9.21,1.81-6.31,8.23-1.65,9.77a5.81,5.81,0,0,1,1.68.86c2.8,2,3.7,6.17,0,8.42a12.94,12.94,0,0,1-6.14,1.55c-.32,0-.62,0-.95,0-8.68,0-12,0-14.13,2.55a17.79,17.79,0,0,0-2.7,5.31c-1,2.73.25,3.84,2.72,4.15,3.72.49,10.1-.84,15.09-1.17a25.46,25.46,0,0,1,3.25,0c4.61.34-.12,2.57-3.24,5.34-2.18,1.93-3.55,4.12-.33,6.11l.35.2a16.72,16.72,0,0,0,6.16,1.92,51.17,51.17,0,0,0,7.82.24c5.54-.15,11.48-.65,17,.55,5.66,1.23,7.71,4.91,9.15,8.43,1.33,3.23,2.14,6.32,4.74,7.18,5.43,1.78,9,0,1.22,6s-1.17,9,4.83,7.21,9.05,6.58.64,8.41,1.22,7.83,7.23,3.61-11.41,9.65-6,12.64-3,12.05,2.46,20.46,8.49,22.24,22.34,27,16.79-21.71,16.77-28.93,18.05-6.68,22.83-14.51,21-7.89,31.27-12.73S2818.82,1802.85,2809.21,1804.07Z"/><path class="cls-2" d="M2666.24,1943.39a5,5,0,0,0-.87.16c-3.7.64-2.25,5,.89,5.61a4,4,0,0,0,.8.07C2670.49,1949.22,2669.82,1943.17,2666.24,1943.39Z"/><path class="cls-2" d="M2660.64,2052.75l-.24,0c-7.39-.42-5.16,2.58,0,3.68a18.51,18.51,0,0,0,3.05.39,6.82,6.82,0,0,0,3.1-.38c.68-.39.59-1,0-1.61A9.24,9.24,0,0,0,2660.64,2052.75Z"/><path class="cls-2" d="M2622.28,2040.07c-4.89,0-2.87,3.27,1.22,4.67a11.87,11.87,0,0,0,3.77.62c5.82,0,1.84-4.9-3.79-5.28C2623.08,2040.06,2622.68,2040.06,2622.28,2040.07Z"/><path class="cls-2" d="M2674,1938.43a3.88,3.88,0,0,0-1.15.22c-5,.85-3.06,6.67,1.18,7.54a5,5,0,0,0,1.1.11C2679.78,1946.29,2678.9,1938.1,2674,1938.43Z"/><path class="cls-2" d="M2623.44,2023.13a8.17,8.17,0,0,0-2.77-.5c-5.61.95-6.54,6.86-3.09,8.74,1.91,1,3.74,0,5.88-.71a6.9,6.9,0,0,1,5.94.68C2634.05,2034.05,2629.63,2025.35,2623.44,2023.13Z"/><path class="cls-2" d="M2645.3,2047.57c-9.53.79-5,7.44,0,8.25a5.51,5.51,0,0,0,1,.08c5.62,0,6.2-8.75.91-8.41C2646.52,2047.5,2645.88,2047.53,2645.3,2047.57Z"/><path class="cls-2" d="M2607.62,2032.65c-6.67-.82-3.68,4.72,1.85,6.41a12.06,12.06,0,0,0,2.2.42c6.19.54,3.22-5.47-2.22-6.64A7.84,7.84,0,0,0,2607.62,2032.65Z"/><path class="cls-2" d="M2562.93,1791.54c1.33-2.71,8.55-3.61,10.36-8.13s-5-3.59-10.4-3.57c-7.65.47-7.2,5.42-5.38,9.93S2561.58,1794.26,2562.93,1791.54Z"/><path class="cls-2" d="M2541.19,1809.39c-2.06,1-1.9,2.91,0,4.56s5.34,2.89,10.07,2.88a13.56,13.56,0,0,0,3.36-.35c2.73-.74,2.09-2.55,0-4.22a17.39,17.39,0,0,0-9.68-3.53A9.46,9.46,0,0,0,2541.19,1809.39Z"/><path class="cls-2" d="M2550.77,1791.58c-3.61.47-.49-12.16-7.26-12.14a11.51,11.51,0,0,0-2.4.63c-3.59,1.3-4.73,3.81-2.1,5.69,3,2.11-.42,3.85-5.73,4-.32,0-.65,0-1,0-3.32,0-2,3.45,1,6.44a15,15,0,0,0,7.87,4.28c.36,0,.71.06,1,.06C2549.44,1800.6,2554.37,1791.14,2550.77,1791.58Z"/><path class="cls-2" d="M2561.52,1774.88c6.65,0-2-4.74-7-6a8.15,8.15,0,0,0-2-.29c-4,0-5-6.77-11.29-6.75h-.14c-7.52-.73-7.89,9.49-1.17,9.93.4,0,.81,0,1.2.09,4.29.45,8.77,1.65,13.43,2.38A42.67,42.67,0,0,0,2561.52,1774.88Z"/><path class="cls-2" d="M2559.21,1751a6.4,6.4,0,0,0-4.75,3,9.34,9.34,0,0,0-1.53,6.87,2.18,2.18,0,0,0,1.56,1.81c3.74,1.24,12.42-3.64,8.35-3.62C2557.89,1759.12,2564.16,1751,2559.21,1751Z"/><path class="cls-2" d="M2602.76,1850.47c-2.33.5-3.48,1.18-3.85,1.91a1.23,1.23,0,0,0,0,1.12c.78,1.72,4.84,3.23,7,2.4C2609.54,1854.53,2610.43,1848.66,2602.76,1850.47Z"/><path class="cls-2" d="M2576.58,1721.71c1,.42,2,.81,3.1,1.18,7.85,2.59,8.87,1.57,18.87,1.22,1.5-.07,3.23-.09,5.21-.09a40.51,40.51,0,0,1,4.82.24c6.42.84,5.75,3.51,0,5.35a42,42,0,0,1-9,1.64c-.35,0-.67.06-1,.11-13.28,1.63,2.65,12-4.39,14.33-7.21,2.45-11.41,7.88-12.59,15.09-.92,5.54,8.72,4,17.07,3a63.39,63.39,0,0,1,7-.6,8.52,8.52,0,0,0,3-.56c6.07-2.26,10.1-10.61,14-11.94a2.67,2.67,0,0,1,1-.18c4.83,0,.57-16.27,7.19-15.69,3.38.32,8.65-1,13.54-3.1,4.69-2,9-4.85,11.1-7.79a29.73,29.73,0,0,1,3.95-4.61,30.38,30.38,0,0,1,6.14-4.41,56.7,56.7,0,0,1,7.81-3.57c.63-.25,1.27-.47,1.93-.7,4-1.44,2.29-2.84-1.94-3.94a61.86,61.86,0,0,0-7.82-1.42c-2-.24-4.09-.45-6.16-.59a74.78,74.78,0,0,0-12.38,0c-1,.11-1.89.18-2.7.21-8.71.43-9-2.58-17.77-2.55a31.87,31.87,0,0,0-4,0,57.74,57.74,0,0,0-14,2.94c-3.35,1.06-6.71,2.32-10,3.53-7.27,2.65-14.31,5.1-20.66,5.12-.45,0-.87,0-1.28,0C2565.4,1714.21,2569.49,1718.68,2576.58,1721.71Z"/><path class="cls-2" d="M2622.87,1824.47a8.9,8.9,0,0,0,2.36-1.08c5.45-3.54,2.13-7-2.38-6.74a9.34,9.34,0,0,0-2.14.43C2615.22,1820.64,2617.94,1825.84,2622.87,1824.47Z"/><path class="cls-2" d="M2608.92,1843.42a22.16,22.16,0,0,0-10.06-7.61,8.75,8.75,0,0,0-2.62-.43c-6.62,1.21-10.83,4.84-7.18,12,2.32,4.6,5.6,2.12,9.84.29a12.14,12.14,0,0,1,8.19-.94,5.43,5.43,0,0,0,1.84.27C2610.58,1847,2610.3,1845.37,2608.92,1843.42Z"/><path class="cls-2" d="M2665.93,1832.56a18.52,18.52,0,0,1,4.93.81,5.46,5.46,0,0,0,2.89.16c2.44-.71,2.09-4.2,0-7.52a14.4,14.4,0,0,0-7.11-5.88,4.71,4.71,0,0,1-.72-.3c-3.74-1.79-4.86-6.21-6.18-10.48s-2.91-8.48-7.59-9.65c-1.9-.45-4.57-1.11-7.53-1.87-7.85-2-17.85-4.78-21.81-7-2.08-1.19-2.48-2.22,0-2.91l.43-.12c3.92-.93,2.86-2.48-.44-4a60.58,60.58,0,0,0-14-3.8,37.17,37.17,0,0,0-7.85-.56c-.75,0-1.48.08-2.19.13-14.43,1.14-18.25,7.43-18.23,13.18s10.54,12.78,18.31,13.69c.55,0,1.08.08,1.59.08,2.33,0,5.26,0,8.44.27a63.58,63.58,0,0,1,14,2.41,28.69,28.69,0,0,1,8.26,3.87c8.43,6,8.43,6,3,10.22-5.25,4.09-3.12,11-11.22,12l-.78.07c-8.13.56-7,7.44.81,9.23a17,17,0,0,0,2.83.38c5.11.3,12.29,2.2,19,4.35,6.15,2,11.86,4.17,15.11,5.45l.86.35a5.11,5.11,0,0,0,5.29-.87c2.48-2.19,3.34-6.8,0-11.17a15.86,15.86,0,0,0-1.69-1.83C2658.09,1835.53,2660.49,1832.45,2665.93,1832.56Z"/><path class="cls-2" d="M2352.38,1614.87c5.53,17.6,36.12,1.89,37.93,12.87s1.1,15.75,12.94,6.78,17.2-15.64,17.48-3.82,10,22.33,11.62,32.48-7.32,17.25,1.68,13.68,6.42-32.17,16.94-20,51.7,19,76-2.67,24-32.46,36.35-27.54,24.18-24.17,30.62-10.53-10.59,24.93,3.7,25.48,73.54-43.7,76.58-62.58-13.18-63.16-8.42-79.76,3.06-13.7-7.85-15.51,11.85-23.28-9.65-16.75-36.78,11.73-34.7-3.07-6.49-9-15.6-15.53-19.08-15-28.27-5-11.9,6.41-28.07,13.68-31.15,10.39-44,17.5-20-2.8-29.58,9.41-16.21,1.88-21.81,22-9.14,37.15-2.06,47.06,11.5,18.6-4.74,38.38-5.07,18.48-16.23,19.78-33.88-.66-45.62.43S2367.33,1619.15,2352.38,1614.87Z"/></g><path class="cls-19" d="M1069.78,2768.7c-23.75-32.68-58.3-47.91-94.35-47.91,0,0-88.27,0-114.41,79-9.64,29.12-7.5,60.75,4.19,89.11a163.6,163.6,0,0,0,16.49,30.67c22.79,32.92,93.73,122.82,93.73,122.82h15.42c19.81-27.5,69.66-118.86,84.59-148.15C1094.18,2857.49,1097.07,2806.23,1069.78,2768.7Zm-79.62,146.19a75.41,75.41,0,1,1,75.4-75.41A75.41,75.41,0,0,1,990.16,2914.89Z"/><path class="cls-18" d="M1085.31,2769.32c-23.76-32.68-58.31-47.91-94.35-47.91,0,0-88.28,0-114.42,79-9.63,29.13-7.5,60.75,4.19,89.12a163.22,163.22,0,0,0,16.49,30.66C920,2953.14,991,3043,991,3043s82-112.76,100-148.15C1109.71,2858.11,1112.59,2806.85,1085.31,2769.32Zm-95,146.18a75.41,75.41,0,1,1,75.4-75.4A74.85,74.85,0,0,1,990.26,2915.5Z"/><path class="cls-19" d="M2681.73,1735.35c-14.23-19.57-34.91-28.69-56.49-28.69,0,0-52.85,0-68.5,47.31-5.77,17.44-4.49,36.38,2.51,53.36a97.69,97.69,0,0,0,9.87,18.36c13.65,19.71,56.12,73.53,56.12,73.53h9.23c11.86-16.46,41.7-71.16,50.64-88.7C2696.34,1788.5,2698.06,1757.82,2681.73,1735.35Zm-47.67,87.52a45.15,45.15,0,1,1,45.14-45.15A45.15,45.15,0,0,1,2634.06,1822.87Z"/><path class="cls-18" d="M2691,1735.72c-14.22-19.57-34.91-28.69-56.48-28.69,0,0-52.85,0-68.51,47.31-5.76,17.44-4.49,36.38,2.51,53.36a97.76,97.76,0,0,0,9.88,18.36c13.64,19.71,56.12,73.53,56.12,73.53s49.07-67.51,59.87-88.7C2705.63,1788.87,2707.36,1758.19,2691,1735.72Zm-56.9,87.52a45.15,45.15,0,1,1,45.14-45.15A44.82,44.82,0,0,1,2634.12,1823.24Z"/><path class="cls-12" d="M3216.48,3251.72l-.85,187.48-1,225.75c-.36,76.77-66.5,138.7-147.71,138.35l-560.83-2.46V3251.72Z"/><rect class="cls-2" x="2954.02" y="3680.16" width="223.04" height="68.18"/><polygon class="cls-2" points="2911.89 3251.72 2904.94 3555.27 2866.89 3521.28 2816.99 3552.8 2823.88 3251.72 2911.89 3251.72"/><rect class="cls-11" x="2124.86" y="3392.22" width="527.5" height="75.56"/><polygon class="cls-10" points="2627.18 3467.78 2150.05 3467.78 2150.05 3799.39 2627.18 3801.38 2627.18 3467.78"/><rect class="cls-2" x="2448.25" y="3725.34" width="148.49" height="40.99"/><polygon class="cls-2" points="2420.2 3467.78 2415.57 3650.26 2390.25 3629.83 2357.02 3648.78 2361.61 3467.78 2420.2 3467.78"/><path class="cls-6" d="M3561.69,2567.38c-67.54,39.42-184.49,130.33-235.47,119.36s-34.09-310.19-35.08-354.18l-2.85-10.14-6.4-22.89c-.07-.24-.13-.5-.21-.75,0,0,0,0,0,0-.45-1.69-.88-3.37-1.33-5.09-5.68-22-11.55-46.7-13.17-60.55-.11-.9-.2-1.72-.29-2.56-2.88-25.49-.4-25.86,2.83-25.78,9,.23,7.64,49,14,38.58s-5.15-59,3.86-59.1h.16c12.19.84,9.91,52,10,56.29a3.21,3.21,0,0,0,5,2.6,2.5,2.5,0,0,0,1-2.39c-.48-5.58-3.84-64.6,8.14-63.91a4.44,4.44,0,0,1,1.69.43c4.53,2.18,2.81,11.84,2.81,11.84s-.9,55.58,4.78,55.69a1.91,1.91,0,0,0,1.59-.92c4.47-5.35,5.76-32.67,5.53-42.58-.18-8,2.56-12.66,6-13a5.07,5.07,0,0,1,3.79,1.24c3.35,2.56,4.88,36.31,4.83,47.2,0,6.62-.23,20.24,2.31,26.6,1.69,4.19,4.52,5.27,9.35-.57,12.3-14.84,27.21-21.74,32.45-20.84a4.89,4.89,0,0,1,3.81,3.15,6.63,6.63,0,0,1-3.43,8.11c-4.32,2.11-10.5,7.86-14.93,12.4a47,47,0,0,0-9,12.69c-1.16,2.41-2.19,4.66-3.11,6.78-.66,1.48-1.25,2.91-1.82,4.28l-6.46,15.16-7.61,17.87-.78,1.79-.17.45-.74.09-12.35,1.9,13.09-2s34.66,197.43,43.67,195.84c4.31-.78,32.77-16.09,61.22-31.8,30.86-17,61.72-34.59,61.72-34.59Z"/><path class="cls-5" d="M3448.43,2488.63c-29.11,24-74.64,59.62-81.13,53.12-9.65-9.65-39.42-214.78-39.42-214.78s13.64-4.94,24.22-22.49l-7.61,17.87-.78,1.79-.17.45s34.66,197.43,43.67,195.84C3391.52,2519.65,3420,2504.34,3448.43,2488.63Z"/><path class="cls-4" d="M3637.43,2520c-5.22,17.83-8.83,29.22-8.83,29.22l-62.17,28-.19-.47L3511,2438.88c31.36-35.43,88.53-98.79,145.62-128.7C3701.9,2286.42,3657.58,2451.16,3637.43,2520Z"/><path class="cls-22" d="M3637.43,2520c-5.22,17.83-8.83,29.22-8.83,29.22l-62.17,28-.19-.47,2.2-18c14.48-50.65,48.25-122.21,48.25-122.21Z"/><path class="cls-4" d="M3921.49,2522.9c-4.89,5-7.89,8.14-7.89,8.14l9.5,271.23-350.49,17.56s19.25-341.28,24.26-409,43.28-110.29,104-128.27c23.19-6.86,106.38-2.79,136.07-2.79,77.12,0,161.57,170.84,161.57,170.84C3990.05,2453.25,3940.92,2503,3921.49,2522.9Z"/><path class="cls-2" d="M3733.76,2421.25c2.64,8.22,3.23,16.45,3.35,24.67-.1,8.23-.7,16.45-3.35,24.68-2.65-8.23-3.25-16.45-3.34-24.68C3730.53,2437.7,3731.12,2429.47,3733.76,2421.25Z"/><path class="cls-2" d="M3680,2314.34c2.64,8.22,3.23,16.45,3.34,24.67-.09,8.23-.69,16.45-3.34,24.68-2.65-8.23-3.25-16.45-3.35-24.68C3676.75,2330.79,3677.34,2322.56,3680,2314.34Z"/><path class="cls-2" d="M3893.65,2329.27c2.63,8.23,3.23,16.45,3.34,24.68-.1,8.22-.69,16.45-3.34,24.67-2.66-8.22-3.25-16.45-3.35-24.67C3890.41,2345.72,3891,2337.5,3893.65,2329.27Z"/><path class="cls-2" d="M3930.09,2443.76c2.64,8.23,3.24,16.45,3.35,24.68-.1,8.22-.69,16.45-3.35,24.67-2.65-8.22-3.24-16.45-3.34-24.67C3926.86,2460.21,3927.46,2452,3930.09,2443.76Z"/><path class="cls-2" d="M3656.57,2613.08c2.64,8.23,3.23,16.45,3.34,24.68-.1,8.22-.69,16.45-3.34,24.67-2.66-8.22-3.25-16.45-3.35-24.67C3653.34,2629.53,3653.93,2621.31,3656.57,2613.08Z"/><path class="cls-2" d="M3781.72,2726.39c2.64,8.23,3.23,16.45,3.35,24.68-.1,8.22-.7,16.45-3.35,24.67-2.65-8.22-3.24-16.45-3.34-24.67C3778.49,2742.84,3779.08,2734.62,3781.72,2726.39Z"/><path class="cls-2" d="M3656.57,2535.36c7.64,4,13.81,9.49,19.65,15.29,5.68,5.95,11,12.24,14.87,20-7.65-4-13.83-9.49-19.65-15.3S3660.44,2543.08,3656.57,2535.36Z"/><path class="cls-2" d="M3821.63,2508.67c7.64,4,13.81,9.49,19.65,15.29,5.68,5.95,11,12.24,14.87,20-7.65-4-13.83-9.49-19.65-15.3C3830.82,2522.68,3825.49,2516.39,3821.63,2508.67Z"/><path class="cls-2" d="M3838.89,2403.61c7.64,4,13.81,9.5,19.65,15.3,5.68,5.94,11,12.24,14.87,20-7.65-4-13.83-9.48-19.65-15.29C3848.09,2417.63,3842.76,2411.34,3838.89,2403.61Z"/><path class="cls-2" d="M3745.38,2339c7.64,4,13.82,9.5,19.65,15.3,5.68,5.94,11,12.24,14.87,20-7.65-4-13.83-9.48-19.65-15.29C3754.58,2353,3749.25,2346.74,3745.38,2339Z"/><path class="cls-2" d="M3628.61,2428.29c7.64,4,13.81,9.49,19.65,15.29,5.68,6,11,12.24,14.87,20-7.65-4-13.83-9.49-19.65-15.3S3632.47,2436,3628.61,2428.29Z"/><path class="cls-2" d="M3566.35,2423.84c-1.3,8.54-4.44,16.16-8,23.58-3.76,7.31-8,14.41-14,20.59,1.29-8.55,4.43-16.17,8-23.58C3556.12,2437.12,3560.32,2430,3566.35,2423.84Z"/><path class="cls-2" d="M3625.39,2742.12c7.64,4,13.82,9.5,19.65,15.3,5.68,5.94,11,12.24,14.87,20-7.65-4-13.83-9.48-19.65-15.29C3634.59,2756.14,3629.26,2749.85,3625.39,2742.12Z"/><path class="cls-2" d="M3888.62,2698.87c-7.64,4-13.82,9.49-19.65,15.29-5.69,6-11,12.24-14.88,20,7.65-4,13.83-9.49,19.66-15.3C3879.42,2712.88,3884.75,2706.59,3888.62,2698.87Z"/><path class="cls-2" d="M3790.1,2591.37c-1.59,8.49-5,16-8.78,23.3-4,7.19-8.42,14.15-14.67,20.12,1.58-8.49,5-16,8.78-23.3C3779.44,2604.31,3783.87,2597.35,3790.1,2591.37Z"/><path class="cls-2" d="M3720.72,2683c-1.59,8.5-5,16-8.78,23.31-4,7.19-8.42,14.14-14.67,20.12,1.58-8.5,5-16,8.78-23.3C3710.06,2695.91,3714.49,2689,3720.72,2683Z"/><path class="cls-2" d="M3877.54,2616c-1.59,8.49-5,16-8.78,23.31-4,7.19-8.42,14.14-14.67,20.12,1.58-8.5,5-16,8.78-23.3C3866.88,2629,3871.31,2622,3877.54,2616Z"/><path class="cls-22" d="M3931,2513.12c-4.89,5-17.39,17.92-17.39,17.92l-1.93-75.93Z"/><path class="cls-7" d="M3985.89,2438.88s14.74-11.31,16.88-8.9,14.21,25.13,14.21,25.13l-91.82,83.53c-2.47,2.29-10.56,2.25-11.33-1l-.8-28.94S3955.07,2460.24,3985.89,2438.88Z"/><path class="cls-7" d="M3521,2435s-9.29-16.09-12.2-14.68-22.73,17.79-22.73,17.79l71.91,154.07c1,2.13,15.59-5.19,23.47-9.28,3.39-1.76,3.32-4.83,1.92-8.38C3573.75,2550.28,3538.42,2462.07,3521,2435Z"/><path class="cls-7" d="M3557.05,2812.72l2.46,30.42s364.73-22.64,381.62-23.31,7.24-31.23,7.24-31.23S3587.22,2803.88,3557.05,2812.72Z"/><path class="cls-6" d="M4041.64,2623.76c-22.77,38.86-178.52,95.82-250,143l-9.89-7.72-19.42-15.13-12.5-9.75c35.27-21.92,138.38-98.24,166.69-121,34.64-27.92,32.05-54.91,11-76.54l41.43-37.67,36.27-33C4051.3,2517.66,4067.17,2580.18,4041.64,2623.76Z"/><path class="cls-6" d="M3791.6,2766.72l-5.42,9L3774,2796.13a6,6,0,0,0-.4.7s0,0,0,0c-.91,1.47-1.85,3-2.79,4.47-12.06,19.2-26,40.47-34.93,51.17-.58.69-1.14,1.31-1.65,2-1.19,1.41-2.31,2.73-3.35,3.91h-13.47c7.93-11.64,22.82-26.71,14.54-24.93-6.48,1.41-17.58,14.41-27.32,24.93H3689c8.66-13.36,29-31,31.18-33.19a3.21,3.21,0,0,0-1.57-5.43,2.52,2.52,0,0,0-2.45.87c-3.73,4.18-44.3,47.2-52,38a4.28,4.28,0,0,1-.85-1.52c-1.52-4.8,6.67-10.19,6.67-10.19s41-37.52,37.17-41.72a2,2,0,0,0-1.76-.54c-6.95.45-27.7,18.27-34.74,25.24-5.71,5.65-10.94,6.86-13.55,4.6a5,5,0,0,1-1.7-3.61c-.45-4.18,23-28.48,31-35.92,4.8-4.56,14.85-13.76,17.73-19.95,1.9-4.11.74-6.92-6.83-6.41-19.23,1.25-34.49-4.84-37.44-9.27a4.85,4.85,0,0,1-.31-4.93,6.58,6.58,0,0,1,8.22-3.06c4.51,1.67,12.93,2.21,19.3,2.32a47.2,47.2,0,0,0,15.39-2.19c4.31-1.38,8-2.72,11.41-4l33.68-12.46,1.84-.65.42-.18.58.47,11.93,9.27,19.43,15.14,5.79,4.49Z"/><path class="cls-5" d="M4041.64,2623.76c-22.77,38.86-178.52,95.82-250,143l-5.43,9L3774,2796.14c-.13.21-.28.43-.41.68,0,0,0,0,0,0-.92,1.48-1.85,3-2.78,4.47,6.17-19.4,11-42.31,11-42.31h0c2-1.08,157.21-85.59,193.17-116,33.95-28.66,13.67-110.73-6-144.18l36.27-33C4051.3,2517.66,4067.17,2580.18,4041.64,2623.76Z"/><polygon class="cls-18" points="3249.99 2600.78 3339.76 2863.13 3746.27 2863.13 3743.27 2849.62 3578.89 2844.53 3503.17 2600.65 3249.99 2600.78"/><path class="cls-2" d="M3430.12,2724c2.69,10.75-1.92,21.27-10.28,23.51s-17.32-4.66-20-15.41,1.92-21.28,10.28-23.52S3427.44,2713.26,3430.12,2724Z"/><path class="cls-14" d="M4289.68,2828.37c30.13-14.74,77.69-53.38,65.75-66.18s-29.59-21.1-11.15-34.51,44.89-32.35,23.69-42.73-53,27.58-49.92,44.41-14.53,8.58-23.23,23.08,7.13,25.95,4,35.26-36.76,33.87-25.26,40S4289.68,2828.37,4289.68,2828.37Z"/><path class="cls-7" d="M4327.67,2743.65a184.61,184.61,0,0,1-7.83,20l-2.31,4.86c-.74,1.63-1.61,3.2-2.41,4.8l-1.22,2.4c-.4.8-.84,1.58-1.26,2.37-.86,1.58-1.69,3.17-2.57,4.73l-2.63,4.69c-.88,1.57-1.82,3.1-2.71,4.65s-1.82,3.09-2.76,4.63-1.85,3.07-2.8,4.59-1.89,3.06-2.85,4.57-1.92,3.05-2.9,4.55c-1.91,3.05-3.91,6-5.9,9,4.54-5.59,8.75-11.44,12.74-17.44s7.76-12.16,11.27-18.46a215.71,215.71,0,0,0,9.5-19.45A124.27,124.27,0,0,0,4327.67,2743.65Z"/><path class="cls-15" d="M4270.76,2841.09l2.12-17.18s33.41-14.82,29.36-24,17.82-14.07,13.27-23.93-25.9-12.29-13.72-29,30.08-49.68,9.64-61.65-34.75,7.11-36.13-7.2-1-51.85-22.11-51.58-14.62,28.68-6,38.37-12.79-.39-26.41,13.7c-24.45,25.31,19.75,28,26.5,30.75s-27.75,16.42-29.62,39.56,2.32,43.95,23.22,60S4270.76,2841.09,4270.76,2841.09Z"/><path class="cls-7" d="M4264.09,2683.18a299.4,299.4,0,0,0-1.55,34.89l.23,8.73c0,2.91.29,5.81.43,8.71l.22,4.36c.08,1.45.22,2.9.32,4.35.24,2.91.43,5.81.7,8.71l.82,8.69c.27,2.9.67,5.78,1,8.68s.67,5.79,1.05,8.67.73,5.79,1.14,8.67.79,5.78,1.23,8.66.84,5.77,1.3,8.65c.83,5.77,1.85,11.52,2.83,17.28-3.06-11.28-5.47-22.74-7.45-34.27s-3.51-23.13-4.58-34.79a345.61,345.61,0,0,1-1.31-35.1A201,201,0,0,1,4264.09,2683.18Z"/><path class="cls-14" d="M4246.91,2823.73c37.75-13.61,44.33-41,35.69-59.86s-43.5-7.33-43.5-7.33,25.34-46.9,9.24-73.24-48.5-16.05-50.46,8.94,6.11,28.89,6.11,28.89-7.67-24.65-24.52-13.13,4,38.09,21.4,46.65c0,0-24.78-5.72-28.81,8.23s10.59,47.36,33.36,55S4246.91,2823.73,4246.91,2823.73Z"/><path class="cls-7" d="M4222.71,2730.15a186.24,186.24,0,0,0-.95,21.5l.14,5.37c0,1.79.18,3.58.26,5.37l.14,2.69c.05.89.13,1.79.2,2.68.14,1.79.26,3.58.43,5.36l.51,5.36c.16,1.78.41,3.56.59,5.35s.42,3.56.65,5.34.45,3.56.7,5.34.49,3.56.76,5.33.52,3.56.8,5.33c.51,3.56,1.14,7.1,1.74,10.65-1.88-7-3.37-14-4.58-21.11s-2.17-14.26-2.83-21.44a213.89,213.89,0,0,1-.81-21.63A124.85,124.85,0,0,1,4222.71,2730.15Z"/><polygon class="cls-7" points="4321.49 2811.28 4320.72 2814.72 4319.99 2818.05 4319.55 2820.02 4318.81 2823.36 4318.38 2825.31 4317.64 2828.66 4317.2 2830.63 4316.47 2833.95 4316.03 2835.93 4315.29 2839.26 4314.86 2841.22 4314.12 2844.57 4313.69 2846.53 4312.94 2849.86 4312.5 2851.82 4311.76 2855.17 4311.33 2857.12 4310.59 2860.47 4310.09 2862.74 4208.26 2864.2 4207.45 2861.71 4206.37 2858.39 4205.74 2856.44 4204.66 2853.13 4204.04 2851.18 4202.97 2847.86 4202.33 2845.91 4201.26 2842.59 4200.63 2840.64 4199.55 2837.33 4198.92 2835.37 4197.84 2832.06 4197.21 2830.1 4196.14 2826.8 4195.5 2824.84 4194.43 2821.52 4193.8 2819.57 4192.72 2816.25 4191.98 2813.96 4321.49 2811.28"/><polygon class="cls-9" points="4320.72 2814.72 4319.99 2818.05 4193.8 2819.57 4192.72 2816.25 4320.72 2814.72"/><polygon class="cls-9" points="4319.55 2820.02 4318.81 2823.36 4195.5 2824.84 4194.43 2821.52 4319.55 2820.02"/><polygon class="cls-9" points="4318.38 2825.31 4317.64 2828.66 4197.21 2830.1 4196.14 2826.8 4318.38 2825.31"/><polygon class="cls-9" points="4317.2 2830.63 4316.47 2833.95 4198.92 2835.37 4197.84 2832.06 4317.2 2830.63"/><polygon class="cls-9" points="4316.03 2835.93 4315.29 2839.26 4200.63 2840.64 4199.55 2837.33 4316.03 2835.93"/><polygon class="cls-9" points="4314.86 2841.22 4314.12 2844.57 4202.33 2845.91 4201.26 2842.59 4314.86 2841.22"/><polygon class="cls-9" points="4313.69 2846.53 4312.94 2849.86 4204.04 2851.18 4202.97 2847.86 4313.69 2846.53"/><polygon class="cls-9" points="4312.5 2851.82 4311.76 2855.17 4205.74 2856.44 4204.66 2853.13 4312.5 2851.82"/><polygon class="cls-9" points="4311.33 2857.12 4310.59 2860.47 4207.45 2861.71 4206.37 2858.39 4311.33 2857.12"/><path class="cls-6" d="M3658.21,2014.82V2189.4c0,29.16,24.47,55.4,55.69,58.22v63.45a63,63,0,0,0,18.51,44.69,60.65,60.65,0,0,0,5.36,4.77,63.19,63.19,0,0,0,102.54-49.46V2067.26l-16.77-16.16-11.88-11.46-17.18-26.92-114.29,1.77Z"/><path class="cls-17" d="M3713.9,2247.62v26.59l55.72-35.71A183.3,183.3,0,0,1,3713.9,2247.62Z"/><path class="cls-5" d="M3737.77,2360.53a63.19,63.19,0,0,0,102.54-49.46V2126.64l-8.54,9.21c.14,2.76,9.66,69.51-41.89,110C3743.81,2282.07,3731.21,2335.19,3737.77,2360.53Z"/><path class="cls-18" d="M3844.54,1907.55C3827,1875.3,3749.07,1870,3729.7,1910c0,0-72.87-8.18-67.8,60.18,0,0-64.57,14.45-55.35,63.56,10.71,57,114.31,79.58,118.92,94s17.65-39.72,50.39-13.72-13.14,52.72-13.83,82.32,12.8,33.47,42.89,26.24c0,0,32.86,48.39,109.3,17.7s40.89-129.42,40.89-129.42,22.14-28.89,13.83-61-46-44.05-46-44.05S3960.87,1906.83,3844.54,1907.55Z"/><path class="cls-23" d="M3750.22,1920.83a40.47,40.47,0,0,0-23.56-2.07,47,47,0,0,0-21.89,11,45.7,45.7,0,0,0-13.43,20.59c-2.41,7.84-2.43,16.67,1.18,23.75A58.82,58.82,0,0,1,3700,1954a65,65,0,0,1,12.73-15.37,68.58,68.58,0,0,1,16.8-11A109,109,0,0,1,3750.22,1920.83Z"/><path class="cls-23" d="M3675.52,1991.05c-38.21-3-61,42.69-24.81,68s79.9,45.16,85.86,55.59c0,0-11.76-31.41-52-61.86S3654.18,1994,3675.52,1991.05Z"/></g></g></svg>